<?xml version="1.0" standalone="no"?>
<!DOCTYPE svg PUBLIC "-//W3C//DTD SVG 20010904//EN"
 "http://www.w3.org/TR/2001/REC-SVG-20010904/DTD/svg10.dtd">
<svg version="1.0" xmlns="http://www.w3.org/2000/svg"
 width="500.000000pt" height="500.000000pt" viewBox="0 0 500.000000 500.000000"
 preserveAspectRatio="xMidYMid meet">

<g transform="translate(0.000000,500.000000) scale(0.100000,-0.100000)"
fill="#000000" stroke="none">
<path d="M2325 4779 c-726 -56 -1369 -444 -1760 -1060 -468 -737 -468 -1701 0
-2438 535 -843 1535 -1240 2506 -996 545 138 1024 481 1340 960 500 757 500
1753 0 2510 -398 604 -1024 970 -1751 1025 -148 11 -187 11 -335 -1z m-324
-1129 c119 -78 258 -324 259 -457 0 -46 -6 -60 -46 -117 -74 -106 -164 -166
-316 -210 -32 -9 -58 -18 -58 -20 0 -13 69 -165 106 -235 141 -265 392 -514
650 -644 55 -28 240 -107 250 -107 1 0 12 28 24 63 56 152 105 221 206 291 57
40 71 46 117 46 107 -1 296 -93 403 -198 81 -79 87 -95 74 -200 -28 -225 -151
-427 -308 -504 -57 -28 -78 -33 -163 -36 -396 -16 -866 221 -1280 645 -312
320 -506 647 -575 971 -26 121 -30 296 -9 367 58 201 308 356 601 374 11 0 41
-12 65 -29z"/>
</g>
</svg>
