<?xml version="1.0" encoding="UTF-8"?>
<svg id="Layer_1" data-name="Layer 1" xmlns="http://www.w3.org/2000/svg" viewBox="0 0 132.14 132.14">
  <defs>
    <style>
      .cls-1 {
        fill: #fff;
      }

      .cls-2 {
        fill: #6a747c;
      }

      .cls-3 {
        fill: #e1251b;
      }
    </style>
  </defs>
  <g>
    <g>
      <path class="cls-1" d="m66.34,12.62c-31.53,0-57.18,25.65-57.18,57.18,0,15.86,6.34,30.6,17.85,41.51l.63.59.63-.59c1.66-1.53,3.39-2.95,5.2-4.25,8.77,7.74,20.27,12.46,32.86,12.46s24.07-4.71,32.84-12.44c1.8,1.3,3.53,2.71,5.18,4.24l.63.59.63-.59c11.54-10.93,17.89-25.67,17.89-41.51,0-31.53-25.65-57.18-57.18-57.18Z"/>
      <g>
        <path class="cls-3" d="m52.05,37.82c-1.34,0-2.4.9-2.4,2.04s1.06,2.02,2.4,2.02,2.4-.88,2.4-2.02-1.05-2.04-2.4-2.04m0,5.43c-2.11,0-3.77-1.48-3.77-3.39,0-1.91,1.66-3.41,3.77-3.41,2.11,0,3.76,1.5,3.76,3.41,0,1.91-1.65,3.39-3.76,3.39"/>
        <path class="cls-3" d="m65.51,43.25c-.76,0-1.37-.63-1.37-1.4v-2.82c0-.67-.59-1.21-1.31-1.21-.71,0-1.3.54-1.3,1.21v4.22c-.76,0-1.37-.61-1.37-1.37v-2.85c0-.67-.58-1.21-1.31-1.21s-1.3.54-1.3,1.21v2.84c0,.76-.61,1.38-1.37,1.38v-4.22c0-1.43,1.2-2.58,2.67-2.58.8,0,1.51.33,1.99.86.48-.53,1.2-.86,1.98-.86,1.48,0,2.68,1.16,2.68,2.58v4.22Z"/>
        <path class="cls-3" d="m69.95,43.23c-.36,0-.7-.03-1.01-.1-.71-.2-1.13-.94-.94-1.65.03-.09.06-.17.09-.24h.01c.39.41,1.01.63,1.85.63,1.26,0,2.24-.88,2.24-2,0-1.15-.98-2.07-2.24-2.07-1.18,0-2.37.66-2.37,2.1v4.43c0,.74-.63,1.34-1.37,1.34v-5.77c0-2,1.57-3.47,3.74-3.47.96,0,1.85.36,2.54.98.69.64,1.07,1.51,1.07,2.45,0,1.88-1.58,3.36-3.61,3.36"/>
        <path class="cls-3" d="m79.72,35.15h-2.93s0,8.1,0,8.1h-.06c-.73,0-1.31-.63-1.31-1.37v-6.73s-2.93,0-2.93,0c-.74,0-1.34-.61-1.34-1.35h9.92c0,.74-.6,1.35-1.35,1.35"/>
        <path class="cls-3" d="m88.4,35.21l-1.95,4.28h3.67s-1.96-4.29-1.96-4.29h.24Zm3.03,7.18l-.73-1.56h-4.86s-.72,1.61-.72,1.61c-.34.65-1.24.84-1.93.84l3.96-8.69c.22-.5.62-.78,1.09-.78s.87.29,1.1.78l3.92,8.58c-.74.07-1.54-.15-1.83-.78"/>
        <path class="cls-3" d="m46.75,36.35c-.74-.78-1.82-1.3-3.02-1.3-2.12,0-3.85,1.54-3.85,3.44s1.73,3.45,3.85,3.45c1.01,0,1.97-.38,2.7-1,.5-.41,1.24-.38,1.73.03-.37.57-.87,1.07-1.48,1.45-.87.56-1.88.84-2.94.84-2.87,0-5.19-2.14-5.19-4.78,0-2.64,2.32-4.78,5.19-4.78,2.04,0,3.89,1.11,4.72,2.82-.53.34-1.25.3-1.7-.19"/>
        <path class="cls-3" d="m94.05,42.14s-.04.02-.07.03c0,0,.04.05.18.22l-.03.02c-.06.05-.14.04-.19-.02-.15-.18-.17-.2-.17-.2h-.17s0-.05,0-.05c0-.06.06-.12.13-.12h.08c.06,0,.11-.01.14-.03.03-.01.03-.03.03-.06,0-.02,0-.08-.17-.08h-.23v.45c0,.07-.06.13-.14.13h-.03s0-.62,0-.62c0-.07.06-.12.13-.13h.27c.31,0,.34.18.34.25,0,.09-.05.16-.12.21m-.27-.56c-.32,0-.57.22-.57.5s.25.5.57.5.57-.22.57-.5-.26-.5-.57-.5m0,1.15c-.4,0-.72-.29-.72-.65s.32-.65.72-.65.72.3.72.65-.32.65-.72.65"/>
        <path class="cls-3" d="m81.51,33.8v8.12c0,.73.63,1.33,1.37,1.33v-8.12c0-.73-.63-1.33-1.37-1.33"/>
      </g>
    </g>
    <g>
      <path class="cls-2" d="m66.34,12.62c-31.53,0-57.18,25.65-57.18,57.18,0,15.86,6.34,30.6,17.85,41.51l.63.59.63-.59c1.66-1.53,3.39-2.95,5.2-4.25,8.77,7.74,20.27,12.46,32.86,12.46s24.07-4.71,32.84-12.44c1.8,1.3,3.53,2.71,5.18,4.24l.63.59.63-.59c11.54-10.93,17.89-25.67,17.89-41.51,0-31.53-25.65-57.18-57.18-57.18Zm32.7,92.1c-8.18-5.6-17.65-8.98-27.61-9.85v-6.49h-1.84v10.28c0,.72.24,1.43.68,1.99l2.65,3.43c-.35.47-.56,1.04-.56,1.66,0,1.54,1.25,2.79,2.79,2.79s2.79-1.25,2.79-2.79-1.25-2.79-2.79-2.79c-.24,0-.48.04-.7.1l-2.72-3.52c-.19-.25-.29-.55-.29-.86v-1.93c9.42.85,18.4,4.03,26.19,9.27-8.4,7.27-19.33,11.68-31.28,11.68s-22.9-4.42-31.3-11.69c7.6-5.1,16.35-8.27,25.53-9.21v1.88c0,.31-.1.62-.3.86l-2.72,3.52c-.22-.06-.45-.1-.69-.1-1.54,0-2.79,1.25-2.79,2.79s1.25,2.79,2.79,2.79,2.79-1.25,2.79-2.79c0-.63-.22-1.2-.57-1.67l2.64-3.42c.44-.57.68-1.28.68-1.99v-10.28h-1.84v6.54c-9.7.96-18.95,4.33-26.94,9.79-9.32-8.74-15.16-21.15-15.16-34.91,0-26.4,21.48-47.87,47.87-47.87s47.87,21.48,47.87,47.87c0,13.76-5.85,26.18-15.18,34.92Zm5.94,4.66c-1.42-1.27-2.89-2.45-4.41-3.57,9.53-9.06,15.49-21.85,15.49-36.01,0-27.41-22.3-49.72-49.72-49.72s-49.72,22.3-49.72,49.72c0,14.15,5.95,26.93,15.48,35.99-1.53,1.12-3.01,2.31-4.43,3.58-10.75-10.5-16.66-24.52-16.66-39.57,0-30.51,24.82-55.33,55.33-55.33s55.33,24.82,55.33,55.33c0,15.04-5.92,29.06-16.7,39.58Z"/>
      <path class="cls-3" d="m125.25,49.37H1.88v29.89c0,2.76,2.25,5.01,5.01,5.01h123.37v-29.89c0-2.76-2.25-5.01-5.01-5.01Z"/>
      <g>
        <path class="cls-1" d="m73.73,77.41h-3.94l-2.15-5.13h-10.04l-2.18,5.13h-3.82l9.34-21.38h3.46l9.34,21.38Zm-11.13-16.92l-3.64,8.49h7.31l-3.67-8.49Z"/>
        <path class="cls-1" d="m79.93,59.27h3.46v5.79h5.82v3.34h-5.82v5.79h-3.46v-5.79h-5.82v-3.34h5.82v-5.79Z"/>
      </g>
      <path class="cls-2" d="m66.92,109.36v-20.98h-1.84v20.98c-1.09.38-1.87,1.41-1.87,2.63,0,1.54,1.25,2.79,2.79,2.79s2.79-1.25,2.79-2.79c0-1.22-.79-2.24-1.87-2.63Z"/>
    </g>
  </g>
  <path class="cls-2" d="m105.2,107.95s-.04.02-.07.03c0,0,.04.05.18.22l-.03.02c-.06.05-.14.04-.19-.02-.15-.18-.17-.2-.17-.2h-.17s0-.05,0-.05c0-.06.06-.12.13-.12h.08c.06,0,.11-.01.14-.03.03-.01.03-.03.03-.06,0-.02,0-.08-.17-.08h-.23v.45c0,.07-.06.13-.14.13h-.03s0-.62,0-.62c0-.07.06-.12.13-.13h.27c.31,0,.34.18.34.25,0,.09-.05.16-.12.21m-.27-.56c-.32,0-.57.22-.57.5s.25.5.57.5.57-.22.57-.5-.26-.5-.57-.5m0,1.15c-.4,0-.72-.29-.72-.65s.32-.65.72-.65.72.3.72.65-.32.65-.72.65"/>
</svg>