<?xml version="1.0" encoding="utf-8"?>
<!-- Generator: Adobe Illustrator 27.0.0, SVG Export Plug-In . SVG Version: 6.00 Build 0)  -->
<svg version="1.1" id="Layer_1" xmlns="http://www.w3.org/2000/svg" xmlns:xlink="http://www.w3.org/1999/xlink" x="0px" y="0px"
	 viewBox="0 0 142 75.3" style="enable-background:new 0 0 142 75.3;" xml:space="preserve">
<style type="text/css">
	.st0{fill-rule:evenodd;clip-rule:evenodd;}
	.st1{fill-rule:evenodd;clip-rule:evenodd;fill:#AC1F2D;}
</style>
<g id="Symbols">
	<g id="Top-Navigation---Signed-In">
		<g id="Logo">
			<g id="Group">
				<path id="Fill-1" class="st0" d="M53.2,67.6v5.8h1.6v-5.1c0-0.2,0.1-0.3,0.3-0.3c0,0,0,0,0,0h2.1v-1.4h-3L53.2,67.6z M59.7,68.3
					c0-0.2,0.1-0.3,0.3-0.3c0,0,0,0,0,0h2.2c0.2,0,0.3,0.1,0.3,0.3c0,0,0,0,0,0v0.9h-2.9L59.7,68.3z M62.7,71.8
					C62.6,72,62.5,72,62.3,72H60c-0.2,0-0.3-0.1-0.3-0.3c0,0,0,0,0,0v-1h4.5v-3l-1-1h-4.1l-1,1v4.8l1,1h4.1l1.2-1.2l-1-1L62.7,71.8z
					 M67.2,68h2.1c0.1,0,0.2,0,0.3,0.1l0.6,0.6l1.1-1l-1.1-1.1h-3.8l-1,1v1.8c0,0.4,0.3,0.8,0.9,0.9l3.1,0.6c0.1,0,0.2,0.1,0.2,0.2
					c0,0,0,0,0,0v0.6c0,0.2-0.1,0.3-0.3,0.3c0,0,0,0,0,0h-2c-0.1,0-0.2,0-0.3-0.1l-0.6-0.6l-1,1l1,1.2h3.8l1-1v-1.9
					c0-0.4-0.2-0.8-0.9-0.9L67.1,69c-0.1,0-0.2-0.1-0.2-0.2v-0.4C66.8,68.1,67,68,67.2,68C67.2,68,67.2,68,67.2,68L67.2,68z
					 M72.7,65.6h1.6V64h-1.6V65.6z M71.8,66.6h2.5v6.8h-1.6v-5.1c0-0.2-0.1-0.3-0.2-0.3c0,0,0,0-0.1,0h-0.6V66.6z M80,71.7
					c0,0.2-0.1,0.3-0.3,0.3c0,0,0,0,0,0h-2.2c-0.2,0-0.3-0.1-0.3-0.3c0,0,0,0,0,0v-3.3c0-0.2,0.1-0.3,0.3-0.3c0,0,0,0,0,0h2.2
					c0.2,0,0.3,0.1,0.3,0.3c0,0,0,0,0,0V71.7z M81.6,64h-1.7v2.6h-3.4l-1,1v4.8l1,1h4.1l1-1L81.6,64z M84.4,68.3
					c0-0.2,0.1-0.3,0.3-0.3c0,0,0,0,0,0h2.2c0.2,0,0.3,0.1,0.3,0.3c0,0,0,0,0,0v0.9h-2.9L84.4,68.3z M87.4,71.8
					c-0.1,0.1-0.2,0.1-0.3,0.1h-2.4c-0.2,0-0.3-0.1-0.3-0.3c0,0,0,0,0,0v-1h4.5v-3l-1-1h-4.1l-1,1v4.8l1,1h4.1l1.2-1.2l-1-1
					L87.4,71.8z M94.6,71.6c0,0.2-0.1,0.3-0.3,0.3c0,0,0,0,0,0H92c-0.2,0-0.3-0.1-0.3-0.3c0,0,0,0,0,0v-3.3c0-0.2,0.1-0.3,0.3-0.3
					c0,0,0,0,0,0h2.2c0.2,0,0.3,0.1,0.3,0.3c0,0,0,0,0,0L94.6,71.6z M95.2,66.5H91l-1,1v4.8l1,1h4.1l1-1v-4.8L95.2,66.5L95.2,66.5z"
					/>
				<polyline id="Fill-2" class="st1" points="131.2,0 126.7,12 126.7,59.1 142,59.1 142,0 131.2,0 				"/>
				<path id="Fill-3" class="st1" d="M106.4,2.4l-5.6,14l0,0c4.7,2.4,7.5,6.9,7.5,13.1v0.2c0,6.2-2.8,10.7-7.4,13.1
					c-2.7,1.3-5.7,1.9-8.7,1.9h-2.6l-5.8,14.5h7.9c21,0,33.3-12.7,33.3-29.7v-0.2C124.9,16.6,118.3,6.7,106.4,2.4"/>
				<g id="Group-7">
					<g>
						<path id="Fill-4" class="st1" d="M85.6,44.5v-30h6.6c1.8,0,3.5,0.2,5.3,0.6l0,0L103,1.3C99.4,0.5,95.7,0,92,0H69.4v59h10.5
							L85.6,44.5"/>
					</g>
					<g>
						<polyline id="Fill-6" class="st1" points="41.6,0 25.7,0 25.7,0 0,59.1 17,59.1 41.6,0 						"/>
					</g>
				</g>
				<polyline id="Fill-8" class="st1" points="43.8,4.4 25.4,48.6 45.2,48.6 49.6,59.1 67.6,59.1 43.8,4.4 				"/>
				<path id="Fill-9" class="st0" d="M103.6,73.1c-0.8,0.3-1.8,0.3-2.6,0c-0.7-0.4-0.9-1.3-0.9-2.5c0-0.9,0.1-2.1,0.9-2.6
					c0.8-0.3,1.8-0.3,2.6,0c0.5,0.4,0.8,0.9,0.9,1.6h-0.9c0-0.4-0.2-0.7-0.5-1c-0.3-0.1-0.6-0.2-0.8-0.2c-0.3,0-0.6,0-0.8,0.2
					c-0.4,0.3-0.5,1.1-0.5,2s0.1,1.5,0.5,1.9c0.3,0.1,0.5,0.2,0.8,0.2c0.3,0,0.6,0,0.8-0.2c0.3-0.2,0.5-0.6,0.5-1h0.8
					C104.4,72.1,104.1,72.7,103.6,73.1"/>
				<path id="Fill-10" class="st0" d="M108.4,68.6c-0.3-0.2-0.6-0.2-0.9-0.2c-0.3,0-0.6,0-0.9,0.2c-0.4,0.3-0.5,1.1-0.5,2
					s0.1,1.6,0.5,1.9c0.3,0.2,0.6,0.2,0.9,0.2c0.3,0,0.6,0,0.9-0.2c0.4-0.3,0.5-1,0.5-1.9S108.9,69,108.4,68.6 M108.9,73.1
					c-0.9,0.3-1.8,0.3-2.7,0c-0.8-0.4-0.9-1.6-0.9-2.5s0.1-2.1,0.9-2.6c0.9-0.3,1.8-0.3,2.7,0c0.8,0.5,0.9,1.7,0.9,2.6
					S109.7,72.6,108.9,73.1"/>
				<path id="Fill-11" class="st0" d="M118,73.2v-3.7c0-0.9-0.5-1-1.2-1s-1.4,0.5-1.4,1.1v3.7h-0.8v-3.8c0-0.9-0.5-1-1.2-1
					c-0.7-0.1-1.4,0.5-1.5,1.3c0,0,0,0,0,0v3.5h-0.8v-5.3h0.8v0.9c0.3-0.7,1-1.1,1.7-1c0.7-0.1,1.4,0.3,1.7,0.9c0.3-0.6,1-1,1.7-0.9
					c1.3,0,1.8,0.6,1.8,1.7v3.7L118,73.2"/>
				<path id="Fill-12" class="st0" d="M123.5,68.6c-0.3-0.1-0.7-0.2-1-0.2c-1.2,0-1.4,0.8-1.4,2.2c0,1.1,0.3,2.1,1.4,2.1
					c0.3,0,0.7,0,1-0.2c0.5-0.3,0.5-1.1,0.5-1.9S124,68.9,123.5,68.6 M124,73c-0.5,0.2-0.9,0.3-1.4,0.2c-0.5,0-1.1-0.3-1.4-0.7v2.6
					h-0.9v-7.3h0.8v0.8c0.3-0.6,1-0.9,1.7-0.9c0.4,0,0.8,0.1,1.2,0.2c0.8,0.5,0.9,1.7,0.9,2.6C124.8,71.7,124.7,72.7,124,73"/>
				<path id="Fill-13" class="st0" d="M129.8,70.7h-1.7c-0.8,0-1.1,0.2-1.1,1s0.3,0.9,1.2,0.9c1.2,0,1.6-0.2,1.6-0.8V70.7z
					 M129.8,73.2v-0.7c-0.1,0.3-0.4,0.5-0.7,0.6c-0.4,0.1-0.9,0.2-1.3,0.2c-0.8,0.1-1.6-0.4-1.7-1.3c0-0.1,0-0.3,0-0.4
					c0-0.8,0.6-1.5,1.4-1.5c0.1,0,0.2,0,0.2,0h2.1v-0.5c0-0.5-0.1-0.8-0.4-1c-0.3-0.2-0.7-0.2-1-0.2c-0.3,0-0.6,0-0.9,0.2
					c-0.2,0.2-0.4,0.4-0.4,0.7h-0.9c0-0.5,0.3-1,0.8-1.2c0.4-0.2,0.9-0.3,1.3-0.3c0.5,0,1,0.1,1.5,0.3c0.5,0.3,0.9,0.9,0.8,1.5v3.6
					H129.8z"/>
				<g id="Group-17">
					<g>
						<path id="Fill-14" class="st0" d="M135.6,73.2v-3.7c0-0.9-0.6-1-1.2-1c-0.8-0.1-1.5,0.5-1.5,1.3c0,0,0,0,0,0v3.5H132v-5.3h0.8
							v0.9c0.3-0.7,1-1.1,1.8-1c1.3,0,1.9,0.6,1.9,1.7v3.7L135.6,73.2"/>
					</g>
					<g>
						<path id="Fill-16" class="st0" d="M139.5,74c-0.4,1-0.9,1.3-2.3,1.3v-0.6c0.9,0,1.2-0.2,1.5-0.8l0.5-1.2l-2.1-4.8h0.9l1.6,3.8
							l1.4-3.8h0.8L139.5,74"/>
					</g>
				</g>
				<path id="Fill-18" class="st0" d="M48.5,70.7h-1.7c-0.8,0-1.1,0.2-1.1,1s0.3,0.9,1.2,0.9c1.2,0,1.6-0.2,1.6-0.8L48.5,70.7z
					 M48.5,73.2v-0.7c-0.1,0.3-0.4,0.5-0.7,0.6c-0.4,0.1-0.9,0.2-1.3,0.2c-0.9,0-1.6-0.7-1.6-1.6s0.7-1.6,1.6-1.6l0,0h2.1v-0.5
					c0-0.5-0.1-0.8-0.4-1c-0.3-0.2-0.7-0.2-1-0.2c-0.3,0-0.6,0-0.9,0.2c-0.2,0.2-0.4,0.4-0.4,0.7h-0.9c0-0.5,0.3-1,0.8-1.2
					c0.4-0.2,0.9-0.3,1.3-0.3c0.5,0,1,0.1,1.5,0.3c0.5,0.3,0.8,0.9,0.8,1.5v3.6L48.5,73.2z"/>
			</g>
		</g>
	</g>
</g>
</svg>
