<?xml version="1.0" encoding="UTF-8"?>
<svg id="Layer_1" data-name="Layer 1" xmlns="http://www.w3.org/2000/svg" viewBox="0 0 132.14 132.14">
  <defs>
    <style>
      .cls-1, .cls-2 {
        fill: #fff;
      }

      .cls-2, .cls-3 {
        fill-rule: evenodd;
      }

      .cls-3, .cls-4 {
        fill: #231f20;
      }

      .cls-5 {
        fill: none;
      }

      .cls-6 {
        fill: #ef5e2f;
      }
    </style>
  </defs>
  <g>
    <rect class="cls-6" x="1.47" y="26.95" width="59.88" height="59.88" rx="6.41" ry="6.41"/>
    <rect class="cls-5" x="1.47" y="26.95" width="59.88" height="59.88" rx="6.41" ry="6.41"/>
    <path class="cls-1" d="m17.08,74.89c-.28-2.69-2.07-4.28-5.27-4.28-2.93,0-5.23,2.11-5.23,5.51s2.1,5.54,5.56,5.54c2.77,0,4.71-1.63,5.01-4.34h-3.31c-.13,1-.66,1.78-1.76,1.78-1.75,0-2.07-1.38-2.07-2.85,0-2.03.73-3.06,1.94-3.06,1.08,0,1.76.63,1.87,1.72h3.26Z"/>
    <polygon class="cls-1" points="27.37 81.37 27.37 78.92 22.05 78.92 22.05 77.28 26.38 77.28 26.38 74.83 22.05 74.83 22.05 73.33 27.17 73.33 27.17 70.88 18.62 70.88 18.62 81.37 27.37 81.37"/>
    <path class="cls-2" d="m33.41,81.37c3.37,0,5.56-1.51,5.56-5.46,0-3.45-2.1-5.03-5.48-5.03h-4.6v10.49h4.52Zm-1.08-8.04h.66c1.83,0,2.55.58,2.55,2.77,0,1.98-.87,2.83-2.48,2.83h-.73v-5.59Z"/>
    <rect class="cls-1" x="40.31" y="70.88" width="3.44" height="10.49"/>
    <path class="cls-2" d="m48.35,81.37l.39-1.38h3.42l.41,1.38h3.42l-3.76-10.49h-3.5l-3.76,10.49h3.37Zm3.22-3.57h-2.17l1.06-3.76,1.11,3.76Z"/>
    <path class="cls-3" d="m62.13,87.5v-.79h.64c.28,0,.56.04.56.39,0,.46-.46.4-.78.4h-.42Zm.8.22c.39-.01.7-.18.7-.62,0-.37-.2-.59-.8-.59h-.98v2.24h.28v-1.03h.5l.64,1.03h.33l-.68-1.03Zm-.33,1.66c-.98,0-1.7-.76-1.7-1.75s.72-1.73,1.7-1.73,1.68.76,1.68,1.73-.71,1.75-1.68,1.75Zm0,.27c1.11,0,2-.9,2-2.01s-.9-2-2-2-2.01.9-2.01,2,.9,2.01,2.01,2.01Z"/>
  </g>
  <path class="cls-4" d="m51.25,100.23c-.08-1.52-.18-3.35-.16-4.71h-.05c-.37,1.28-.83,2.64-1.38,4.14l-1.93,5.29h-1.07l-1.76-5.19c-.52-1.54-.95-2.95-1.26-4.24h-.03c-.03,1.36-.11,3.19-.21,4.82l-.29,4.68h-1.34l.76-10.91h1.8l1.86,5.28c.45,1.34.83,2.54,1.1,3.67h.05c.27-1.1.66-2.3,1.15-3.67l1.94-5.28h1.8l.68,10.91h-1.38l-.28-4.79Zm4.66,1.13c.03,1.93,1.26,2.72,2.69,2.72,1.02,0,1.63-.18,2.17-.4l.24,1.02c-.5.23-1.36.49-2.61.49-2.41,0-3.85-1.59-3.85-3.95s1.39-4.22,3.67-4.22c2.56,0,3.24,2.25,3.24,3.69,0,.29-.03.52-.05.66h-5.5Zm4.17-1.02c.02-.91-.37-2.31-1.97-2.31-1.44,0-2.07,1.33-2.18,2.31h4.16Zm3.14-1.04c0-.81-.02-1.47-.06-2.12h1.25l.06,1.26h.05c.44-.74,1.16-1.44,2.46-1.44,1.07,0,1.88.65,2.22,1.57h.03c.24-.44.55-.78.87-1.02.47-.36.99-.55,1.73-.55,1.04,0,2.57.68,2.57,3.4v4.61h-1.39v-4.43c0-1.5-.55-2.41-1.7-2.41-.81,0-1.44.6-1.68,1.29-.06.19-.11.45-.11.71v4.84h-1.39v-4.69c0-1.25-.55-2.15-1.63-2.15-.89,0-1.54.71-1.76,1.42-.08.21-.11.45-.11.7v4.72h-1.39v-5.71Zm13.43,5.71c.03-.53.06-1.33.06-2.02v-9.47h1.41v4.92h.03c.5-.87,1.41-1.44,2.67-1.44,1.94,0,3.32,1.62,3.3,4,0,2.8-1.76,4.19-3.51,4.19-1.13,0-2.04-.44-2.62-1.47h-.05l-.06,1.29h-1.23Zm1.47-3.14c0,.18.03.36.06.52.27.99,1.1,1.67,2.14,1.67,1.49,0,2.38-1.21,2.38-3.01,0-1.57-.81-2.91-2.33-2.91-.97,0-1.88.66-2.17,1.75-.03.16-.08.36-.08.58v1.41Zm8.59-.52c.03,1.93,1.26,2.72,2.69,2.72,1.02,0,1.63-.18,2.17-.4l.24,1.02c-.5.23-1.36.49-2.61.49-2.41,0-3.85-1.59-3.85-3.95s1.39-4.22,3.67-4.22c2.56,0,3.24,2.25,3.24,3.69,0,.29-.03.52-.05.66h-5.5Zm4.17-1.02c.02-.91-.37-2.31-1.97-2.31-1.44,0-2.07,1.33-2.18,2.31h4.16Zm3.14-.71c0-.92-.02-1.72-.06-2.44h1.25l.05,1.54h.06c.36-1.05,1.21-1.72,2.17-1.72.16,0,.28.02.41.05v1.34c-.15-.03-.29-.05-.49-.05-1,0-1.71.76-1.91,1.83-.03.19-.07.42-.07.66v4.17h-1.41v-5.39Z"/>
  <path class="cls-4" d="m70.64,77.77l-2.66,6.77h.66l.8-2.12h3.08l.78,2.12h.66l-2.6-6.77h-.72Zm-.99,4.1l1.33-3.56,1.32,3.56h-2.65Zm9.79.87c0,1.24-.91,1.97-2.47,1.97-1.41,0-2.46-.73-2.46-2.2h.62c.1,1.21.91,1.65,1.95,1.65,1.21,0,1.72-.66,1.72-1.4,0-2.1-4.13-.7-4.13-3.37,0-.94.78-1.81,2.29-1.81s2.29.92,2.28,2.02h-.61c0-1.03-.8-1.48-1.66-1.48-1.3,0-1.77.8-1.66,1.5.29,1.75,4.13.49,4.13,3.11Zm5.74,0c0,1.24-.91,1.97-2.47,1.97-1.41,0-2.45-.73-2.45-2.2h.62c.1,1.21.91,1.65,1.95,1.65,1.21,0,1.72-.66,1.72-1.4,0-2.1-4.13-.7-4.13-3.37,0-.94.78-1.81,2.29-1.81s2.28.92,2.28,2.02h-.61c0-1.03-.8-1.48-1.66-1.48-1.3,0-1.77.8-1.66,1.5.29,1.75,4.13.49,4.13,3.11Zm4.03-5.15c-2.02,0-3.13,1.6-3.12,3.57,0,1.95,1.06,3.55,3.15,3.55s3.16-1.61,3.16-3.55-1.07-3.57-3.19-3.57Zm.04,6.58c-1.77,0-2.52-1.41-2.52-3.01s.76-3.03,2.5-3.03c1.56,0,2.53,1.15,2.53,3.03,0,1.58-.75,3.01-2.51,3.01Zm9.29-1.86h.67c-.3,1.31-1.12,2.41-2.93,2.41-2.09,0-2.92-1.64-2.92-3.56,0-2.59,1.35-3.56,3.15-3.56,1.39,0,2.41.74,2.62,2.14h-.66c-.26-1.16-.98-1.6-2.14-1.6-1.64,0-2.34,1.4-2.34,3,0,1.51.56,3.04,2.4,3.04,1.17,0,1.89-.79,2.14-1.86Zm6.57-4.54l-2.66,6.77h.66l.8-2.12h3.09l.78,2.12h.66l-2.59-6.77h-.72Zm-.99,4.1l1.33-3.56,1.33,3.56h-2.65Zm3.74-4.1h4.93v.54h-2.14v6.23h-.64v-6.23h-2.14v-.54Zm11.31-.18c-2.02,0-3.13,1.6-3.12,3.57,0,1.95,1.06,3.55,3.15,3.55s3.16-1.61,3.16-3.55-1.07-3.57-3.19-3.57Zm.04,6.58c-1.77,0-2.52-1.41-2.52-3.01s.76-3.03,2.5-3.03c1.56,0,2.53,1.15,2.53,3.03,0,1.58-.75,3.01-2.51,3.01Zm9.06-6.4h.64v6.77h-.74l-3.89-5.91h-.02v5.91h-.64v-6.77h.72l3.91,5.91h.02v-5.91Zm-56.44-4.04h-.64v-6.77h.72l3.91,5.91h.02v-5.91h.64v6.77h-.74l-3.89-5.91h-.02v5.91Zm8.27.18c-1.41,0-2.45-.74-2.45-2.2h.62c.1,1.21.91,1.65,1.95,1.65,1.21,0,1.72-.66,1.72-1.4,0-2.1-4.13-.7-4.13-3.37,0-.94.78-1.81,2.29-1.81s2.29.92,2.28,2.02h-.61c0-1.03-.8-1.48-1.66-1.48-1.3,0-1.77.8-1.65,1.49.29,1.75,4.13.49,4.13,3.11,0,1.24-.91,1.98-2.47,1.98Zm7.96-6.41h-2.14v6.23h-.64v-6.23h-2.14v-.54h4.93v.54Zm2.81-.54h-.72l-2.66,6.77h.66l.8-2.13h3.08l.78,2.13h.66l-2.6-6.77Zm-1.71,4.1l1.33-3.56,1.32,3.56h-2.65Zm9.49,2.67h-4.27v-6.77h.64v6.22h3.63v.55Zm5.23,0h-4.27v-6.77h.64v6.22h3.63v.55Zm3-6.77l-2.66,6.77h.66l.8-2.13h3.09l.78,2.13h.66l-2.6-6.77h-.72Zm-.99,4.1l1.33-3.56,1.32,3.56h-2.65Zm5.89,2.67v-6.23h-2.14v-.54h4.93v.54h-2.14v6.23h-.64Zm9.17-6.95c-2.02,0-3.13,1.6-3.12,3.57,0,1.95,1.06,3.55,3.15,3.55s3.16-1.61,3.16-3.55-1.07-3.57-3.19-3.57Zm.04,6.58c-1.77,0-2.52-1.41-2.52-3.01s.76-3.03,2.5-3.03c1.56,0,2.53,1.15,2.53,3.03,0,1.58-.75,3.01-2.51,3.01Zm9.7-6.4v6.77h-.74l-3.89-5.91h-.02v5.91h-.64v-6.77h.72l3.91,5.91h.02v-5.91h.64Zm-57.36-4.87c.62-.68.82-1.67.82-2.57s-.23-2.22-1.13-2.87c-.63-.46-1.34-.51-2.09-.51h-2.31v6.77h2.31c.89,0,1.78-.13,2.4-.83Zm-4.07.28v-5.68h1.53c.56,0,1.15.04,1.55.25.95.51,1.17,1.59,1.17,2.58,0,.92-.23,2.08-1.13,2.54-.52.27-1.02.31-1.59.31h-1.53Zm10.75.54h-4.6v-6.77h4.51v.54h-3.87v2.45h3.49v.54h-3.49v2.69h3.96v.54Zm5.07-1.77c0-2.1-4.13-.71-4.13-3.37,0-.94.78-1.82,2.3-1.82s2.29.92,2.28,2.02h-.61c0-1.04-.8-1.48-1.66-1.48-1.3,0-1.77.8-1.66,1.5.29,1.75,4.13.49,4.13,3.11,0,1.24-.91,1.97-2.47,1.97-1.41,0-2.45-.73-2.45-2.2h.62c.1,1.21.91,1.66,1.95,1.66,1.21,0,1.72-.66,1.72-1.4Zm4.16-1.66c0-1.98,1-3.53,3.13-3.53,1.42,0,2.54.69,2.83,2.14h-.66c-.22-1.01-1.12-1.6-2.13-1.6-1.79,0-2.54,1.32-2.54,3.23,0,1.5.9,2.8,2.45,2.8.73,0,1.6-.31,2.04-1.18.22-.42.28-.89.29-1.4h-2.29v-.55h2.9v3.5h-.55v-1.16c-.47.81-1.19,1.33-2.53,1.33-1.71,0-2.96-1.19-2.96-3.6Zm12.11,3.42l-3.89-5.91h-.02v5.91h-.64v-6.77h.72l3.91,5.91h.02v-5.91h.64v6.77h-.74Zm8.33-5.46c0-.72-.58-1.31-1.42-1.31s-1.52.47-1.52,1.33c0,.59.36,1.09.72,1.52-.87.4-1.62,1.08-1.62,2.1,0,1.21.94,2.01,2.12,2.01.9,0,1.55-.27,2.13-.98l.66.8h.76l-1.1-1.3c.34-.53.44-1.16.47-1.77h-.55c0,.46-.05.92-.28,1.32l-1.7-2.01c.7-.42,1.34-.8,1.34-1.7Zm.05,4.23c-.45.54-1,.9-1.72.9-.86,0-1.52-.56-1.52-1.46,0-.73.57-1.39,1.31-1.74l1.93,2.29Zm-.72-3.85c-.19.42-.62.67-1,.89-.24-.29-.71-.87-.71-1.27,0-.5.43-.81.9-.81.71,0,1.03.68.8,1.19Zm-39.75-11.96v2.44h3.49v.55h-3.49v2.69h3.96v.54h-4.6v-6.77h4.51v.54h-3.87Zm9.37,6.22h-4.27v-6.77h.64v6.22h3.63v.54Zm5.56,0h-4.6v-6.77h4.5v.54h-3.87v2.44h3.49v.55h-3.49v2.69h3.96v.54Zm3.75.18c-2.09,0-2.92-1.65-2.92-3.56,0-2.59,1.35-3.57,3.15-3.57,1.39,0,2.41.74,2.62,2.14h-.66c-.26-1.16-.98-1.6-2.13-1.6-1.64,0-2.34,1.4-2.34,3,0,1.51.55,3.04,2.4,3.04,1.17,0,1.89-.79,2.14-1.86h.67c-.3,1.31-1.12,2.41-2.93,2.41Zm5.72-.18v-6.22h-2.14v-.54h4.93v.54h-2.14v6.22h-.64Zm3.69,0h.64v-3.07h2.01c.64,0,1.19.09,1.35.83.1.52.04,1.79.3,2.25h.7v-.07c-.17-.13-.25-.41-.28-1.44-.02-.72-.07-1.56-.86-1.83.78-.35,1.1-.8,1.1-1.65,0-1.25-.82-1.78-2.31-1.78h-2.65v6.77Zm.64-6.22h2.03c.85,0,1.64.25,1.64,1.26,0,.95-.73,1.34-1.68,1.34h-1.99v-2.61Zm5.38,2.85c0,1.95,1.06,3.55,3.15,3.55s3.16-1.61,3.16-3.55-1.07-3.58-3.19-3.58-3.13,1.6-3.12,3.58Zm5.67,0c0,1.58-.75,3.01-2.51,3.01s-2.52-1.41-2.52-3.01.76-3.03,2.5-3.03c1.56,0,2.53,1.15,2.53,3.03Zm7.18,3.37h-.74l-3.89-5.9h-.02v5.9h-.64v-6.77h.72l3.91,5.91h.02v-5.91h.64v6.77Zm2.44,0h-.75v-6.77h.75v6.77Zm1.38-3.38c0-2.59,1.35-3.57,3.15-3.57,1.39,0,2.41.74,2.62,2.14h-.66c-.26-1.16-.98-1.6-2.14-1.6-1.64,0-2.34,1.4-2.34,3,0,1.51.55,3.04,2.4,3.04,1.16,0,1.89-.79,2.14-1.86h.67c-.3,1.31-1.12,2.41-2.93,2.41-2.09,0-2.92-1.65-2.92-3.56Zm-51.72-10.82c0-2.59,1.35-3.56,3.15-3.56,1.39,0,2.41.74,2.62,2.14h-.66c-.26-1.16-.98-1.6-2.13-1.6-1.64,0-2.34,1.4-2.34,3,0,1.51.55,3.04,2.4,3.04,1.17,0,1.89-.79,2.14-1.86h.67c-.3,1.3-1.12,2.41-2.93,2.41-2.09,0-2.91-1.65-2.91-3.56Zm7.11.84v-4.22h.64v4.03c0,1.67.6,2.37,1.98,2.37,1.46,0,1.98-.77,1.98-2.37v-4.03h.64v4.22c0,1.76-.87,2.73-2.62,2.73s-2.62-1-2.62-2.73Zm10.71.78c0-2.1-4.13-.71-4.13-3.37,0-.94.78-1.81,2.29-1.81s2.29.92,2.28,2.02h-.61c0-1.03-.8-1.47-1.66-1.47-1.3,0-1.77.8-1.65,1.49.29,1.75,4.13.49,4.13,3.11,0,1.24-.91,1.98-2.47,1.98-1.41,0-2.46-.73-2.46-2.2h.62c.1,1.21.91,1.65,1.95,1.65,1.21,0,1.72-.66,1.72-1.4Zm3.34-4.46h-2.14v-.54h4.93v.54h-2.14v6.23h-.64v-6.23Zm6.58,6.41c2.09,0,3.16-1.61,3.16-3.55s-1.07-3.57-3.19-3.57-3.13,1.6-3.12,3.57c0,1.95,1.06,3.55,3.15,3.55Zm0-6.58c1.56,0,2.53,1.15,2.53,3.03,0,1.58-.75,3.01-2.51,3.01s-2.52-1.41-2.52-3.01.76-3.03,2.5-3.03Zm5.05,6.4h-.64v-6.77h.98l2.22,5.97h.02l2.18-5.97h.97v6.77h-.64v-6.04h-.02l-2.22,6.04h-.6l-2.23-6.04h-.02v6.04Zm-14.04,21.62v-6.77h.75v6.77h-.75Zm-18.27,10.82v-6.77h.75v6.77h-.75Zm47.59,0h-.75v-6.77h.75v6.77Zm-2.52,4.05h.75v6.77h-.75v-6.77Zm-13.22,0h.75v6.77h-.75v-6.77Z"/>
</svg>