<?xml version="1.0" encoding="UTF-8"?>
<svg id="Layer_1" data-name="Layer 1" xmlns="http://www.w3.org/2000/svg" viewBox="0 0 132.14 132.14">
  <defs>
    <style>
      .cls-1 {
        fill: #fff;
      }

      .cls-2 {
        letter-spacing: -.09em;
      }

      .cls-3 {
        letter-spacing: -.06em;
      }

      .cls-4 {
        fill: #6a747c;
      }

      .cls-5 {
        font-family: Gotham-Medium, Gotham;
        font-size: 8.79px;
        font-weight: 500;
      }

      .cls-5, .cls-6 {
        fill: #5d6770;
      }

      .cls-7 {
        letter-spacing: -.06em;
      }

      .cls-8 {
        fill: #e1251b;
      }

      .cls-9 {
        letter-spacing: -.06em;
      }

      .cls-6 {
        font-family: Gotham-Light, Gotham;
        font-size: 11.86px;
        font-weight: 300;
      }
    </style>
  </defs>
  <g>
    <path class="cls-1" d="m66.07,6.75C33.69,6.75,7.35,33.1,7.35,65.48c0,16.28,6.51,31.42,18.34,42.63l.64.61.65-.6c1.7-1.57,3.49-3.03,5.34-4.37,9.01,7.95,20.82,12.79,33.75,12.79s24.73-4.83,33.73-12.77c1.85,1.34,3.63,2.78,5.32,4.35l.65.6.64-.61c11.85-11.23,18.38-26.37,18.38-42.63,0-32.38-26.34-58.72-58.72-58.72Z"/>
    <path class="cls-4" d="m66.07,6.75C33.69,6.75,7.35,33.1,7.35,65.48c0,16.28,6.51,31.42,18.34,42.63l.64.61.65-.6c1.7-1.57,3.49-3.03,5.34-4.37,9.01,7.95,20.82,12.79,33.75,12.79s24.73-4.83,33.73-12.77c1.85,1.34,3.63,2.78,5.32,4.35l.65.6.64-.61c11.85-11.23,18.38-26.37,18.38-42.63,0-32.38-26.34-58.72-58.72-58.72Zm32.12,95.9c-8.62,7.46-19.85,11.99-32.12,11.99s-23.52-4.54-32.15-12.01l-1.45-1.3c-9.57-8.98-15.57-21.72-15.57-35.85,0-27.11,22.06-49.17,49.17-49.17s49.17,22.06,49.17,49.17c0,14.14-6,26.89-15.59,35.87l-1.46,1.31Zm7.55,3.47c-1.45-1.3-2.97-2.52-4.53-3.66,9.79-9.31,15.91-22.44,15.91-36.99,0-28.16-22.91-51.06-51.06-51.06S15.01,37.32,15.01,65.48c0,14.54,6.11,27.66,15.89,36.97-1.57,1.15-3.09,2.37-4.55,3.68-11.04-10.78-17.11-25.18-17.11-40.65,0-31.34,25.49-56.83,56.83-56.83s56.83,25.49,56.83,56.83c0,15.44-6.08,29.84-17.15,40.65Z"/>
  </g>
  <path class="cls-8" d="m124.85,47.79H2.44v28.94c0,2.68,2.18,4.85,4.85,4.85h122.4v-28.94c0-2.68-2.18-4.85-4.85-4.85Z"/>
  <text class="cls-6" transform="translate(61.37 93.06)"><tspan class="cls-9"><tspan x="0" y="0">IT</tspan></tspan><tspan class="cls-9" x="-24" y="9.67">Ope</tspan><tspan class="cls-2" x="-1.29" y="9.67">r</tspan><tspan class="cls-3" x="2.45" y="9.67">a</tspan><tspan class="cls-7" x="8.49" y="9.67">tions</tspan></text>
  <g>
    <path class="cls-8" d="m52.25,35.32c-1.28,0-2.29.86-2.29,1.95s1.01,1.93,2.29,1.93,2.29-.84,2.29-1.93c0-1.09-1.01-1.95-2.29-1.95m0,5.19c-2.01,0-3.6-1.42-3.6-3.24,0-1.83,1.58-3.25,3.6-3.25,2.01,0,3.59,1.43,3.59,3.25,0,1.82-1.58,3.24-3.59,3.24"/>
    <path class="cls-8" d="m65.1,40.51c-.72,0-1.31-.6-1.31-1.33v-2.7c0-.64-.56-1.16-1.25-1.16-.68,0-1.24.52-1.24,1.16v4.03c-.72,0-1.31-.59-1.31-1.31v-2.72c0-.64-.56-1.16-1.25-1.16s-1.24.52-1.24,1.16v2.71c0,.72-.58,1.32-1.31,1.32v-4.03c0-1.36,1.14-2.46,2.55-2.46.76,0,1.44.31,1.91.82.46-.5,1.14-.82,1.89-.82,1.42,0,2.56,1.1,2.56,2.46v4.03Z"/>
    <path class="cls-8" d="m69.35,40.49c-.34,0-.67-.03-.97-.1-.68-.19-1.08-.9-.9-1.58.03-.08.05-.16.08-.23h.01c.37.4.97.6,1.77.6,1.2,0,2.14-.84,2.14-1.91s-.94-1.97-2.14-1.97c-1.13,0-2.26.63-2.26,2v4.23c0,.71-.6,1.28-1.31,1.28v-5.52c0-1.91,1.5-3.31,3.57-3.31.91,0,1.77.34,2.42.94.66.61,1.02,1.44,1.02,2.34,0,1.8-1.51,3.21-3.44,3.21"/>
    <path class="cls-8" d="m78.68,32.77h-2.8s0,7.73,0,7.73h-.05c-.69,0-1.25-.6-1.25-1.31v-6.43s-2.8,0-2.8,0c-.71,0-1.28-.59-1.28-1.29h9.48c0,.71-.57,1.29-1.29,1.29"/>
    <path class="cls-8" d="m86.97,32.83l-1.86,4.09h3.51s-1.87-4.1-1.87-4.1h.23Zm2.9,6.86l-.69-1.49h-4.64s-.68,1.54-.68,1.54c-.32.62-1.19.8-1.85.8l3.79-8.3c.21-.48.6-.75,1.04-.75s.83.27,1.05.75l3.74,8.2c-.7.07-1.47-.14-1.74-.74"/>
    <path class="cls-8" d="m47.19,33.92c-.71-.75-1.74-1.24-2.89-1.24-2.03,0-3.68,1.47-3.68,3.28s1.65,3.29,3.68,3.29c.97,0,1.88-.37,2.57-.95.48-.4,1.18-.37,1.65.03-.35.54-.83,1.02-1.42,1.39-.83.53-1.8.8-2.81.8-2.74,0-4.96-2.04-4.96-4.56,0-2.52,2.22-4.56,4.96-4.56,1.95,0,3.72,1.06,4.51,2.7-.5.33-1.2.29-1.62-.18"/>
    <path class="cls-8" d="m92.36,39.45s-.04.02-.06.03c0,0,.04.05.17.21l-.02.02c-.06.04-.14.04-.18-.01-.14-.17-.16-.19-.16-.19h-.16s0-.05,0-.05c0-.06.06-.11.13-.11h.08c.06,0,.1-.01.13-.03.03-.01.03-.03.03-.05,0-.02,0-.08-.16-.08h-.22v.43c0,.07-.06.13-.13.13h-.03s0-.6,0-.6c0-.07.06-.12.13-.12h.26c.3,0,.33.17.33.24,0,.09-.04.16-.11.2m-.25-.54c-.3,0-.54.21-.54.48s.24.48.54.48.55-.21.55-.48-.25-.48-.55-.48m0,1.09c-.38,0-.69-.28-.69-.62s.31-.62.69-.62.69.28.69.62-.31.62-.69.62"/>
    <path class="cls-8" d="m80.38,31.48v7.76c0,.69.6,1.27,1.31,1.27v-7.76c0-.69-.6-1.27-1.31-1.27"/>
  </g>
  <path class="cls-4" d="m105.94,104.84s-.04.02-.06.02c0,0,.04.05.16.2l-.02.02c-.05.04-.13.04-.17-.01-.14-.16-.15-.18-.15-.18h-.16s0-.04,0-.04c0-.06.06-.11.12-.11h.08c.05,0,.1-.01.12-.03.02-.01.03-.03.03-.05,0-.02,0-.07-.15-.07h-.21v.41c0,.06-.06.12-.12.12h-.03s0-.56,0-.56c0-.06.06-.11.12-.12h.25c.28,0,.31.16.31.23,0,.08-.04.15-.11.18m-.24-.51c-.28,0-.51.2-.51.45s.23.45.51.45.52-.2.52-.45-.23-.45-.52-.45m0,1.03c-.36,0-.65-.26-.65-.58s.29-.59.65-.59.65.27.65.59-.29.58-.65.58"/>
  <text class="cls-5" transform="translate(40.22 119.89) rotate(22.54)"><tspan x="0" y="0">S</tspan></text>
  <text class="cls-5" transform="translate(45.62 122.13) rotate(16.39)"><tspan x="0" y="0">P</tspan></text>
  <text class="cls-5" transform="translate(51.44 123.83) rotate(10.39)"><tspan x="0" y="0">E</tspan></text>
  <text class="cls-5" transform="translate(57.44 124.93) rotate(4.49)"><tspan x="0" y="0">C</tspan></text>
  <text class="cls-5" transform="translate(63.94 125.36) rotate(1.1)"><tspan x="0" y="0">I</tspan></text>
  <text class="cls-5" transform="translate(66.84 125.47) rotate(-3.51)"><tspan x="0" y="0">A</tspan></text>
  <text class="cls-5" transform="translate(73.93 124.99) rotate(-9.11)"><tspan x="0" y="0">L</tspan></text>
  <text class="cls-5" transform="translate(79.35 124.07) rotate(-13.06)"><tspan x="0" y="0">I</tspan></text>
  <text class="cls-5" transform="translate(82.17 123.47) rotate(-17.33)"><tspan x="0" y="0">S</tspan></text>
  <text class="cls-5" transform="translate(87.6 121.78) rotate(-23.21)"><tspan x="0" y="0">T</tspan></text>
  <g>
    <path class="cls-1" d="m30.07,64.74v-.06c0-6.3,4.71-11.45,11.42-11.45,4.08,0,6.55,1.42,8.67,3.45l-2.5,2.88c-1.77-1.65-3.67-2.75-6.2-2.75-4.21,0-7.31,3.48-7.31,7.82v.06c0,4.33,3.07,7.85,7.31,7.85,2.72,0,4.46-1.08,6.36-2.85l2.5,2.53c-2.31,2.4-4.84,3.92-8.99,3.92-6.45,0-11.26-5.03-11.26-11.39Z"/>
    <path class="cls-1" d="m53.03,53.61h3.89v22.15h-3.89v-22.15Z"/>
    <path class="cls-1" d="m60.28,64.74v-.06c0-6.23,4.81-11.45,11.61-11.45s11.55,5.16,11.55,11.39v.06c0,6.23-4.81,11.45-11.61,11.45s-11.55-5.16-11.55-11.39Zm19.08,0v-.06c0-4.3-3.13-7.88-7.53-7.88s-7.47,3.51-7.47,7.82v.06c0,4.3,3.13,7.85,7.53,7.85s7.47-3.48,7.47-7.78Z"/>
    <path class="cls-1" d="m84.92,72.53l2.34-2.78c2.12,1.84,4.27,2.88,6.99,2.88,2.4,0,3.92-1.14,3.92-2.78v-.06c0-1.58-.89-2.44-5-3.39-4.71-1.14-7.37-2.53-7.37-6.61v-.06c0-3.8,3.16-6.42,7.56-6.42,3.23,0,5.79.98,8.04,2.78l-2.09,2.94c-1.99-1.49-3.99-2.28-6.01-2.28-2.28,0-3.61,1.17-3.61,2.63v.06c0,1.71,1.01,2.47,5.28,3.48,4.68,1.14,7.09,2.82,7.09,6.49v.06c0,4.14-3.26,6.61-7.91,6.61-3.39,0-6.58-1.17-9.24-3.54Z"/>
  </g>
</svg>