<?xml version="1.0" encoding="UTF-8"?>
<svg id="Layer_2" data-name="Layer 2" xmlns="http://www.w3.org/2000/svg" viewBox="0 0 1530.02 1920.45">
  <defs>
    <style>
      .cls-1 {
        fill: #0361aa;
      }

      .cls-2 {
        fill: #009848;
      }

      .cls-3 {
        fill: #ee7025;
      }
    </style>
  </defs>
  <g id="Layer_3" data-name="Layer 3">
    <g>
      <path class="cls-3" d="m1014.67,69.45c44.95,0,81.52,36.57,81.52,81.52v863.69c0,44.95-36.57,81.52-81.52,81.52H150.97c-44.95,0-81.52-36.57-81.52-81.52V150.97c0-44.95,36.57-81.52,81.52-81.52h863.69m0-69.45H150.97C67.59,0,0,67.59,0,150.97v863.69c0,83.38,67.59,150.97,150.97,150.97h863.69c83.38,0,150.97-67.59,150.97-150.97V150.97c0-83.38-67.59-150.97-150.97-150.97h0Z"/>
      <path class="cls-1" d="m1379.04,807.42c44.95,0,81.52,36.57,81.52,81.52v522.55c0,44.95-36.57,81.52-81.52,81.52h-522.55c-44.95,0-81.52-36.57-81.52-81.52v-522.55c0-44.95,36.57-81.52,81.52-81.52h522.55m0-69.45h-522.55c-83.38,0-150.97,67.59-150.97,150.97v522.55c0,83.38,67.59,150.97,150.97,150.97h522.55c83.38,0,150.97-67.59,150.97-150.97v-522.55c0-83.38-67.59-150.97-150.97-150.97h0Z"/>
      <rect class="cls-3" x="150.97" y="1096.19" width="809.05" height="69.45"/>
      <path class="cls-2" d="m827.26,1362.47c44.95,0,81.52,36.57,81.52,81.52v325.49c0,44.95-36.57,81.52-81.52,81.52h-325.49c-44.95,0-81.52-36.57-81.52-81.52v-325.49c0-44.95,36.57-81.52,81.52-81.52h325.49m0-69.45h-325.49c-83.38,0-150.97,67.59-150.97,150.97v325.49c0,83.38,67.59,150.97,150.97,150.97h325.49c83.38,0,150.97-67.59,150.97-150.97v-325.49c0-83.38-67.59-150.97-150.97-150.97h0Z"/>
      <rect class="cls-1" x="705.52" y="1189.82" width="69.45" height="191.91"/>
    </g>
  </g>
</svg>