<?xml version="1.0" encoding="UTF-8"?>
<svg id="Layer_2" data-name="Layer 2" xmlns="http://www.w3.org/2000/svg" xmlns:xlink="http://www.w3.org/1999/xlink" viewBox="0 0 117.73 23.76">
  <defs>
    <style>
      .cls-1 {
        fill: #345a91;
      }

      .cls-2 {
        clip-path: url(#clippath-2);
      }

      .cls-3 {
        clip-path: url(#clippath-1);
      }

      .cls-4 {
        fill: url(#Degradado_sin_nombre_3);
      }

      .cls-5 {
        fill: url(#Degradado_sin_nombre_2);
      }

      .cls-6 {
        stroke: #345a91;
        stroke-miterlimit: 10;
        stroke-width: .06px;
      }

      .cls-6, .cls-7 {
        fill: none;
      }

      .cls-8 {
        clip-path: url(#clippath);
      }

      .cls-9 {
        fill: url(#Degradado_sin_nombre_4);
      }
    </style>
    <clipPath id="clippath">
      <path class="cls-7" d="m11.89,12.34s4.1,4.12,3.45,6.77c0,0,.44-.27,1.01-.64.04-.03.09-.06.13-.09.15-.22.36-.35.6-.48.06-.03.12-.07.18-.1.12-.1.24-.21.35-.3.01,0,.02-.02.03-.03.23-.13.48-.36.66-.49,0,0,0,0,0,0,.26-.27.43-.53.43-.71,0-.69-2.06-2.89-6.86-3.93Z"/>
    </clipPath>
    <linearGradient id="Degradado_sin_nombre_2" data-name="Degradado sin nombre 2" x1="-1044.16" y1="-266.71" x2="-1043.8" y2="-266.71" gradientTransform="translate(20142.29 -5126.21) scale(19.28 -19.28)" gradientUnits="userSpaceOnUse">
      <stop offset="0" stop-color="#939598"/>
      <stop offset=".48" stop-color="#797a7d"/>
      <stop offset="1" stop-color="#595a5c"/>
    </linearGradient>
    <clipPath id="clippath-1">
      <path class="cls-7" d="m6.73,6.56c-.42.02-1,.07-1.63.22-.09.02-.66.18-1.19.5-.05.03-.1.06-.15.1-.16.11-.31.24-.44.38-.04.05-.13.18-.16.41-.02,1.47,2.15,4.72,2.15,4.72-.06-4.7,10.77-3.67,10.77-3.67-4.1-2.08-7.03-2.68-9.05-2.68-.1,0-.2,0-.3,0"/>
    </clipPath>
    <linearGradient id="Degradado_sin_nombre_3" data-name="Degradado sin nombre 3" x1="-1080.9" y1="-284.56" x2="-1080.54" y2="-284.56" gradientTransform="translate(16103.8 -27589.35) rotate(-45) scale(28.59 -28.59)" gradientUnits="userSpaceOnUse">
      <stop offset="0" stop-color="#0f122a"/>
      <stop offset=".11" stop-color="#0f122a"/>
      <stop offset=".13" stop-color="#101730"/>
      <stop offset=".22" stop-color="#1c3e59"/>
      <stop offset=".32" stop-color="#275e7c"/>
      <stop offset=".43" stop-color="#2f7999"/>
      <stop offset=".54" stop-color="#358eb0"/>
      <stop offset=".67" stop-color="#3a9cbf"/>
      <stop offset=".81" stop-color="#3da5c9"/>
      <stop offset="1" stop-color="#3ea8cc"/>
    </linearGradient>
    <clipPath id="clippath-2">
      <path class="cls-7" d="m3.15,8.4c.65,9.37,4.28,13.98,5.39,14.6,1.35.76,9.78-6.03,9.78-6.03-8.86,1.54-14.87-8.02-15.12-8.97-.03.1-.05.23-.04.4"/>
    </clipPath>
    <linearGradient id="Degradado_sin_nombre_4" data-name="Degradado sin nombre 4" x1="-1073.97" y1="-257.44" x2="-1073.61" y2="-257.44" gradientTransform="translate(45773.86 -10955.8) scale(42.62 -42.62)" gradientUnits="userSpaceOnUse">
      <stop offset="0" stop-color="#12284d"/>
      <stop offset=".12" stop-color="#1b3660"/>
      <stop offset=".28" stop-color="#264676"/>
      <stop offset=".47" stop-color="#2e5185"/>
      <stop offset=".68" stop-color="#32578e"/>
      <stop offset="1" stop-color="#345a91"/>
    </linearGradient>
  </defs>
  <g id="Layer_1-2" data-name="Layer 1">
    <g>
      <path class="cls-1" d="m28.58,8.93h-4.78v4.49h4.78v-1.81h-2.47v-.79h3.49v2c0,.57-.1.95-.3,1.16-.2.2-.58.31-1.13.31h-3.95c-.55,0-.93-.1-1.13-.31-.2-.2-.3-.59-.3-1.16v-3.26c0-.57.1-.95.3-1.16.2-.2.58-.31,1.13-.31h3.95c.54,0,.91.1,1.12.29.21.19.31.56.31,1.09v.16h-1.02v-.71Z"/>
      <path class="cls-1" d="m36.89,8.9h-3.5v2.17h3.5c.24,0,.42-.04.51-.13.1-.09.15-.26.15-.5v-.9c0-.24-.05-.4-.15-.5-.1-.09-.27-.14-.51-.14m-4.52,5.38v-6.18h4.91c.45,0,.77.09.98.28.2.19.31.49.31.92v1.38c0,.42-.1.73-.31.92-.2.19-.53.28-.98.28h-.9l2.79,2.41h-1.51l-2.48-2.41h-1.79v2.41h-1.02Z"/>
      <path class="cls-1" d="m42.25,11.97h3.29l-1.64-3.16-1.64,3.16Zm-2.21,2.31l3.33-6.18h1.09l3.39,6.18h-1.12l-.78-1.52h-4.13l-.78,1.52h-1.01Z"/>
      <path class="cls-1" d="m49.68,14.28v-6.18h.64l4.57,4.13c.22.2.45.46.7.78-.06-.38-.1-.89-.1-1.52v-3.39h.95v6.18h-.57l-4.7-4.3c-.17-.16-.27-.25-.3-.28-.13-.13-.23-.27-.32-.42.05.37.07.82.07,1.35v3.64h-.95Z"/>
      <path class="cls-1" d="m62.65,8.93h-2.2v4.49h2.2c.95,0,1.62-.16,2.03-.48.45-.34.67-.94.67-1.79s-.22-1.4-.67-1.74c-.42-.32-1.1-.48-2.03-.48m.14-.83c1.07,0,1.85.16,2.34.48.39.26.7.61.93,1.07.22.46.34.96.34,1.51,0,1.21-.42,2.09-1.27,2.65-.48.32-1.26.48-2.34.48h-3.36v-6.18h3.36Z"/>
      <path class="cls-1" d="m74.04,8.93h-4.32v1.74h3.84c.55,0,.93.1,1.12.31.2.21.3.59.3,1.15v.69c0,.57-.1.95-.3,1.16-.2.2-.57.31-1.12.31h-3.56c-.55,0-.93-.1-1.13-.31-.2-.2-.3-.59-.3-1.16v-.17h.95v.77h4.54v-1.86h-3.83c-.54,0-.92-.1-1.12-.31-.2-.2-.3-.59-.3-1.16v-.54c0-.58.1-.96.3-1.16.2-.2.57-.3,1.12-.3h3.25c.52,0,.89.09,1.11.28.22.19.32.54.32,1.06v.13h-.87v-.65Z"/>
      <polygon class="cls-1" points="80.29 8.94 80.29 14.28 79.27 14.28 79.27 8.94 76.48 8.94 76.48 8.1 83.09 8.1 83.09 8.94 80.29 8.94"/>
      <path class="cls-1" d="m89.17,8.9h-3.5v2.17h3.5c.24,0,.42-.04.51-.13.1-.09.15-.26.15-.5v-.9c0-.24-.05-.4-.15-.5-.1-.09-.27-.14-.51-.14m-4.52,5.38v-6.18h4.91c.45,0,.77.09.98.28.2.19.31.49.31.92v1.38c0,.42-.1.73-.31.92-.2.19-.53.28-.98.28h-.9l2.79,2.41h-1.51l-2.48-2.41h-1.79v2.41h-1.02Z"/>
      <polygon class="cls-1" points="93.51 14.28 93.51 8.1 99.39 8.1 99.39 8.93 94.53 8.93 94.53 10.65 97.49 10.65 97.49 11.47 94.53 11.47 94.53 13.43 99.43 13.43 99.43 14.28 93.51 14.28"/>
      <path class="cls-1" d="m102.72,11.97h3.29l-1.64-3.16-1.64,3.16Zm-2.21,2.31l3.34-6.18h1.09l3.39,6.18h-1.12l-.78-1.52h-4.13l-.78,1.52h-1Z"/>
      <path class="cls-1" d="m110.96,9.2c.03.24.05.54.05.91v4.17h-.86v-6.18h.83l2.97,4.03,2.77-4.03h.95v6.18h-.95v-4.17l.05-.91c-.13.29-.26.51-.37.67l-2.33,3.44h-.26l-2.42-3.34c-.1-.13-.23-.38-.41-.77"/>
      <path class="cls-1" d="m24.77,19.48h-1.56v1.71h1.56v-.51h.37v.28c0,.22-.04.37-.11.44-.07.08-.21.11-.41.11h-1.26c-.2,0-.34-.04-.41-.12-.07-.08-.11-.22-.11-.44v-1.24c0-.22.04-.36.11-.44.07-.08.21-.12.41-.12h1.26c.2,0,.34.04.41.11.07.07.11.22.11.44v.22h-.37v-.46Z"/>
      <path class="cls-1" d="m28.27,21.19h1.86v-1.71h-1.86v1.71Zm-.37-1.47c0-.22.04-.36.11-.44.07-.08.21-.12.42-.12h1.55c.2,0,.34.04.41.12.07.08.11.22.11.44v1.24c0,.22-.04.36-.11.44-.07.08-.21.12-.41.12h-1.55c-.2,0-.34-.04-.42-.12-.07-.08-.11-.22-.11-.44v-1.24Z"/>
      <path class="cls-1" d="m33.43,21.52v-2.35h.24l1.68,1.57c.08.08.17.17.26.3-.02-.15-.04-.34-.04-.58v-1.29h.35v2.35h-.21l-1.73-1.64c-.06-.06-.1-.1-.11-.11-.05-.05-.09-.1-.12-.16.02.14.03.31.03.51v1.38h-.35Z"/>
      <path class="cls-1" d="m38.88,21.52v-2.35h.23l1.68,1.57c.08.08.17.17.26.3-.02-.15-.04-.34-.04-.58v-1.29h.35v2.35h-.21l-1.73-1.64c-.06-.06-.1-.1-.11-.11-.05-.05-.09-.1-.12-.16.02.14.03.31.03.51v1.38h-.35Z"/>
      <polygon class="cls-1" points="44.32 19.17 44.32 21.52 46.5 21.52 46.5 21.19 44.69 21.19 44.69 20.45 45.79 20.45 45.79 20.14 44.69 20.14 44.69 19.48 46.48 19.48 46.48 19.17 44.32 19.17"/>
      <path class="cls-1" d="m51.09,19.48h-1.56v1.71h1.56v-.51h.37v.28c0,.22-.04.37-.11.44-.07.08-.21.11-.41.11h-1.26c-.2,0-.34-.04-.41-.12-.07-.08-.11-.22-.11-.44v-1.24c0-.22.04-.36.11-.44.07-.08.21-.12.41-.12h1.26c.2,0,.34.04.41.11.07.07.11.22.11.44v.22h-.37v-.46Z"/>
      <polygon class="cls-1" points="53.72 19.17 53.72 19.49 54.75 19.49 54.75 21.52 55.12 21.52 55.12 19.49 56.15 19.49 56.15 19.17 53.72 19.17"/>
      <rect class="cls-1" x="58.58" y="19.17" width=".37" height="2.35"/>
      <path class="cls-1" d="m61.92,21.52v-2.35h.24l1.68,1.57c.08.08.17.17.26.3-.02-.15-.04-.34-.04-.58v-1.29h.35v2.35h-.21l-1.73-1.64c-.06-.06-.1-.1-.11-.11-.05-.05-.09-.1-.12-.16.02.14.03.31.03.51v1.38h-.35Z"/>
      <path class="cls-1" d="m69.46,19.48h-1.76v1.71h1.76v-.69h-.91v-.3h1.28v.76c0,.22-.04.36-.11.44-.07.08-.21.12-.42.12h-1.45c-.2,0-.34-.04-.41-.12-.07-.08-.11-.22-.11-.44v-1.24c0-.22.04-.36.11-.44.07-.08.21-.12.41-.12h1.45c.2,0,.33.04.41.11.08.07.12.21.12.41v.06h-.37v-.27Z"/>
      <polygon class="cls-1" points="75.61 19.17 75.61 19.49 76.64 19.49 76.64 21.52 77.01 21.52 77.01 19.49 78.04 19.49 78.04 19.17 75.61 19.17"/>
      <polygon class="cls-1" points="82.61 19.17 82.61 20.13 80.84 20.13 80.84 19.17 80.47 19.17 80.47 21.52 80.84 21.52 80.84 20.45 82.61 20.45 82.61 21.52 82.99 21.52 82.99 19.17 82.61 19.17"/>
      <polygon class="cls-1" points="85.95 19.17 85.95 21.52 88.13 21.52 88.13 21.19 86.33 21.19 86.33 20.45 87.42 20.45 87.42 20.14 86.33 20.14 86.33 19.48 88.11 19.48 88.11 19.17 85.95 19.17"/>
      <path class="cls-1" d="m116.23,19.48h-.81v1.71h.81c.35,0,.6-.06.75-.18.17-.13.25-.36.25-.68s-.08-.53-.25-.66c-.15-.12-.4-.18-.75-.18m.05-.31c.39,0,.68.06.86.18.14.1.26.23.34.41.08.17.12.36.12.57,0,.46-.15.79-.47,1.01-.18.12-.46.18-.86.18h-1.24v-2.35h1.24Z"/>
      <path class="cls-1" d="m100.13,21.19h1.86v-1.71h-1.86v1.71Zm-.37-1.47c0-.22.04-.36.11-.44.07-.08.21-.12.42-.12h1.55c.2,0,.34.04.41.12.07.08.11.22.11.44v1.24c0,.22-.04.36-.11.44-.07.08-.21.12-.41.12h-1.55c-.2,0-.34-.04-.42-.12-.07-.08-.11-.22-.11-.44v-1.24Z"/>
      <path class="cls-1" d="m106.96,19.47h-1.29v.82h1.29c.09,0,.15-.02.19-.05.04-.03.05-.1.05-.19v-.34c0-.09-.02-.15-.05-.19-.04-.03-.1-.05-.19-.05m-1.66,2.05v-2.35h1.8c.17,0,.29.04.36.11.08.07.11.19.11.35v.52c0,.16-.04.28-.11.35-.07.07-.19.11-.36.11h-.33l1.03.92h-.56l-.91-.92h-.66v.92h-.37Z"/>
      <polygon class="cls-1" points="110.41 19.17 110.41 21.52 112.48 21.52 112.48 21.19 110.79 21.19 110.79 19.17 110.41 19.17"/>
      <polygon class="cls-1" points="96.93 19.17 96.32 21.03 95.68 19.17 95.45 19.17 94.79 21.03 94.18 19.17 93.8 19.17 94.62 21.52 94.91 21.52 95.56 19.74 96.18 21.52 96.46 21.52 97.27 19.17 96.93 19.17"/>
      <line class="cls-6" x1="22.78" y1="16.75" x2="117.7" y2="16.75"/>
      <rect class="cls-7" x="3.13" y="6.56" width="114.59" height="17.2"/>
      <g class="cls-8">
        <rect class="cls-5" x="11.89" y="12.34" width="6.86" height="6.77"/>
      </g>
      <g class="cls-3">
        <polygon class="cls-4" points="0 9.73 9.61 0 19.21 9.73 9.61 19.46 0 9.73"/>
      </g>
      <g class="cls-2">
        <rect class="cls-9" x="3.14" y="8.01" width="15.17" height="15.75"/>
      </g>
    </g>
  </g>
</svg>