<?xml version="1.0" encoding="UTF-8"?><svg id="Layer_1" xmlns="http://www.w3.org/2000/svg" viewBox="0 0 709.35 175"><defs><style>.cls-1{fill:#034599;}</style></defs><g id="Lorex-Logo-White"><g id="Group_27"><path id="Path_1" class="cls-1" d="M115.2,135.09v37.82H0V20.01h42.22v115.08h72.98Z"/><path id="Path_2" class="cls-1" d="M511.11,50.54v-30.53h-106.41v152.9h106.41v-30.53h-64.31v-28.68h40.25v-31.81h-40.25v-31.34h64.31Z"/><path id="Path_3" class="cls-1" d="M360.52,118.9l-.46-.58c26.32-8.3,40.92-36.37,32.62-62.68-6.56-20.8-25.85-34.94-47.66-34.94h-79.81v153.02h42.1v-52.97h8.67l34.23,52.63h50.31l-40.02-54.48ZM347.56,77.96c-2.24,8.06-9.57,13.64-17.93,13.65h-22.44v-37.24h22.44c10.25-.03,18.59,8.26,18.62,18.51,0,1.72-.23,3.43-.69,5.08h0Z"/><g id="Group_26"><path id="Path_4" class="cls-1" d="M180.66,78.77c-9.71,0-17.58,7.87-17.58,17.58s7.87,17.58,17.58,17.58,17.58-7.87,17.58-17.58c0-9.7-7.86-17.58-17.56-17.58h-.02Z"/><path id="Path_5" class="cls-1" d="M180.66,17.81c-43.37,0-78.65,35.16-78.65,78.53-.02,13.58,3.49,26.93,10.18,38.75.93,1.62,1.85,3.24,2.89,4.74,23.95,36.16,72.68,46.05,108.84,22.1,21.99-14.57,35.2-39.21,35.16-65.59.23-43.37-35.05-78.53-78.42-78.53ZM180.66,139.83c-23.99.03-43.46-19.39-43.49-43.37s19.39-43.46,43.37-43.49c23.99-.03,43.46,19.39,43.49,43.37,0,.04,0,.08,0,.12-.02,23.95-19.43,43.35-43.37,43.37Z"/></g><path id="Path_6" class="cls-1" d="M620.64,96.23l56.1-76.22h-48.92l-31.69,44.07-31.69-44.07h-48.92l56.21,76.22-56.56,76.68h48.92l32.04-44.65,32.04,44.65h48.92l-56.44-76.68Z"/></g><g id="Group_31"><g id="Group_30"><g id="Group_29"><g id="Group_28"><path id="Path_7" class="cls-1" d="M698.02,14.57c1.88-.44,3.22-2.11,3.24-4.05,0-2.29-1.84-4.15-4.13-4.16-.01,0-.03,0-.04,0h-5.55v13.42h1.97v-5.09h2.2l3.47,5.09h2.43l-3.58-5.2ZM693.5,8.44h3.58c1.21,0,2.2.98,2.2,2.19h0c.04,1.18-.88,2.16-2.05,2.2-.05,0-.1,0-.14,0h-3.59v-4.39Z"/></g></g><path id="Path_8" class="cls-1" d="M696.28,1.62c6.32,0,11.45,5.13,11.45,11.45s-5.13,11.45-11.45,11.45-11.45-5.13-11.45-11.45c.01-6.32,5.13-11.44,11.45-11.45M696.28,0c-7.22,0-13.07,5.85-13.07,13.07s5.85,13.07,13.07,13.07c7.22,0,13.07-5.85,13.07-13.07C709.36,5.86,703.52,0,696.31,0c0,0-.02,0-.03,0Z"/></g></g></g></svg>