<?xml version="1.0" encoding="UTF-8"?>
<svg id="Layer_1" data-name="Layer 1" xmlns="http://www.w3.org/2000/svg" viewBox="0 0 132.14 132.14">
  <defs>
    <style>
      .cls-1 {
        fill: #f05225;
      }

      .cls-2 {
        fill: #fdb813;
      }

      .cls-3 {
        fill: #747474;
      }

      .cls-4 {
        fill: #7fbb42;
      }

      .cls-5 {
        fill: #33a0da;
      }
    </style>
  </defs>
  <path class="cls-3" d="m48.94,62.06l-.73,2.13h-.05c-.19-.71-.43-1.41-.73-2.08l-3.96-10.06h-3.96v16h2.58v-12.06c0-.45-.06-.79-.06-1.01h.06c.09.45.22.89.4,1.32l4.83,11.69h1.8l4.77-11.8c.13-.41.25-.82.34-1.23h.05c-.05,1.21-.09,2.27-.09,2.89v10.17h2.75v-16.01h-3.76l-4.24,10.06Zm10.53-5.51h2.64v11.46h-2.64v-11.46Zm1.32-4.89c-.42,0-.82.15-1.12.45-.32.28-.48.7-.45,1.12,0,.42.17.82.45,1.12.3.29.7.45,1.12.45.42,0,.82-.15,1.12-.45.32-.28.48-.7.45-1.12,0-.42-.16-.82-.45-1.12-.29-.31-.7-.48-1.12-.45m10.9,4.77c-.5-.11-1.01-.17-1.52-.17-1.13-.02-2.25.25-3.26.79-.92.5-1.67,1.27-2.17,2.19-.51,1.03-.75,2.16-.73,3.3-.03,1.04.22,2.08.73,2.99.46.87,1.16,1.6,2.03,2.08.92.49,1.94.74,2.98.73,1.14.03,2.26-.25,3.26-.79h0v-2.47l-.11.06c-.4.3-.84.52-1.32.66-.42.15-.87.23-1.32.22-.95.05-1.87-.32-2.53-1.01-.65-.74-1-1.71-.96-2.7-.05-1.02.29-2.03.96-2.81.66-.68,1.58-1.05,2.53-1.01.92.02,1.82.31,2.58.84l.11.06v-2.64h0c-.45-.06-.85-.22-1.32-.34m8.97-.1c-.65,0-1.28.21-1.8.61-.47.42-.82.97-1.01,1.58h0v-2.03h-2.7v11.46h2.7v-5.84c-.05-.86.18-1.7.66-2.42.38-.59,1.04-.95,1.74-.95.26.01.53.05.79.11.23.03.44.13.61.28l.11.06v-2.7h-.05c-.34-.13-.71-.18-1.07-.17m7.28-.06c-1.64-.09-3.24.5-4.44,1.63-1.1,1.23-1.67,2.85-1.57,4.5-.24,2.99,1.99,5.6,4.98,5.84.27.02.54.02.8,0,1.64.08,3.23-.53,4.38-1.69,1.09-1.21,1.66-2.81,1.58-4.44.08-1.58-.47-3.14-1.52-4.32-1.13-1.07-2.66-1.62-4.21-1.52m2.19,8.82c-.56.65-1.39,1-2.24.96-.88.04-1.73-.34-2.3-1.01-.61-.78-.91-1.76-.85-2.75-.07-1.01.23-2.01.85-2.81,1.17-1.27,3.14-1.35,4.41-.19.05.04.09.09.14.13.62.8.92,1.8.85,2.81,0,1.02-.29,2.01-.85,2.87m9.55-3.82c-.58-.2-1.13-.48-1.62-.85-.22-.22-.35-.53-.34-.85-.02-.34.16-.66.45-.84.35-.23.76-.35,1.18-.34.48,0,.95.07,1.41.22.41.14.81.33,1.18.56l.11.05v-2.53h-.06c-.41-.13-.82-.25-1.23-.34-.51-.05-.96-.11-1.32-.11-1.14-.05-2.26.3-3.15,1.01-.8.59-1.26,1.53-1.23,2.53-.03.49.07.97.28,1.41.2.41.48.78.84,1.07.51.37,1.06.68,1.63.95.62.28,1.12.45,1.41.62.23.14.43.31.61.5.11.19.17.4.17.62,0,.79-.56,1.12-1.74,1.12-.52,0-1.04-.09-1.52-.28-.55-.17-1.07-.44-1.53-.79l-.11-.06v2.64h.05c.47.21.96.36,1.46.45.52.11,1.05.16,1.58.17,1.19.07,2.36-.29,3.3-1.02.81-.61,1.27-1.57,1.23-2.58.03-.72-.2-1.43-.66-1.98-.72-.58-1.51-1.05-2.36-1.4m10.17-5c-1.64-.09-3.24.5-4.44,1.63-1.11,1.22-1.68,2.85-1.57,4.5-.24,2.99,1.99,5.6,4.98,5.84.27.02.54.02.8,0,1.64.08,3.23-.53,4.38-1.69,1.09-1.21,1.65-2.8,1.56-4.42.08-1.58-.46-3.14-1.51-4.32-1.14-1.06-2.66-1.61-4.22-1.52m2.14,8.82c-1.2,1.24-3.17,1.28-4.42.08-.05-.04-.09-.09-.13-.14-.61-.78-.91-1.76-.85-2.75-.07-1.01.23-2.01.85-2.81,1.17-1.27,3.14-1.35,4.41-.19.05.04.09.09.14.13.62.8.92,1.8.84,2.81.03,1.02-.26,2.02-.84,2.87"/>
  <path class="cls-3" d="m129.89,58.74v-2.19h-2.69v-3.37h-.06l-2.58.79h-.05v2.59h-4.05v-1.46c-.03-.54.13-1.08.45-1.52.32-.34.77-.53,1.23-.51.41-.01.82.08,1.18.28l.11.05v-2.36h-.06c-.49-.15-1-.23-1.51-.22-.74-.01-1.48.16-2.14.51-.63.33-1.14.84-1.49,1.46-.36.65-.56,1.39-.56,2.13v1.57h-1.88v2.19h1.91v9.24h2.69v-9.18h4.05v5.9c0,2.42,1.12,3.65,3.43,3.65.38,0,.75-.04,1.12-.11.3-.03.59-.12.85-.28h0v-2.19l-.11.05c-.17.11-.36.19-.56.22-.18.05-.37.07-.56.06-.44.05-.89-.11-1.18-.45-.29-.43-.43-.95-.4-1.47v-5.39h2.87Z"/>
  <path class="cls-1" d="m2.25,50.82h14.53v14.49H2.25v-14.49Z"/>
  <path class="cls-4" d="m18.21,50.82h14.53v14.49h-14.53v-14.49Z"/>
  <path class="cls-5" d="m2.25,66.83h14.53v14.49H2.25v-14.49Z"/>
  <path class="cls-2" d="m18.21,66.83h14.53v14.49h-14.53v-14.49Z"/>
  <path class="cls-3" d="m44.33,79.28c-.51.24-1.06.35-1.62.34-.77.03-1.51-.28-2.03-.85-.53-.58-.81-1.35-.79-2.13-.04-.85.26-1.68.85-2.3.59-.59,1.39-.9,2.23-.87.48-.02.95.05,1.4.22v.73c-.43-.22-.91-.34-1.4-.34-.63-.02-1.24.22-1.69.66-.45.51-.67,1.17-.61,1.85-.02.64.2,1.26.61,1.74.4.44.98.67,1.58.62.55.02,1.1-.11,1.57-.4v.73h-.09Z"/>
  <path class="cls-3" d="m46.13,79.58h-.66v-6.29h.66v6.29Z"/>
  <path class="cls-3" d="m49.27,79.69c-1.12.04-2.05-.84-2.09-1.95,0-.08,0-.16,0-.24-.05-.61.16-1.22.56-1.68.42-.41.99-.64,1.58-.61.55-.04,1.08.16,1.46.56.36.46.53,1.04.5,1.62.04.6-.16,1.19-.56,1.63-.33.47-.89.73-1.46.67Zm.06-3.88c-.39-.02-.77.15-1.02.45-.26.36-.4.79-.39,1.23-.04.43.1.86.39,1.18.26.28.63.45,1.02.45.39.02.76-.15,1.01-.45.25-.36.37-.8.34-1.23.03-.44-.09-.87-.34-1.23-.25-.29-.63-.43-1.01-.4Z"/>
  <path class="cls-3" d="m55.96,79.58h-.66v-.66h0c-.25.5-.76.81-1.32.79-1.01,0-1.52-.61-1.52-1.8v-2.53h.66v2.42c0,.88.34,1.32,1.01,1.32.33.01.64-.13.85-.39.24-.26.36-.61.34-.96v-2.46h.66v4.27h-.01Z"/>
  <path class="cls-3" d="m60.96,79.58h-.66v-.73h0c-.29.55-.87.88-1.49.84-.51.04-1-.17-1.32-.56-.36-.44-.54-1-.51-1.57-.04-.6.14-1.2.51-1.68.34-.42.86-.66,1.4-.62.53-.04,1.04.21,1.32.66h0v-2.64h.66v6.29h.09Zm-.73-1.91v-.62c0-.33-.12-.65-.34-.9-.22-.22-.53-.35-.85-.34-.37,0-.72.16-.95.45-.24.36-.36.8-.34,1.23-.03.42.09.84.34,1.18.22.28.55.44.9.45.35.03.68-.12.9-.39.22-.31.34-.69.34-1.07Z"/>
  <path class="cls-3" d="m64.44,79.35v-.84c.11.05.22.17.34.22l.4.17c.17.06.28.06.45.11s.28.06.39.06c.34.03.67-.05.96-.22.21-.15.34-.4.34-.66,0-.14-.04-.28-.11-.4-.07-.13-.17-.24-.28-.34-.14-.11-.29-.2-.45-.28-.18-.1-.37-.2-.57-.28-.19-.1-.38-.21-.56-.34-.33-.18-.6-.45-.79-.79-.07-.18-.11-.37-.11-.56,0-.25.06-.51.17-.73.1-.21.26-.38.45-.51.2-.14.42-.23.66-.28.24-.07.49-.1.73-.11.45-.04.91.04,1.32.22v.79c-.39-.26-.85-.4-1.32-.4-.15,0-.3.01-.45.06-.17.05-.28.05-.4.17-.12.06-.22.16-.28.28-.15.24-.15.55,0,.79.06.11.14.2.22.28.12.1.25.19.39.28.18.11.37.2.57.28.22.11.39.22.61.34.18.11.35.24.51.39.14.12.26.28.34.45.09.17.13.37.11.57,0,.25-.05.5-.17.73-.12.2-.27.37-.45.51-.2.14-.42.23-.66.28-.26.07-.52.1-.79.11h-.34c-.11,0-.28-.05-.45-.05s-.28-.06-.4-.11-.28-.13-.4-.18Z"/>
  <path class="cls-3" d="m70.96,79.69c-1.12.04-2.05-.84-2.09-1.95,0-.08,0-.16,0-.24-.05-.61.16-1.22.56-1.68.42-.41.99-.63,1.58-.61.55-.04,1.08.16,1.46.56.36.46.54,1.04.51,1.62.04.6-.16,1.19-.57,1.63-.35.45-.89.7-1.46.67Zm.06-3.88c-.39-.02-.76.15-1.01.45-.26.36-.4.79-.4,1.23-.04.43.11.86.4,1.18.26.28.63.45,1.01.45.39.02.76-.15,1.01-.45.25-.36.37-.8.34-1.23.03-.44-.09-.87-.34-1.23-.26-.27-.63-.41-1.01-.4Z"/>
  <path class="cls-3" d="m74.83,79.58h-.66v-6.29h.66v6.29Z"/>
  <path class="cls-3" d="m79.67,79.58h-.66v-.66h0c-.25.5-.76.8-1.32.79-1.01,0-1.52-.61-1.52-1.8v-2.53h.66v2.42c0,.88.34,1.32,1.01,1.32.33.01.64-.13.84-.39.24-.26.36-.61.34-.96v-2.46h.66v4.27h0Z"/>
  <path class="cls-3" d="m82.98,79.53c-.19.1-.41.13-.62.11-.73,0-1.12-.4-1.12-1.23v-2.53h-.73v-.56h.75v-1.02l.66-.22v1.24h1.07v.56h-1.07v2.42c-.02.22.04.44.17.61.14.12.32.19.5.17.17,0,.33-.06.45-.17l-.05.62h0Z"/>
  <path class="cls-3" d="m84.27,74.24c-.12-.01-.23-.05-.34-.11-.11-.06-.11-.17-.11-.34,0-.12.04-.24.11-.34.05-.11.17-.11.34-.11.12.01.24.05.34.11.11.05.11.17.11.34.03.22-.12.42-.34.45-.04,0-.08,0-.11,0Zm.28,5.33h-.66v-4.27h.66v4.27Z"/>
  <path class="cls-3" d="m87.75,79.69c-1.12.04-2.05-.84-2.09-1.95,0-.08,0-.16,0-.24-.05-.61.16-1.22.56-1.68.42-.41.99-.63,1.58-.61.55-.04,1.08.16,1.46.56.36.46.53,1.04.5,1.62.04.6-.16,1.19-.56,1.63-.35.45-.89.7-1.46.67Zm.06-3.88c-.39-.02-.76.15-1.01.45-.26.36-.4.79-.4,1.23-.04.43.11.86.4,1.18.26.28.63.45,1.01.45.39.02.76-.15,1.01-.45.25-.36.37-.8.34-1.23.03-.44-.09-.87-.34-1.23-.26-.27-.63-.41-1.01-.4Z"/>
  <path class="cls-3" d="m94.46,79.58h-.66v-2.42c0-.9-.34-1.32-1.02-1.32-.33-.01-.64.13-.84.4-.23.26-.35.6-.34.95v2.42h-.66v-4.29h.66v.73h0c.27-.51.82-.82,1.4-.79.41-.02.8.15,1.07.45.28.38.42.85.4,1.32v2.56Z"/>
  <path class="cls-3" d="m98.88,77.33v2.24h-.66v-5.94h1.62c.53-.02,1.04.14,1.47.45.36.34.55.83.5,1.32.02.53-.18,1.04-.56,1.41-.42.4-.99.6-1.57.56l-.8-.04Zm0-3.09v2.39h.73c.4.03.81-.09,1.13-.34.28-.23.43-.59.39-.96,0-.79-.45-1.18-1.41-1.18h-.84v.09Z"/>
  <path class="cls-3" d="m105.06,75.97c-.11-.11-.28-.11-.51-.11-.29,0-.56.15-.73.39-.19.34-.29.73-.28,1.12v2.19h-.66v-4.25h.66v.9h0c.08-.26.24-.49.45-.66.19-.15.42-.23.66-.22.13-.02.27,0,.4.05v.59h.01Z"/>
  <path class="cls-3" d="m107.48,79.69c-1.12.04-2.05-.84-2.09-1.95,0-.08,0-.16,0-.24-.05-.61.15-1.22.56-1.68.42-.41.99-.64,1.57-.61.55-.04,1.08.16,1.46.56.36.46.54,1.04.51,1.62.04.6-.16,1.19-.56,1.63-.35.45-.89.7-1.46.67Zm.05-3.88c-.39-.02-.76.15-1.01.45-.29.34-.43.79-.4,1.23-.04.43.11.86.4,1.18.26.28.63.45,1.01.45.39.02.76-.15,1.01-.45.25-.36.37-.8.34-1.23.03-.44-.09-.87-.34-1.23-.25-.29-.63-.43-1.01-.4h0Z"/>
  <path class="cls-3" d="m113.99,75.31l-1.7,4.27h-.66l-1.63-4.27h.73l1.07,3.09c.05.22.11.45.17.61h0c0-.19.04-.38.11-.56l1.12-3.09h.79v-.05h0Z"/>
  <path class="cls-3" d="m115.12,74.24c-.12-.01-.23-.05-.34-.11-.11-.06-.11-.17-.11-.34,0-.12.04-.24.11-.34.05-.11.17-.11.34-.11.12.01.24.05.34.11.11.05.11.17.11.34.03.22-.12.42-.34.45-.04,0-.08,0-.11,0Zm.34,5.33h-.66v-4.27h.66v4.27Z"/>
  <path class="cls-3" d="m120.45,79.58h-.66v-.73h0c-.28.54-.85.87-1.46.84-.51.04-1-.17-1.32-.56-.36-.44-.54-1-.51-1.57-.04-.6.14-1.2.51-1.68.34-.42.86-.66,1.41-.62.52-.03,1.01.22,1.29.66h0v-2.64h.66v6.29h.09Zm-.66-1.91v-.62c0-.33-.12-.65-.34-.9-.22-.22-.53-.35-.85-.34-.37,0-.72.16-.95.45-.24.36-.37.8-.34,1.23-.02.42.1.84.34,1.18.22.28.55.44.9.45.35.03.68-.12.9-.39.19-.33.3-.69.32-1.07h.01Z"/>
  <path class="cls-3" d="m125.22,77.61h-2.98c-.03.41.12.82.4,1.13.26.28.63.43,1.01.39.48-.01.93-.17,1.32-.45v.59c-.43.29-.94.42-1.46.39-.53.04-1.05-.16-1.41-.56-.36-.47-.54-1.04-.5-1.63-.03-.59.17-1.18.56-1.62.34-.42.86-.64,1.4-.62.51-.05,1.01.16,1.32.56.32.44.47.98.45,1.52v.28l-.11.03Zm-.66-.56c0-.32-.09-.64-.28-.9-.2-.23-.49-.36-.79-.34-.31,0-.62.11-.84.34-.23.25-.37.56-.4.9h2.3Z"/>
  <path class="cls-3" d="m128.49,75.97c-.11-.11-.28-.11-.51-.11-.29,0-.57.15-.73.39-.22.33-.31.73-.28,1.12v2.19h-.66v-4.25h.66v.9h0c.08-.26.24-.49.45-.66.19-.15.42-.23.66-.22.13-.02.27,0,.4.05v.59h.01Z"/>
</svg>