<?xml version="1.0" encoding="UTF-8"?>
<svg id="Layer_1" data-name="Layer 1" xmlns="http://www.w3.org/2000/svg" viewBox="0 0 132.14 132.14">
  <defs>
    <style>
      .cls-1 {
        fill: #fff;
      }

      .cls-2 {
        fill: #6a747c;
      }

      .cls-3 {
        fill: #e1251b;
      }
    </style>
  </defs>
  <g>
    <path class="cls-1" d="m66.34,12.62c-31.53,0-57.18,25.65-57.18,57.18,0,15.86,6.34,30.6,17.85,41.51l.63.59.63-.59c1.66-1.53,3.4-2.94,5.21-4.25,8.77,7.74,20.27,12.45,32.85,12.45s24.07-4.7,32.83-12.43c1.8,1.3,3.54,2.71,5.19,4.23l.63.59.63-.59c11.54-10.93,17.89-25.68,17.89-41.51,0-31.53-25.65-57.18-57.18-57.18Z"/>
    <path class="cls-2" d="m66.34,12.62c-31.53,0-57.18,25.65-57.18,57.18,0,15.86,6.34,30.6,17.85,41.51l.63.59.63-.59c1.66-1.53,3.4-2.94,5.21-4.25,8.77,7.74,20.27,12.45,32.85,12.45s24.07-4.7,32.83-12.43c1.8,1.3,3.54,2.71,5.19,4.23l.63.59.63-.59c11.54-10.93,17.89-25.68,17.89-41.51,0-31.53-25.65-57.18-57.18-57.18Zm0,105.05c-11.96,0-22.9-4.42-31.29-11.69,6.18-4.15,13.12-7,20.43-8.43v7.78h5.94v5.94h12.42c1.78,0,3.23-1.45,3.23-3.23v-10.52c7.35,1.42,14.33,4.29,20.55,8.48-8.4,7.27-19.33,11.68-31.28,11.68Zm4.79-12.34v-7.87h4.1v10.57c0,.77-.62,1.39-1.39,1.39h-10.57v-4.1h7.87Zm-7.87-1.84v-6.02h6.02v6.02h-6.02Zm6.02-7.87h-7.87v7.87h-4.1v-10.35c0-.89.73-1.62,1.62-1.62h10.35v4.1Zm29.75,9.1c-6.62-4.53-14.09-7.63-21.96-9.1h-5.94v-5.94h-12.19c-1.91,0-3.46,1.55-3.46,3.46v2.53c-7.83,1.48-15.27,4.54-21.85,9.04-9.32-8.74-15.16-21.15-15.16-34.91,0-26.4,21.48-47.87,47.87-47.87s47.87,21.48,47.87,47.87c0,13.76-5.85,26.18-15.18,34.92Zm5.94,4.66c-1.42-1.27-2.89-2.46-4.41-3.57,9.53-9.06,15.49-21.85,15.49-36.01,0-27.41-22.3-49.72-49.72-49.72s-49.72,22.3-49.72,49.72c0,14.15,5.95,26.93,15.47,35.99-1.53,1.12-3.01,2.31-4.43,3.58-10.75-10.5-16.66-24.52-16.66-39.57,0-30.51,24.82-55.33,55.33-55.33s55.33,24.82,55.33,55.33c0,15.04-5.92,29.06-16.7,39.58Z"/>
    <path class="cls-3" d="m125.25,49.37H1.88v29.89c0,2.76,2.25,5.01,5.01,5.01h123.37v-29.89c0-2.76-2.25-5.01-5.01-5.01Z"/>
    <g>
      <path class="cls-1" d="m29.36,58.18h2.68v15.49h-2.28l-8.54-11.02v11.02h-2.68v-15.49h2.52l8.3,10.71v-10.71Z"/>
      <path class="cls-1" d="m40.59,71.75c1.31,0,2.23-.49,3.16-1.39l1.57,1.39c-1.11,1.33-2.63,2.19-4.78,2.19-3.38,0-6-2.46-6-6.08,0-3.36,2.37-6.11,5.71-6.11,3.72,0,5.6,2.92,5.6,6.31,0,.24-.02.46-.04.73h-8.58c.31,1.9,1.64,2.96,3.36,2.96Zm2.61-4.73c-.18-1.73-1.19-3.08-2.96-3.08-1.64,0-2.79,1.26-3.03,3.08h6Z"/>
      <path class="cls-1" d="m50.9,70.02c0,1.04.53,1.46,1.44,1.46.6,0,1.13-.13,1.66-.4v2.19c-.66.38-1.42.6-2.41.6-1.97,0-3.36-.86-3.36-3.43v-6.15h-1.48v-2.3h1.48v-3.21h2.68v3.21h3.14v2.3h-3.14v5.73Z"/>
      <path class="cls-1" d="m67.83,70l2.39-8.01h2.68l-3.83,11.77h-2.39l-2.61-7.99-2.63,7.99h-2.39l-3.78-11.77h2.74l2.35,8.01,2.59-8.05h2.28l2.61,8.05Z"/>
      <path class="cls-1" d="m79.68,73.94c-3.56,0-6.19-2.72-6.19-6.06s2.65-6.13,6.24-6.13,6.22,2.72,6.22,6.08-2.65,6.11-6.26,6.11Zm0-9.85c-2.15,0-3.52,1.68-3.52,3.74s1.48,3.78,3.56,3.78,3.54-1.68,3.54-3.74-1.48-3.78-3.58-3.78Z"/>
      <path class="cls-1" d="m90.69,73.67h-2.68v-11.68h2.68v2.63c.73-1.75,2.08-2.94,4.14-2.85v2.83h-.16c-2.35,0-3.98,1.53-3.98,4.62v4.45Z"/>
      <path class="cls-1" d="m107.27,73.67h-3.1l-3.52-5.04-1.64,1.7v3.34h-2.68v-16.15h2.68v9.65l4.84-5.18h3.25l-4.65,4.76,4.8,6.92Z"/>
      <path class="cls-1" d="m111.71,60.44h2.52v4.23h4.25v2.43h-4.25v4.23h-2.52v-4.23h-4.25v-2.43h4.25v-4.23Z"/>
    </g>
    <g>
      <path class="cls-3" d="m52.05,37.82c-1.34,0-2.4.9-2.4,2.04s1.06,2.02,2.4,2.02c1.34,0,2.4-.88,2.4-2.02s-1.05-2.04-2.4-2.04m0,5.43c-2.11,0-3.77-1.48-3.77-3.39,0-1.91,1.66-3.41,3.77-3.41,2.11,0,3.76,1.5,3.76,3.41,0,1.91-1.65,3.39-3.76,3.39"/>
      <path class="cls-3" d="m65.51,43.25c-.76,0-1.37-.63-1.37-1.4v-2.82c0-.67-.59-1.21-1.31-1.21-.71,0-1.3.54-1.3,1.21v4.22c-.76,0-1.37-.61-1.37-1.37v-2.85c0-.67-.58-1.21-1.31-1.21s-1.3.54-1.3,1.21v2.84c0,.76-.61,1.38-1.37,1.38v-4.22c0-1.43,1.2-2.58,2.67-2.58.8,0,1.51.33,1.99.86.48-.53,1.2-.86,1.98-.86,1.48,0,2.68,1.16,2.68,2.58v4.22Z"/>
      <path class="cls-3" d="m69.95,43.23c-.36,0-.7-.03-1.01-.1-.71-.2-1.13-.94-.94-1.65.03-.09.06-.17.09-.24h.01c.39.41,1.01.63,1.85.63,1.26,0,2.24-.88,2.24-2s-.98-2.07-2.24-2.07c-1.18,0-2.37.66-2.37,2.1v4.43c0,.74-.63,1.34-1.37,1.34v-5.77c0-2,1.57-3.47,3.74-3.47.96,0,1.85.36,2.54.98.69.64,1.07,1.51,1.07,2.45,0,1.88-1.58,3.36-3.61,3.36"/>
      <path class="cls-3" d="m79.72,35.15h-2.93s0,8.1,0,8.1h-.06c-.73,0-1.31-.63-1.31-1.37v-6.73s-2.93,0-2.93,0c-.74,0-1.34-.61-1.34-1.35h9.92c0,.74-.6,1.35-1.35,1.35"/>
      <path class="cls-3" d="m88.4,35.21l-1.95,4.28h3.67s-1.96-4.29-1.96-4.29h.24Zm3.03,7.18l-.73-1.56h-4.86s-.72,1.61-.72,1.61c-.34.65-1.24.84-1.93.84l3.96-8.69c.22-.5.62-.78,1.09-.78s.87.29,1.1.78l3.92,8.58c-.74.07-1.54-.15-1.83-.78"/>
      <path class="cls-3" d="m46.75,36.35c-.74-.78-1.82-1.3-3.02-1.3-2.12,0-3.85,1.54-3.85,3.44s1.73,3.45,3.85,3.45c1.01,0,1.97-.38,2.7-1,.5-.41,1.24-.38,1.73.03-.37.57-.87,1.07-1.48,1.45-.87.56-1.88.84-2.94.84-2.87,0-5.19-2.14-5.19-4.78,0-2.64,2.32-4.78,5.19-4.78,2.04,0,3.89,1.11,4.72,2.82-.53.34-1.26.3-1.7-.19"/>
      <path class="cls-3" d="m94.05,42.14s-.04.02-.07.03c0,0,.04.05.18.22l-.03.02c-.06.05-.14.04-.19-.02-.15-.18-.17-.2-.17-.2h-.17s0-.05,0-.05c0-.06.06-.12.13-.12h.08c.06,0,.11-.01.14-.03.03-.01.03-.03.03-.06,0-.02,0-.08-.17-.08h-.23v.45c0,.07-.06.13-.14.13h-.03s0-.62,0-.62c0-.07.06-.12.13-.13h.27c.31,0,.34.18.34.25,0,.09-.05.16-.12.21m-.27-.56c-.32,0-.57.22-.57.5s.25.5.57.5.57-.22.57-.5-.26-.5-.57-.5m0,1.15c-.4,0-.72-.29-.72-.65s.32-.65.72-.65.72.3.72.65-.32.65-.72.65"/>
      <path class="cls-3" d="m81.51,33.8v8.12c0,.73.63,1.33,1.37,1.33v-8.12c0-.73-.63-1.33-1.37-1.33"/>
    </g>
  </g>
  <path class="cls-2" d="m105.18,108.02s-.04.02-.07.03c0,0,.04.05.18.22l-.03.02c-.06.05-.14.04-.19-.02-.15-.18-.17-.2-.17-.2h-.17s0-.05,0-.05c0-.06.06-.12.13-.12h.08c.06,0,.11-.01.14-.03.03-.01.03-.03.03-.06,0-.02,0-.08-.17-.08h-.23v.45c0,.07-.06.13-.14.13h-.03s0-.62,0-.62c0-.07.06-.12.13-.13h.27c.31,0,.34.18.34.25,0,.09-.05.16-.12.21m-.27-.56c-.32,0-.57.22-.57.5s.25.5.57.5.57-.22.57-.5-.26-.5-.57-.5m0,1.15c-.4,0-.72-.29-.72-.65s.32-.65.72-.65.72.3.72.65-.32.65-.72.65"/>
</svg>