<?xml version="1.0" encoding="UTF-8"?>
<svg id="Layer_2" data-name="Layer 2" xmlns="http://www.w3.org/2000/svg" viewBox="0 0 125.94 28.05">
  <defs>
    <style>
      .cls-1 {
        fill: #004751;
      }

      .cls-2 {
        fill: #00aba9;
      }
    </style>
  </defs>
  <g id="Layer_1-2" data-name="Layer 1">
    <g>
      <path class="cls-1" d="m11.41,9.22c-.14-.86-.34-2.47-2.34-2.47-1.13,0-2.23.79-2.23,1.99,0,1.51.69,1.82,5.26,3.88,4.74,2.13,5.95,4.33,5.95,7.28,0,3.71-2.13,7.8-8.87,7.8C1.82,27.7,0,22.89,0,19.63v-.82h6.46c0,2.95,1.82,3.47,2.65,3.47,1.55,0,2.48-1.27,2.48-2.44,0-1.68-1.07-2.1-4.99-3.74-1.79-.72-6.22-2.51-6.22-7.28S5.02,1.32,9.28,1.32c2.51,0,5.23.93,6.88,2.89,1.51,1.85,1.62,3.57,1.68,5.02h-6.43Z"/>
      <path class="cls-1" d="m49.31,2.18h6.32v19.46h7.32v5.63h-13.64V2.18Z"/>
      <path class="cls-1" d="m65.43,2.18h6.32v25.09h-6.32V2.18Z"/>
      <path class="cls-1" d="m75.39,2.18h5.45l9.56,15.77.07-.07-.27-15.7h6.05v25.09h-5.48l-9.43-15.26-.07.03.17,15.23h-6.05V2.18Z"/>
      <path class="cls-1" d="m99.94,2.18h6.32v11.29h.07l6.99-11.29h6.62l-8.19,12.51,8.73,12.58h-7.39l-6.76-10.85h-.07v10.85h-6.32V2.18Z"/>
      <path class="cls-1" d="m37.37,20.01l4.45,4.45c-2.25,1.91-5.16,3.07-8.35,3.07-1.97,0-3.85-.45-5.52-1.24.16-.49.25-1.01.25-1.54,0-2.66-2.16-4.82-4.82-4.82-.54,0-1.06.09-1.56.25-.8-1.68-1.25-3.56-1.25-5.55,0-3.18,1.15-6.1,3.07-8.35l4.44,4.44c-.79,1.09-1.26,2.44-1.26,3.9,0,3.67,2.97,6.65,6.65,6.65,1.46,0,2.81-.47,3.9-1.27Z"/>
      <circle class="cls-2" cx="23.38" cy="24.76" r="3.3"/>
      <g>
        <path class="cls-1" d="m29.52,9.32l-4.43-4.43c2.24-1.91,5.14-3.06,8.32-3.06,1.97,0,3.83.44,5.5,1.23-.16.48-.25,1-.25,1.54,0,2.65,2.15,4.8,4.8,4.8.54,0,1.06-.09,1.55-.25.8,1.68,1.25,3.55,1.25,5.53,0,3.17-1.15,6.08-3.06,8.32l-4.43-4.43c.79-1.09,1.26-2.43,1.26-3.89,0-3.66-2.96-6.62-6.62-6.62-1.45,0-2.8.47-3.89,1.26Z"/>
        <circle class="cls-2" cx="43.47" cy="4.59" r="3.28"/>
        <circle class="cls-2" cx="33.41" cy="14.68" r="4.63"/>
      </g>
      <g>
        <path class="cls-1" d="m124.75,1.56c0,.56-.43.69-.43.69l.54,1.01h-.45l-.45-.89h-.49v.89h-.38V.9h.85c.12,0,.24.02.36.06.21.07.45.24.45.6Zm-1.28.47h.26c.07,0,.15,0,.22-.01.07,0,.14-.03.2-.05.06-.03.1-.06.14-.11.03-.05.05-.11.05-.19s-.02-.21-.05-.26c-.03-.05-.08-.09-.14-.11-.06-.03-.12-.04-.2-.05-.07-.01-.15-.01-.22-.01h-.26v.82Z"/>
        <path class="cls-1" d="m123.87,0c-1.14,0-2.07.93-2.07,2.07s.93,2.07,2.07,2.07,2.07-.93,2.07-2.07-.93-2.07-2.07-2.07Zm0,3.8c-.95,0-1.73-.77-1.73-1.73s.77-1.73,1.73-1.73,1.73.77,1.73,1.73-.77,1.73-1.73,1.73Z"/>
      </g>
    </g>
  </g>
</svg>