<?xml version="1.0" encoding="UTF-8"?>
<svg id="Layer_2" data-name="Layer 2" xmlns="http://www.w3.org/2000/svg" viewBox="0 0 121.85 24.03">
  <defs>
    <style>
      .cls-1 {
        fill: #231f20;
      }
    </style>
  </defs>
  <g id="Layer_1-2" data-name="Layer 1">
    <g>
      <polygon class="cls-1" points="66 13.67 51.57 .22 51.57 23.02 55.85 23.02 55.85 10.29 70.28 23.72 70.28 .86 66 .86 66 13.67"/>
      <path class="cls-1" d="m32.83,19.64c-4.19,0-7.59-3.44-7.59-7.67s3.4-7.67,7.59-7.67,7.59,3.44,7.59,7.67-3.4,7.67-7.59,7.67m0-19.64c-6.6,0-11.97,5.37-11.97,11.97s5.37,11.97,11.97,11.97,11.97-5.37,11.97-11.97S39.43,0,32.83,0"/>
      <path class="cls-1" d="m13.58,12.17c-1.14-.87-2.63-1.57-4.86-2.27-4.33-1.38-4.33-2.47-4.33-3,0-1.23,1.38-2.51,3.68-2.51,1.94,0,3.45.97,4,1.38l.3.22,3.45-2.33-.37-.45C15.33,3.09,12.68,0,8.06,0,5.85,0,3.81.71,2.33,2,.85,3.28,0,5.07,0,6.9c0,1.97.86,3.62,2.55,4.91,1.14.87,2.63,1.57,4.86,2.27,4.33,1.38,4.33,2.47,4.33,3,0,1.23-1.38,2.51-3.68,2.51-1.94,0-3.45-.97-4-1.38l-.3-.22-3.45,2.33.38.45c.11.13,2.76,3.22,7.37,3.22,2.22,0,4.25-.71,5.74-2,1.48-1.28,2.33-3.07,2.33-4.9,0-1.96-.86-3.62-2.55-4.91"/>
      <path class="cls-1" d="m89.02,19.73c-4.19,0-7.59-3.44-7.59-7.67s3.4-7.67,7.59-7.67,7.59,3.44,7.59,7.67-3.41,7.67-7.59,7.67M89.02.09c-6.6,0-11.97,5.37-11.97,11.97s5.37,11.97,11.97,11.97,11.97-5.37,11.97-11.97S95.62.09,89.02.09"/>
      <path class="cls-1" d="m108.27,11.86c1.14.87,2.63,1.57,4.86,2.28,4.33,1.38,4.33,2.47,4.33,2.99,0,1.23-1.38,2.51-3.68,2.51-1.94,0-3.45-.97-4-1.38l-.3-.22-3.45,2.33.38.45c.11.13,2.76,3.22,7.37,3.22,2.22,0,4.26-.71,5.74-2,1.48-1.28,2.33-3.07,2.33-4.9,0-1.96-.86-3.62-2.55-4.91-1.14-.87-2.63-1.57-4.86-2.27-4.34-1.38-4.34-2.47-4.34-3,0-1.23,1.38-2.51,3.68-2.51,1.94,0,3.45.97,4,1.38l.3.22,3.45-2.33-.38-.45c-.11-.13-2.76-3.22-7.37-3.22-2.22,0-4.25.71-5.74,2-1.48,1.28-2.32,3.07-2.32,4.9,0,1.97.86,3.62,2.55,4.91"/>
    </g>
  </g>
</svg>