<?xml version="1.0" encoding="UTF-8"?>
<svg id="Layer_1" data-name="Layer 1" xmlns="http://www.w3.org/2000/svg" viewBox="0 0 132.14 132.14">
  <defs>
    <style>
      .cls-1 {
        fill: #d9205e;
      }

      .cls-2 {
        fill: #1f77ba;
      }

      .cls-3 {
        fill: #d7df2a;
      }

      .cls-4 {
        fill: #e8168b;
      }

      .cls-5 {
        fill: #65318e;
      }

      .cls-6 {
        fill: #010101;
      }

      .cls-7 {
        fill: #f69323;
      }
    </style>
  </defs>
  <path class="cls-7" d="m38.5,50.52c.62.23,1.25.6,1.89,1.11.02-.02.04-.06.09-.09.23-.28.45-.57.62-.87.23-.38.4-.81.53-1.25.04-.15.09-.3.11-.45l.04-.26c.02-.15.04-.28.06-.38.09-.57.09-1.19.02-1.83-.06-.66-.21-1.36-.43-2.08-.02-.11-.09-.19-.15-.32-.19-.32-.49-.53-.83-.64-.28-.09-.53-.09-.83,0-.36.11-.66.36-.85.7s-.23.72-.11,1.08c.04.13.09.26.11.38.04.15.06.28.09.43.02.11.04.21.06.3s.02.19.04.28c.06.57.06,1.08-.02,1.55-.04.21-.09.4-.15.57s-.13.32-.23.49c-.11.19-.23.36-.38.53-.13.13-.26.28-.4.38-.04.02-.06.06-.11.09.13.04.26.11.38.15l.45.13Z"/>
  <path class="cls-7" d="m34.93,48.67c.98,0,1.76-.79,1.76-1.76s-.79-1.76-1.76-1.76-1.76.79-1.76,1.76.81,1.76,1.76,1.76"/>
  <path class="cls-1" d="m38.71,56.03c.11.19.19.38.26.6.06.17.11.36.13.55,0,.04.02.09.02.13.11-.09.19-.17.3-.23l.38-.3c.51-.43,1.15-.81,1.89-1.08-.02-.04-.02-.06-.04-.11-.13-.34-.28-.66-.45-.98-.23-.38-.51-.77-.81-1.11l-.32-.32-.19-.17c-.11-.11-.21-.17-.3-.26-.47-.36-1-.66-1.57-.94-.6-.28-1.28-.49-2.02-.68-.09-.02-.19-.04-.32-.04-.4,0-.74.15-1,.38-.21.19-.34.43-.43.7-.09.38-.02.77.17,1.08.19.32.51.55.89.64.13.04.26.06.38.11.15.04.28.09.4.13.11.04.19.06.3.11.09.02.17.06.26.11.53.23.98.49,1.34.79.17.15.3.28.43.43.11.17.21.3.3.47"/>
  <path class="cls-1" d="m35.75,56.51c-.28-.15-.57-.23-.87-.23-.64,0-1.21.34-1.53.87-.23.4-.3.87-.17,1.34.13.45.4.83.83,1.06.28.15.57.23.87.23.64,0,1.21-.34,1.53-.87.23-.4.3-.87.17-1.34-.13-.45-.43-.83-.83-1.06"/>
  <path class="cls-5" d="m40.13,61.68c.38,0,.74-.17,1-.45.09-.11.19-.19.28-.28.11-.11.21-.19.32-.3.09-.06.15-.15.23-.21.06-.06.13-.11.21-.17.47-.36.91-.62,1.36-.77.21-.06.38-.13.57-.15.38-.06.79-.06,1.17.02.19.04.36.09.53.17.04.02.09.02.13.04-.02-.13-.04-.26-.06-.38l-.09-.47c-.13-.66-.11-1.38,0-2.19-.04,0-.09-.02-.11-.02-.34-.06-.7-.09-1.06-.09-.45,0-.91.04-1.36.15-.15.04-.3.09-.45.13l-.26.09c-.15.06-.26.09-.36.13-.53.23-1.08.53-1.59.91-.53.38-1.06.87-1.59,1.4-.06.09-.13.17-.19.28-.17.32-.23.68-.15,1.04.06.28.19.51.4.7.26.26.62.38.98.38h.09v.02h0Z"/>
  <path class="cls-5" d="m44.47,61.89c-.3,0-.62.09-.87.23-.85.49-1.13,1.57-.64,2.4.32.55.89.89,1.53.89.3,0,.62-.09.87-.23.85-.49,1.13-1.57.64-2.4-.32-.55-.89-.89-1.53-.89"/>
  <path class="cls-4" d="m50.57,54.52c-.62-.23-1.25-.6-1.89-1.11-.02.02-.04.06-.06.09-.23.28-.45.57-.62.87-.23.38-.4.81-.53,1.25-.04.15-.09.3-.11.45l-.04.26c-.04.17-.04.28-.06.38-.09.57-.09,1.19-.02,1.85.06.66.21,1.36.43,2.08.02.11.09.19.15.32.19.32.47.53.83.64.28.09.53.09.83,0,.36-.11.68-.36.85-.7.19-.34.21-.72.11-1.08-.04-.13-.09-.26-.11-.38-.04-.15-.06-.28-.11-.43-.02-.11-.04-.21-.06-.3s-.02-.19-.04-.28c-.06-.57-.06-1.08.02-1.55.04-.21.09-.4.15-.57.06-.17.13-.32.23-.47.11-.19.23-.36.38-.53.13-.13.26-.26.4-.38.04-.02.06-.06.11-.09-.13-.04-.26-.11-.38-.15l-.45-.17Z"/>
  <path class="cls-4" d="m54.14,56.39c-.98,0-1.76.79-1.76,1.76s.79,1.76,1.76,1.76,1.76-.79,1.76-1.76-.79-1.76-1.76-1.76"/>
  <path class="cls-2" d="m53.44,53.94c.36,0,.7-.15.98-.38.21-.19.34-.43.4-.7.09-.38.02-.77-.17-1.08s-.51-.55-.89-.64c-.13-.02-.26-.06-.38-.11-.15-.04-.28-.09-.4-.13-.11-.04-.19-.06-.3-.11-.09-.02-.17-.06-.26-.11-.53-.23-.98-.49-1.34-.79-.17-.15-.3-.28-.43-.43-.11-.13-.21-.28-.3-.43-.11-.19-.19-.38-.28-.6-.06-.17-.11-.36-.13-.55,0-.04-.02-.09-.02-.13-.11.09-.21.17-.3.26l-.36.3c-.51.43-1.15.79-1.89,1.08.02.04.02.06.04.11.13.34.28.66.45.98.23.38.51.77.81,1.11l.32.32.19.17c.11.11.21.17.3.26.47.36,1,.66,1.59.94.62.28,1.28.49,2.02.68.09.02.19.02.32.02h.02v-.04Z"/>
  <path class="cls-2" d="m53.34,48.54c.81.47,1.93.17,2.4-.64.49-.85.19-1.93-.64-2.4-.28-.15-.57-.23-.87-.23-.64,0-1.21.34-1.53.87-.23.4-.3.87-.17,1.34.11.45.4.83.81,1.06"/>
  <path class="cls-3" d="m43.26,46.29c.11.66.11,1.4,0,2.19.04,0,.06.02.11.02.79.15,1.64.13,2.42-.06.15-.04.3-.09.45-.13l.26-.09c.15-.04.26-.09.36-.13.55-.23,1.08-.53,1.59-.91.53-.38,1.06-.85,1.59-1.4.06-.06.13-.17.19-.28.17-.32.23-.68.15-1.04-.06-.3-.19-.51-.4-.72-.28-.26-.62-.38-.98-.38-.43.02-.79.17-1.04.45-.09.11-.19.19-.28.28-.11.11-.21.19-.32.3-.09.06-.15.15-.23.21-.06.06-.15.11-.21.17-.47.34-.91.6-1.36.77-.21.06-.38.13-.57.15-.38.06-.77.06-1.17-.02-.19-.04-.36-.09-.53-.17-.04-.02-.09-.04-.13-.04.02.15.04.28.06.4l.04.45Z"/>
  <path class="cls-3" d="m45.49,42.91c.85-.49,1.13-1.57.64-2.4-.32-.55-.89-.87-1.53-.87-.3,0-.62.09-.87.23-.4.23-.7.62-.83,1.06-.13.45-.06.94.17,1.34.47.81,1.59,1.13,2.42.64"/>
  <g>
    <path class="cls-6" d="m2.29,41.63h3.72l4.02,12.14c.43,1.28.87,3.25.87,3.25,0,0,.57-1.93,1.11-3.25l5.23-12.37h.43l5.27,12.37c.53,1.28,1.06,3.25,1.06,3.25,0,0,.47-1.98.91-3.25l4.02-12.14h3.44l-7.89,23.02h-.43l-5.65-13.56c-.47-1.11-.94-2.78-.94-2.78,0,0-.53,1.68-1,2.78l-5.8,13.56h-.43l-7.95-23.02Z"/>
    <path class="cls-6" d="m58.4,41.4h.36l10.88,12.73,10.8-12.73h.36v23.02h-3.38v-11.84c0-1.28.13-3.27.13-3.27,0,0-1.11,1.7-2.04,2.74l-5.74,6.91h-.4l-5.74-6.91c-.87-1.04-2.02-2.74-2.02-2.74,0,0,.13,2.02.13,3.27v11.84h-3.38v-23.02h.04Z"/>
    <polygon class="cls-6" points="84.63 41.63 99.11 41.63 99.11 44.76 88.18 44.76 88.18 53.6 97.87 53.6 97.87 56.66 88.18 56.66 88.18 61.32 99.57 61.32 99.57 64.42 84.63 64.42 84.63 41.63"/>
    <path class="cls-6" d="m107.82,51.11c-.91-.98-2.15-2.55-2.15-2.55,0,0,.23,1.87.23,3.27v12.56h-3.27v-23h.47l12.56,13.5c.87.94,2.1,2.55,2.1,2.55,0,0-.23-2.02-.23-3.27v-12.54h3.27v23.02h-.43l-12.56-13.54Z"/>
    <path class="cls-6" d="m4.06,80.43c0-7.02,5.4-12.08,12.14-12.08s12.12,5.06,12.12,12.08-5.4,12.08-12.12,12.08c-6.74,0-12.14-5.04-12.14-12.08m20.51,0c0-5.02-3.47-8.78-8.38-8.78s-8.4,3.76-8.4,8.78,3.49,8.78,8.4,8.78c4.91.02,8.38-3.76,8.38-8.78"/>
    <path class="cls-6" d="m28.12,68.67h3.85l4.15,12.52c.45,1.32.89,3.36.89,3.36,0,0,.6-2,1.15-3.36l5.4-12.78h.45l5.44,12.78c.55,1.32,1.11,3.36,1.11,3.36,0,0,.49-2.04.94-3.36l4.15-12.52h3.57l-8.12,23.77h-.45l-5.85-14.01c-.49-1.15-.98-2.87-.98-2.87,0,0-.55,1.72-1.04,2.87l-6,14.01h-.45l-8.21-23.77Z"/>
    <path class="cls-6" d="m66.64,78.47c-.94-1-2.21-2.64-2.21-2.64,0,0,.23,1.93.23,3.38v12.97h-3.38v-23.75h.49l12.97,13.95c.89.98,2.19,2.64,2.19,2.64,0,0-.23-2.08-.23-3.38v-12.95h3.4v23.77h-.45l-13.01-13.99Z"/>
    <polygon class="cls-6" points="84.01 68.67 98.96 68.67 98.96 71.88 87.69 71.88 87.69 81.03 97.68 81.03 97.68 84.17 87.69 84.17 87.69 88.98 99.45 88.98 99.45 92.21 84.01 92.21 84.01 68.67"/>
    <path class="cls-6" d="m102.59,68.67h6.46c7.55,0,12.56,4.7,12.56,11.76s-4.97,11.76-12.56,11.76h-6.46v-23.51h0Zm6.23,20.3c6.12,0,8.99-3.53,8.99-8.55s-2.87-8.55-8.99-8.55h-2.55v17.09h2.55Z"/>
    <path class="cls-6" d="m125.53,41.63v.55h-1.08v2.83h-.68v-2.83h-1.06v-.55h2.83Zm3.64,3.38l-.13-2c-.02-.26-.02-.57-.02-.94h-.02c-.09.3-.19.7-.28,1l-.62,1.87h-.7l-.62-1.93c-.06-.26-.17-.66-.23-.96h-.04c0,.32-.02.64-.02.94l-.13,2h-.64l.26-3.38h1l.57,1.66c.09.26.13.51.23.85h.02c.09-.3.17-.6.23-.83l.57-1.68h.98l.26,3.38-.68.02h0Z"/>
  </g>
</svg>