<?xml version="1.0" encoding="UTF-8"?>
<svg id="Layer_1" xmlns="http://www.w3.org/2000/svg" version="1.1" viewBox="0 0 500 500">
  <!-- Generator: Adobe Illustrator 29.5.1, SVG Export Plug-In . SVG Version: 2.1.0 Build 141)  -->
  <defs>
    <style>
      .st0 {
        fill: none;
      }

      .st1 {
        fill: #0060aa;
        fill-rule: evenodd;
      }
    </style>
  </defs>
  <rect class="st0" x="29.45" y="29.34" width="441.1" height="441.1"/>
  <path class="st1" d="M322.1,223.44c1.22,0,2.37,0,3.59.22,1.22.14,2.37.29,3.52.5s2.37.5,3.45.86c1.15.36,2.3.79,3.38,1.22,1.08.43,2.16,1.01,3.24,1.51,1.08.58,2.08,1.15,3.09,1.87,1.01.65,1.94,1.37,2.88,2.16s1.8,1.58,2.66,2.44,1.65,1.73,2.44,2.66,1.44,1.87,2.16,2.88c.65,1.01,1.29,2.01,1.87,3.09s1.08,2.16,1.51,3.24c.43,1.08.86,2.23,1.22,3.38.36,1.15.65,2.3.86,3.45s.43,2.37.5,3.52c.14,1.22.22,2.37.22,3.59v78.21c0,1.22,0,2.37-.22,3.59-.14,1.22-.29,2.37-.58,3.52-.22,1.15-.5,2.3-.86,3.45s-.79,2.23-1.22,3.38-1.01,2.16-1.51,3.24c-.58,1.08-1.22,2.08-1.87,3.09-.65,1.01-1.37,1.94-2.16,2.88s-1.58,1.8-2.44,2.66-1.73,1.65-2.66,2.37c-.93.79-1.87,1.44-2.88,2.16-1.01.65-2.01,1.29-3.09,1.87-1.08.58-2.16,1.08-3.24,1.51-1.08.43-2.23.86-3.38,1.22-1.15.36-2.3.65-3.45.86s-2.37.43-3.52.5c-1.22.14-2.37.22-3.59.22s-2.37,0-3.59-.22c-1.22-.14-2.37-.29-3.52-.5s-2.3-.5-3.45-.86-2.3-.72-3.38-1.22c-1.08-.43-2.16-1.01-3.24-1.51-1.08-.58-2.08-1.15-3.09-1.87s-1.94-1.37-2.88-2.16-1.8-1.58-2.66-2.37c-.86-.86-1.65-1.73-2.44-2.66s-1.44-1.87-2.16-2.88c-.65-1.01-1.29-2.01-1.87-3.09s-1.08-2.16-1.58-3.24c-.43-1.08-.86-2.23-1.22-3.38-.36-1.15-.65-2.3-.86-3.45s-.43-2.37-.58-3.52c-.14-1.22-.22-2.37-.22-3.59v-78.21c0-1.22,0-2.37.22-3.59.14-1.22.29-2.37.5-3.52s.5-2.3.86-3.45.79-2.3,1.22-3.38c.43-1.08,1.01-2.16,1.51-3.24.58-1.08,1.22-2.08,1.87-3.09.65-1.01,1.37-1.94,2.16-2.88s1.58-1.8,2.44-2.66,1.73-1.65,2.66-2.44,1.87-1.44,2.88-2.16c1.01-.65,2.01-1.29,3.09-1.87,1.08-.58,2.16-1.08,3.24-1.51,1.08-.43,2.23-.86,3.38-1.22,1.15-.36,2.3-.65,3.45-.86s2.37-.43,3.52-.5c1.22-.14,2.37-.22,3.59-.22h.22ZM422.82,280.73c-.58-.58-1.08-1.29-1.37-2.08-.29-.79-.5-1.58-.5-2.44s.14-1.65.5-2.44c.29-.79.79-1.44,1.37-2.08s1.29-1.08,2.08-1.37c.79-.36,1.58-.5,2.44-.5s1.65.14,2.44.5c.79.36,1.44.79,2.08,1.37.93.86,1.73,1.87,2.59,2.8.79,1.01,1.58,2.01,2.23,3.09.72,1.08,1.37,2.16,1.94,3.24.58,1.15,1.15,2.23,1.65,3.45.5,1.15.93,2.37,1.29,3.59s.65,2.44.93,3.67c.22,1.22.43,2.52.58,3.74.14,1.29.22,2.52.22,3.81s0,2.52-.22,3.81c-.14,1.22-.29,2.52-.58,3.74-.22,1.22-.58,2.44-.93,3.67-.36,1.22-.79,2.37-1.29,3.59-.5,1.15-1.01,2.3-1.65,3.45-.58,1.08-1.22,2.23-1.94,3.24-.72,1.08-1.44,2.08-2.23,3.09-.79,1.01-1.65,1.94-2.59,2.8-.58.58-1.29,1.08-2.08,1.37-.79.36-1.58.5-2.44.5s-1.65-.14-2.44-.5c-.79-.36-1.44-.79-2.08-1.37s-1.08-1.29-1.37-2.08c-.29-.79-.5-1.58-.5-2.44s.14-1.65.5-2.44c.29-.79.79-1.44,1.37-2.08,1.22-1.22,2.3-2.52,3.24-3.95s1.73-2.95,2.44-4.53c.65-1.58,1.15-3.24,1.51-4.89.36-1.65.5-3.38.5-5.1s-.14-3.38-.5-5.1c-.36-1.65-.79-3.31-1.51-4.89-.65-1.58-1.44-3.09-2.44-4.53-.93-1.44-2.01-2.73-3.24-3.95v.29ZM217.08,311.86c1.15,2.08,2.66,4.03,4.31,5.75.58.58,1.08,1.29,1.37,2.08.36.79.5,1.58.5,2.44s-.14,1.65-.5,2.44-.79,1.44-1.37,2.08-1.29,1.08-2.08,1.37-1.58.5-2.44.5-1.65-.14-2.44-.5c-.79-.29-1.44-.79-2.08-1.37-4.24-4.17-7.26-9.06-9.2-14.74h13.87l.07-.07ZM187.89,311.86h-13.01c1.22,6.47,3.45,12.58,6.54,18.4,3.09,5.82,6.97,11.07,11.65,15.67.58.58,1.29,1.08,2.08,1.37.79.36,1.58.5,2.44.5s1.65-.14,2.44-.5c.79-.29,1.44-.79,2.08-1.37s1.08-1.29,1.37-2.08.5-1.58.5-2.44-.14-1.65-.5-2.44-.79-1.44-1.37-2.08c-3.45-3.45-6.4-7.33-8.84-11.57-2.44-4.24-4.17-8.77-5.32-13.51h0l-.07.07ZM442.15,261.39c1.22,1.22,2.44,2.52,3.52,3.88,1.08,1.37,2.16,2.73,3.09,4.24s1.87,2.95,2.73,4.53c.79,1.51,1.58,3.09,2.23,4.74.65,1.65,1.29,3.24,1.8,4.96s.93,3.38,1.29,5.1.58,3.45.79,5.18c.14,1.73.29,3.52.29,5.25s-.07,3.52-.29,5.25c-.14,1.73-.43,3.45-.79,5.18s-.79,3.45-1.29,5.1c-.5,1.65-1.08,3.31-1.8,4.96-.65,1.65-1.44,3.16-2.23,4.74-.79,1.51-1.73,3.02-2.73,4.53-1.01,1.44-2.01,2.88-3.09,4.24-1.08,1.37-2.3,2.66-3.52,3.88-.58.58-1.08,1.29-1.37,2.08-.29.79-.5,1.58-.5,2.44s.14,1.65.5,2.44c.36.79.79,1.44,1.37,2.08.58.58,1.29,1.08,2.08,1.37.79.36,1.58.5,2.44.5s1.65-.14,2.44-.5c.79-.29,1.44-.79,2.08-1.37,1.51-1.51,3.02-3.16,4.39-4.82,1.37-1.65,2.66-3.45,3.88-5.25s2.3-3.67,3.31-5.54,1.94-3.88,2.8-5.89c.86-2.01,1.58-4.03,2.16-6.11.65-2.08,1.15-4.17,1.58-6.33s.72-4.24.93-6.4c.22-2.16.29-4.31.29-6.47s-.07-4.31-.29-6.47-.5-4.31-.93-6.4c-.43-2.16-.93-4.24-1.58-6.33-.65-2.08-1.37-4.1-2.16-6.11s-1.73-3.95-2.8-5.89-2.16-3.74-3.31-5.54c-1.22-1.8-2.52-3.52-3.88-5.18s-2.8-3.31-4.39-4.82c-.58-.58-1.29-1.08-2.08-1.37-.79-.29-1.58-.5-2.44-.5s-1.65.14-2.44.5c-.79.36-1.44.79-2.08,1.37s-1.08,1.29-1.37,2.08c-.29.79-.5,1.58-.5,2.44s.14,1.65.5,2.44c.36.79.79,1.44,1.37,2.08h0v-.36ZM33.98,29.34c-.58,0-1.15.14-1.73.36s-1.08.58-1.44,1.01c-.43.43-.72.93-1.01,1.44-.22.58-.36,1.15-.36,1.73v260.74c0,.58.14,1.15.36,1.73s.58,1.01,1.01,1.44c.43.43.93.72,1.44,1.01.58.22,1.15.36,1.73.36h139.75c0-4.31.43-8.63,1.22-12.94.86-4.24,2.08-8.41,3.74-12.44,1.65-4.03,3.67-7.84,6.11-11.43,2.44-3.59,5.18-6.97,8.27-9.99.58-.58,1.29-1.08,2.08-1.37.79-.36,1.58-.5,2.44-.5s1.65.14,2.44.5c.79.29,1.44.79,2.08,1.37s1.08,1.29,1.37,2.08c.29.79.5,1.58.5,2.44s-.14,1.65-.5,2.44-.79,1.44-1.37,2.08c-2.52,2.44-4.67,5.18-6.69,8.12-2.01,2.95-3.59,5.97-4.96,9.27-1.37,3.24-2.37,6.61-3.02,10.06-.65,3.45-1.01,6.9-1.01,10.42h14.74c0-5.1,1.01-10.06,2.95-14.81,1.94-4.74,4.74-8.91,8.41-12.58.58-.58,1.29-1.08,2.08-1.37.79-.29,1.58-.5,2.44-.5s1.65.14,2.44.5c.79.36,1.44.79,2.08,1.37.58.58,1.08,1.29,1.37,2.08.36.79.5,1.58.5,2.44s-.14,1.65-.5,2.44-.79,1.44-1.37,2.08c-2.44,2.44-4.31,5.25-5.68,8.41-1.29,3.16-2.01,6.54-1.94,9.99h25.45c0-1.22.14-2.52.36-3.74.22-1.22.65-2.44,1.08-3.59.5-1.15,1.08-2.23,1.73-3.31.72-1.01,1.51-2.01,2.37-2.88s1.87-1.65,2.88-2.37c1.01-.72,2.16-1.29,3.31-1.8s2.37-.86,3.59-1.08,2.44-.36,3.74-.36h14.52v-20.06c0-1.65.07-3.24.22-4.82s.43-3.16.72-4.74.72-3.16,1.15-4.67c.5-1.58,1.01-3.09,1.65-4.53s1.29-2.95,2.08-4.39c.79-1.44,1.58-2.8,2.52-4.17.93-1.37,1.87-2.66,2.88-3.88,1.01-1.22,2.08-2.44,3.24-3.59s2.3-2.23,3.59-3.24,2.52-2.01,3.88-2.88,2.73-1.73,4.17-2.52c1.44-.79,2.88-1.44,4.39-2.08s3.02-1.15,4.53-1.65,3.09-.86,4.67-1.15,3.16-.58,4.82-.72c1.58-.14,3.24-.22,4.82-.22,6.4,0,12.58,1.22,18.48,3.59V34.09c0-.58-.14-1.15-.36-1.73s-.58-1.01-1.01-1.44-.93-.79-1.44-1.01c-.58-.22-1.15-.36-1.73-.36H34.19l-.22-.22ZM392.27,299.21c0-.86-.14-1.65-.5-2.44-.36-.79-.79-1.44-1.37-2.08s-1.29-1.08-2.08-1.37c-.79-.36-1.58-.5-2.44-.5h-14.52v12.65h8.12v32.78c0,1.87-.07,3.74-.29,5.61-.22,1.87-.43,3.74-.79,5.61s-.79,3.67-1.37,5.46c-.58,1.8-1.15,3.59-1.87,5.32s-1.51,3.45-2.44,5.1c-.86,1.65-1.87,3.31-2.88,4.82-1.08,1.58-2.16,3.09-3.38,4.53s-2.44,2.88-3.81,4.17c-1.29,1.37-2.73,2.59-4.17,3.81s-2.95,2.3-4.53,3.38-3.16,2.01-4.82,2.88-3.38,1.73-5.1,2.44c-1.73.72-3.52,1.37-5.32,1.87-1.8.58-3.59,1.01-5.46,1.37s-3.67.65-5.61.86c-1.87.22-3.74.29-5.61.29s-3.74-.07-5.61-.29-3.74-.43-5.61-.86c-1.87-.36-3.67-.79-5.46-1.37-1.8-.58-3.59-1.15-5.32-1.87-1.73-.72-3.45-1.51-5.1-2.44s-3.31-1.87-4.82-2.88c-1.58-1.01-3.09-2.16-4.53-3.38-1.44-1.22-2.88-2.44-4.17-3.81s-2.59-2.73-3.81-4.17c-1.22-1.44-2.3-2.95-3.38-4.53s-2.01-3.16-2.88-4.82c-.86-1.65-1.73-3.38-2.44-5.1s-1.37-3.52-1.87-5.32c-.58-1.8-1.01-3.59-1.37-5.46s-.65-3.67-.86-5.61c-.22-1.87-.29-3.74-.29-5.61v-32.78h8.12v-12.65h-14.52c-.86,0-1.65.14-2.44.5-.79.29-1.44.79-2.08,1.37s-1.08,1.29-1.37,2.08c-.29.79-.5,1.58-.5,2.44v39.11c0,2.16.14,4.31.29,6.47.22,2.16.5,4.31.93,6.4.43,2.16.86,4.24,1.51,6.33.58,2.08,1.29,4.1,2.08,6.18s1.65,4.03,2.66,5.97c1.01,1.94,2.01,3.81,3.16,5.68s2.37,3.59,3.67,5.32c1.29,1.73,2.66,3.38,4.17,4.96,1.44,1.58,3.02,3.09,4.6,4.6,1.58,1.44,3.24,2.88,4.96,4.17s3.52,2.52,5.32,3.67c1.87,1.15,3.74,2.16,5.68,3.16,1.94.93,3.88,1.87,5.97,2.59,2.01.79,4.1,1.44,6.18,2.08s4.17,1.08,6.33,1.51c2.16.43,4.24.72,6.4.86v49.6h-10.78c-.86,0-1.65.14-2.44.5-.79.36-1.44.79-2.08,1.37s-1.08,1.29-1.37,2.08-.5,1.58-.5,2.44.14,1.65.5,2.44c.29.79.79,1.44,1.37,2.08.58.58,1.29,1.08,2.08,1.37.79.29,1.58.5,2.44.5h34.29c.86,0,1.65-.14,2.44-.5s1.44-.79,2.08-1.37c.58-.58,1.08-1.29,1.37-2.08.36-.79.5-1.58.5-2.44s-.14-1.65-.5-2.44c-.29-.79-.79-1.44-1.37-2.08s-1.29-1.08-2.08-1.37c-.79-.29-1.58-.5-2.44-.5h-10.86v-49.6c2.16-.22,4.31-.5,6.4-.86s4.24-.86,6.33-1.51,4.1-1.29,6.18-2.08c2.01-.79,4.03-1.65,5.97-2.59s3.81-2.01,5.68-3.16c1.87-1.15,3.59-2.37,5.32-3.67s3.38-2.66,4.96-4.17,3.16-2.95,4.6-4.6c1.44-1.58,2.88-3.24,4.17-4.96s2.52-3.52,3.67-5.32c1.15-1.87,2.23-3.74,3.16-5.68s1.87-3.88,2.66-5.97,1.51-4.1,2.08-6.18c.58-2.08,1.08-4.17,1.51-6.33.43-2.16.72-4.24.93-6.4.22-2.16.29-4.31.29-6.47v-39.11h.07ZM204.06,168.23l-29.98,17.32c-.72.43-1.44.58-2.23.65-.79,0-1.58-.22-2.3-.65s-1.22-.93-1.65-1.65-.65-1.44-.58-2.23v-34.65c0-.79.22-1.58.58-2.23s.93-1.22,1.65-1.65,1.44-.58,2.3-.58,1.58.22,2.23.65l29.98,17.32c.72.43,1.22.93,1.65,1.65s.65,1.44.65,2.23-.22,1.58-.65,2.23c-.43.72-.93,1.22-1.65,1.65v-.07ZM185.01,95.48c2.23,0,4.53.14,6.76.36s4.46.58,6.69,1.01c2.23.43,4.39,1.01,6.54,1.65,2.16.65,4.31,1.44,6.33,2.3,2.08.86,4.1,1.8,6.11,2.88s3.88,2.23,5.82,3.45c1.87,1.22,3.67,2.59,5.39,4.03s3.38,2.95,5.03,4.53c1.58,1.58,3.09,3.24,4.53,5.03,1.44,1.73,2.8,3.52,4.03,5.39,1.22,1.87,2.44,3.81,3.45,5.82,1.08,2.01,2.01,4.03,2.88,6.11s1.65,4.17,2.3,6.33c.65,2.16,1.22,4.31,1.65,6.54s.79,4.46,1.01,6.69c.22,2.23.36,4.46.36,6.76s-.14,4.53-.36,6.76-.58,4.46-1.01,6.69c-.43,2.23-1.01,4.39-1.65,6.54-.65,2.16-1.44,4.31-2.3,6.33-.86,2.08-1.8,4.1-2.88,6.11-1.08,2.01-2.23,3.88-3.45,5.82-1.22,1.87-2.59,3.67-4.03,5.39s-2.95,3.38-4.53,5.03c-1.58,1.65-3.24,3.09-5.03,4.53-1.73,1.44-3.52,2.8-5.39,4.03-1.87,1.22-3.81,2.44-5.82,3.45-2.01,1.08-4.03,2.01-6.11,2.88s-4.17,1.65-6.33,2.3c-2.16.65-4.31,1.22-6.54,1.65s-4.46.79-6.69,1.01c-2.23.22-4.46.36-6.76.36s-4.53-.07-6.76-.36c-2.23-.22-4.46-.58-6.69-1.01-2.23-.43-4.39-1.01-6.54-1.65-2.16-.65-4.24-1.44-6.33-2.3s-4.1-1.8-6.11-2.88-3.88-2.23-5.75-3.45c-1.87-1.22-3.67-2.59-5.46-4.03-1.73-1.44-3.38-2.95-5.03-4.53s-3.09-3.24-4.53-5.03c-1.44-1.73-2.8-3.52-4.03-5.39-1.22-1.87-2.44-3.81-3.45-5.82-1.08-2.01-2.01-4.03-2.88-6.11-.86-2.08-1.65-4.17-2.3-6.33-.65-2.16-1.22-4.31-1.65-6.54-.43-2.23-.79-4.46-1.01-6.69-.22-2.23-.36-4.53-.36-6.76s.14-4.53.36-6.76c.22-2.23.58-4.46,1.01-6.69.43-2.23,1.01-4.39,1.65-6.54.65-2.16,1.44-4.31,2.3-6.33.86-2.08,1.8-4.1,2.88-6.11,1.08-2.01,2.23-3.88,3.45-5.82,1.22-1.87,2.59-3.67,4.03-5.39s2.95-3.38,4.53-5.03c1.58-1.58,3.24-3.09,5.03-4.53,1.73-1.44,3.52-2.8,5.46-4.03,1.87-1.22,3.81-2.44,5.75-3.45,2.01-1.08,4.03-2.01,6.11-2.88s4.17-1.65,6.33-2.3c2.16-.65,4.31-1.22,6.54-1.65s4.46-.79,6.69-1.01c2.23-.22,4.53-.36,6.76-.36Z"/>
</svg>