<?xml version="1.0" encoding="UTF-8"?>
<svg id="Layer_1" xmlns="http://www.w3.org/2000/svg" version="1.1" viewBox="0 0 500 500">
  <!-- Generator: Adobe Illustrator 29.5.1, SVG Export Plug-In . SVG Version: 2.1.0 Build 141)  -->
  <defs>
    <style>
      .st0 {
        fill: none;
      }

      .st1 {
        fill: #0060aa;
      }
    </style>
  </defs>
  <rect class="st0" x="65.89" y="64.93" width="368.3" height="370.14"/>
  <path class="st1" d="M148.59,65.85c-1.39.2-2.37,1.06-2.7,2.24l-3.5,13.06h-9.1c-20.45,0-36.8,16.49-36.8,36.8v101.18c0,10.22,8.31,18.34,18.4,18.34,3.23,0,6.13,2.64,6.13,6.13v49.07c0,3.5-2.84,6.13-6.13,6.13h-6.73c-2.9-17.35-18.01-30.67-36.28-30.67-3.36,0-6.07,2.77-6.07,6.13v153.21c0,3.36,2.7,6.13,6.07,6.13,20.25,0,36.8-16.49,36.8-36.8v-12.27h44.52c-4.88-6.99-7.72-15.43-7.72-24.54s2.9-17.54,7.78-24.54h-44.52v-24.47h6.13c10.09,0,18.4-8.18,18.4-18.4v-49.07c0-10.09-8.18-18.34-18.4-18.34-3.3,0-6.13-2.64-6.13-6.07v-101.18c0-13.72,11.21-26.84,24.54-24.54h5.8l-9.04,33.9c-.46,1.65.53,3.3,2.18,3.76l59.23,15.9c.46.13.92.13,1.39,0l26.12-5.34,141.41,37.86c.79.2,1.58.07,2.31-.33l60.09-34.69c2.37-1.39,1.91-4.95-.79-5.61L149.58,65.85s-.59-.13-1.06-.07l.07.07ZM135.01,144.47l-11.94,44.45c-.86,3.23,1.06,6.6,4.35,7.52l17.81,4.75-4.81,17.81c-.86,3.23,1.06,6.6,4.35,7.45l106.58,28.56c3.3.92,6.66-1.06,7.52-4.29l4.75-17.74,60.68,16.23,22.1-60.75-127.82-34.23-23.35,4.75c-2.37.46-4.75.4-7.06-.2l-53.29-14.31h.13ZM382.34,182.13l-13.45,7.78c-3.17,1.85-6.93,2.37-10.55,1.71l-22.1,60.81,4.42,1.19c22.82,6.13,46.43-7.52,52.57-30.34,4.02-15.17-.59-30.6-10.88-41.16h0ZM323.31,191.56c.59,0,1.12,0,1.65.2,3.23.86,5.21,4.22,4.35,7.52-.92,3.3-4.22,5.21-7.52,4.35-3.23-.86-5.21-4.22-4.35-7.52.73-2.64,3.1-4.48,5.87-4.55ZM428.64,200.93c-.79-.13-1.71-.07-2.64.13l-11.87,3.17c-7.91,2.18-4.75,13.85,3.17,11.87l11.87-3.23c7.12-2.18,5.21-11.15-.53-12v.07ZM414.13,229.42c-5.8.99-7.19,9.76-.46,11.94l11.87,3.17c7.91,2.11,11.08-9.76,3.17-11.87l-11.81-3.1c-.99-.2-1.91-.26-2.77-.07v-.07ZM170.09,245.98v75.45c5.61-2.64,11.81-4.16,18.4-4.16,12.07,0,22.89,5.01,30.67,12.93v-71.03l-49.07-13.13v-.07ZM402.59,251.39c-5.47.59-7.52,6.93-3.89,10.49l8.64,8.71c5.8,5.8,14.51-2.9,8.71-8.71l-8.71-8.64c-1.12-1.19-2.57-1.85-4.75-1.85ZM188.5,329.48c-16.95,0-30.67,13.72-30.67,30.67s13.72,30.67,30.67,30.67,30.67-13.72,30.67-30.67-13.72-30.67-30.67-30.67ZM188.5,354.01c3.36,0,6.13,2.77,6.13,6.13s-2.77,6.13-6.13,6.13-6.13-2.77-6.13-6.13,2.77-6.13,6.13-6.13"/>
</svg>