<?xml version="1.0" encoding="UTF-8"?>
<svg id="Layer_1" xmlns="http://www.w3.org/2000/svg" version="1.1" viewBox="0 0 500 500">
  <!-- Generator: Adobe Illustrator 29.5.1, SVG Export Plug-In . SVG Version: 2.1.0 Build 141)  -->
  <defs>
    <style>
      .st0 {
        fill: none;
      }

      .st1 {
        fill: #0060aa;
      }
    </style>
  </defs>
  <path class="st1" d="M233.98,153.92v8.01c0,6.41-1.45,11.67-3.74,16.02h-36.23c-4.42,0-8.01,3.59-8.01,8.01s3.59,8.01,8.01,8.01h111.98c4.42,0,8.01-3.59,8.01-8.01s-3.59-8.01-8.01-8.01h-36.23c-2.36-4.27-3.74-9.61-3.74-16.02v-8.01h-31.96"/>
  <path class="st1" d="M322.01,129.89v-8.01h-144.02v8.01c0,4.42,3.59,8.01,8.01,8.01h128c4.42,0,8.01-3.59,8.01-8.01"/>
  <rect class="st0" x="177.53" y="25.92" width="149.36" height="81.7"/>
  <path class="st1" d="M322.01,33.93c0-4.42-3.59-8.01-8.01-8.01h-128c-4.42,0-8.01,3.59-8.01,8.01v72.01h20.98l69.72-61.94c3.28-2.98,8.31-2.67,11.29.61,2.9,3.28,2.67,8.39-.69,11.29l-56.3,50.04h98.94V33.93"/>
  <rect class="st0" x="406.53" y="177.26" width="67.51" height="19.91"/>
  <path class="st1" d="M466.03,177.95h-47.98c-4.42,0-8.01,3.59-8.01,8.01v8.01h64v-8.01c0-4.42-3.59-8.01-8.01-8.01"/>
  <rect class="st0" x="406.53" y="271.85" width="67.51" height="19.91"/>
  <path class="st1" d="M409.96,281.92c0,4.42,3.59,8.01,8.01,8.01h47.98c4.42,0,8.01-3.59,8.01-8.01v-8.01h-64v8.01"/>
  <rect class="st0" x="406.53" y="207.17" width="67.51" height="54.77"/>
  <path class="st1" d="M409.96,257.97h64v-47.98h-64v47.98"/>
  <rect class="st0" x="25.96" y="271.85" width="131.59" height="19.91"/>
  <path class="st1" d="M153.96,281.92c0-4.42-3.59-8.01-8.01-8.01H33.97c-4.42,0-8.01,3.59-8.01,8.01v8.01h128v-8.01"/>
  <path class="st1" d="M79.59,257.97h58.43v-55.99c0-4.42-3.59-8.01-8.01-8.01H49.99c-4.42,0-8.01,3.59-8.01,8.01v55.99h13.04l53.78-46.07c3.36-2.9,8.39-2.52,11.29.84,2.9,3.36,2.52,8.39-.84,11.29l-39.59,33.95"/>
  <rect class="st0" x="92.86" y="207.17" width="343.5" height="266.76"/>
  <path class="st1" d="M429.95,327.39s-.31-.53-.46-.84c-.31-.69-.61-1.3-1.07-1.83h0c-.61-.69-1.37-1.22-2.14-1.68-.08,0-.15-.15-.23-.15-.76-.38-1.53-.53-2.36-.69-.23,0-.38-.15-.61-.15h0c-1.07-.08-2.14,0-3.13.38h0l-10.68,3.59c-4.2,1.45-6.41,5.95-5.03,10.15.69,2.06,2.14,3.59,3.97,4.5l-20.67,41.12c-10.45-21.13-32.19-35.78-57.36-35.78-10.37,0-20.21,2.36-29.37,7.09-1.22.61-2.44.92-3.66.92-2.9,0-5.72-1.6-7.17-4.35-2.06-3.89-.46-8.77,3.43-10.76,5.64-2.9,11.75-5.19,18-6.64-11.59-18.84-31.2-31.28-53.32-33.72v-64.53c2.06,0,4.12-.76,5.64-2.36,3.13-3.13,3.13-8.16,0-11.29l-8.01-8.01c-.76-.69-1.6-1.3-2.59-1.75-1.98-.84-4.2-.84-6.1,0-.99.38-1.83.99-2.59,1.75l-8.01,8.01c-3.13,3.13-3.13,8.16,0,11.29,1.6,1.53,3.59,2.36,5.64,2.36v64.53c-28.3,3.2-52.25,22.96-60.72,50.12,5.8,1.6,11.52,3.97,16.71,7.02,3.81,2.21,5.11,7.09,2.9,10.91-1.53,2.59-4.2,4.04-6.94,4.04-1.37,0-2.75-.38-4.04-1.14-6.18-3.59-13.04-5.8-20.06-6.87-2.67-.38-5.26-.61-8.01-.61-9.99,0-19.3,2.67-27.46,7.25l-14.26-28.53c1.83-.92,3.36-2.44,4.04-4.5,1.37-4.2-.84-8.7-5.03-10.15l-10.68-3.59h0c-.99-.38-1.98-.53-3.05-.38-2.14.15-4.12,1.14-5.49,2.75-.61.69-.99,1.45-1.3,2.29,0,.15-.23.23-.23.38h0l-3.59,10.76c-1.37,4.12.84,8.7,5.03,10.15.84.31,1.75.38,2.59.38,1.22,0,2.44-.38,3.51-.92l15.71,31.43c-9.69,10.07-15.71,23.72-15.71,38.75,0,30.89,25.1,55.99,55.99,55.99h168.05c35.24,0,64-28.76,64-64,0-1.83-.15-3.66-.31-5.42l28.68-56.83c1.14.53,2.29.99,3.59.99.84,0,1.68-.15,2.59-.38,4.2-1.37,6.41-5.95,5.03-10.15l-3.59-10.76"/>
</svg>