<?xml version="1.0" encoding="UTF-8"?>
<svg id="Layer_1" xmlns="http://www.w3.org/2000/svg" version="1.1" viewBox="0 0 500 500">
  <!-- Generator: Adobe Illustrator 29.5.1, SVG Export Plug-In . SVG Version: 2.1.0 Build 141)  -->
  <defs>
    <style>
      .st0 {
        fill: none;
      }

      .st1 {
        fill: #0060aa;
      }
    </style>
  </defs>
  <path class="st1" d="M192.64,236.16h77.41c11.11,0,20.19-9.07,20.19-20.19v-50.28c0-11.11-9.07-20.19-20.19-20.19h-113.15c-11.11,0-20.19,9.07-20.19,20.19v50.28c0,11.11,9.07,20.19,20.19,20.19,1.39,0,2.59.74,3.33,1.85.74,1.2.74,2.59.09,3.8l-7.96,15.46,38.43-20.65c.56-.28,1.2-.46,1.85-.46h0ZM160.23,166.89h106.39c2.13,0,3.89,1.76,3.89,3.89s-1.76,3.89-3.89,3.89h-106.39c-2.13,0-3.89-1.76-3.89-3.89s1.76-3.89,3.89-3.89ZM160.23,211.34c-2.13,0-3.89-1.76-3.89-3.89s1.76-3.89,3.89-3.89h106.39c2.13,0,3.89,1.76,3.89,3.89s-1.76,3.89-3.89,3.89h-106.39Z"/>
  <path class="st1" d="M230.05,350.88h113.15c11.11,0,20.19-9.07,20.19-20.19v-50.28c0-11.11-9.07-20.19-20.19-20.19-1.39,0-2.59-.74-3.33-1.85-.74-1.2-.74-2.59-.09-3.8l7.96-15.46-38.43,20.65c-.56.28-1.2.46-1.85.46h-77.41c-11.11,0-20.19,9.07-20.19,20.19v50.28c0,11.11,9.07,20.19,20.19,20.19h0ZM233.47,283.2h106.39c2.13,0,3.89,1.76,3.89,3.89s-1.76,3.89-3.89,3.89h-106.39c-2.13,0-3.89-1.76-3.89-3.89s1.76-3.89,3.89-3.89ZM233.47,319.86h106.39c2.13,0,3.89,1.76,3.89,3.89s-1.76,3.89-3.89,3.89h-106.39c-2.13,0-3.89-1.76-3.89-3.89s1.76-3.89,3.89-3.89Z"/>
  <rect class="st0" x="28.65" y="7.44" width="272.51" height="300.2"/>
  <path class="st1" d="M30.13,250.05c0,19.07,2.59,37.87,7.41,55.93,9.63-10.09,21.48-17.96,34.91-22.87-2.04-10.83-3.15-21.95-3.15-33.15,0-42.22,15.09-83.24,42.5-115.38,27.13-31.85,64.54-53.15,105.38-60.19,1.11-.19,2.31.09,3.15.83s1.39,1.85,1.39,2.96v15.56c0,1.3.19,3.33,1.76,3.33.74,0,1.57-.28,2.59-.83l71.76-41.48c1.67-.93,2.22-1.94,2.22-2.5s-.56-1.57-2.22-2.5L226.06,8.28c-.93-.56-1.85-.83-2.59-.83-1.48,0-1.76,2.13-1.76,3.33v20c0,1.94-1.48,3.61-3.43,3.89C111.06,49.02,30.13,141.62,30.13,250.05h0Z"/>
  <rect class="st0" x="193.28" y="185.51" width="272.51" height="307.05"/>
  <path class="st1" d="M464.13,250.05c0-21.2-3.15-41.95-8.98-61.85-10.37,8.7-22.5,14.91-35.56,18.24,3.61,14.07,5.46,28.71,5.46,43.61,0,42.22-15.09,83.24-42.5,115.38-27.13,31.85-64.54,53.15-105.38,60.19-1.11.19-2.31-.09-3.15-.83-.93-.74-1.39-1.85-1.39-2.96v-15.56c0-1.3-.28-3.33-1.76-3.33-.74,0-1.57.28-2.59.83l-71.86,41.48c-1.67.93-2.22,1.94-2.22,2.5s.56,1.57,2.22,2.5l71.86,41.48c.93.56,1.85.83,2.59.83.56,0,.83-.19,1.02-.46.46-.56.74-1.57.74-2.87v-20c0-1.94,1.48-3.61,3.43-3.89,107.23-14.35,188.16-106.95,188.16-215.38l-.09.09Z"/>
  <rect class="st0" x="20.22" y="284.86" width="167.32" height="136.21"/>
  <path class="st1" d="M20.22,368.76c0,18.8,6.3,36.76,17.78,51.39l1.11-4.17c4.63-18.33,23.89-33.33,42.87-33.33h.19c1.3,0,2.5.65,3.24,1.76l17.87,26.76,17.87-26.76c.74-1.11,1.94-1.76,3.24-1.76h.19c18.98,0,38.24,15,42.87,33.43l1.11,4.07c11.48-14.63,17.78-32.59,17.78-51.39,0-45.84-37.22-83.15-83.06-83.15s-83.06,37.32-83.06,83.15h0ZM103.28,294.77c20.93,0,33.43,12.96,33.43,34.72,0,24.91-14.63,53.8-33.43,53.8s-33.43-28.89-33.43-53.8c0-21.76,12.5-34.72,33.43-34.72Z"/>
  <path class="st1" d="M162.45,427.18l-2.5-9.07c-3.61-14.35-18.7-26.58-33.43-27.5l-19.91,29.82c-.74,1.11-1.94,1.76-3.24,1.76s-2.5-.65-3.24-1.76l-19.91-29.82c-14.82.93-29.82,13.15-33.43,27.41l-2.5,9.17c15.56,15.83,36.95,24.82,59.17,24.82s43.61-8.98,59.17-24.82h-.19Z"/>
  <path class="st1" d="M128.93,329.49c0-22.22-13.89-26.85-25.56-26.85s-25.56,4.63-25.56,26.85c0,20.28,12.04,45.93,25.56,45.93s25.56-25.74,25.56-45.93Z"/>
  <rect class="st0" x="312.46" y="35.13" width="167.32" height="136.21"/>
  <path class="st1" d="M331.44,169.76l1.11-4.17c4.63-18.33,23.89-33.33,42.87-33.33h.19c1.3,0,2.5.65,3.24,1.76l17.87,26.76,17.87-26.76c.74-1.11,1.94-1.76,3.24-1.76h.19c18.98,0,38.24,15,42.87,33.43l1.11,4.07c11.48-14.63,17.78-32.59,17.78-51.39,0-45.84-37.22-83.15-83.06-83.15s-83.06,37.32-83.06,83.15c0,18.8,6.3,36.76,17.78,51.39h0ZM396.81,44.39c20.93,0,33.43,12.96,33.43,34.72,0,24.91-14.54,53.8-33.43,53.8s-33.43-28.89-33.43-53.8c0-21.76,12.5-34.72,33.43-34.72Z"/>
  <path class="st1" d="M455.89,176.8l-2.5-9.07c-3.61-14.35-18.7-26.58-33.43-27.5l-19.91,29.82c-.74,1.11-1.94,1.76-3.24,1.76s-2.5-.65-3.24-1.76l-19.91-29.82c-14.82.93-29.82,13.15-33.43,27.41l-2.5,9.17c15.56,15.83,36.95,24.82,59.17,24.82s43.61-8.98,59.17-24.82h-.19Z"/>
  <path class="st1" d="M371.16,79.11c0,20.28,12.04,45.93,25.56,45.93s25.56-25.74,25.56-45.93c0-22.22-13.89-26.85-25.56-26.85s-25.56,4.63-25.56,26.85Z"/>
</svg>