<?xml version="1.0" encoding="UTF-8"?>
<svg id="Layer_1" xmlns="http://www.w3.org/2000/svg" version="1.1" viewBox="0 0 500 500">
  <!-- Generator: Adobe Illustrator 29.5.1, SVG Export Plug-In . SVG Version: 2.1.0 Build 141)  -->
  <defs>
    <style>
      .st0 {
        fill: none;
      }

      .st1, .st2 {
        fill-rule: evenodd;
      }

      .st2 {
        fill: #0060aa;
      }
    </style>
  </defs>
  <path class="st1" d="M294.76,236.62c-4.1,0-7.34-3.32-7.34-7.34h0c0-4.18,3.32-7.42,7.34-7.42s7.34,3.32,7.34,7.34h0c0,4.18-3.32,7.42-7.34,7.42Z"/>
  <rect class="st0" x="144.85" y="51.43" width="210.53" height="214.79"/>
  <path class="st2" d="M250,264.09c-.95,0-1.82-.16-2.68-.55-29.37-11.6-54.39-31.5-72.39-57.55-18.47-26.6-28.18-57.86-28.18-90.39,0-20.84,3.95-41.13,11.84-60.23.79-1.89,2.29-3.39,4.18-4.1s4.03-.63,5.84.24c57.63,27.63,110.83,27.63,162.62.16,1.82-.95,4.03-1.11,6-.39,1.97.71,3.55,2.21,4.34,4.1,7.89,19.1,11.84,39.39,11.84,60.23,0,32.52-9.79,63.78-28.18,90.39-18,25.97-43.02,45.94-72.39,57.55-.87.32-1.82.47-2.68.47l-.16.08Z"/>
  <rect class="st0" x="14.13" y="157.29" width="72.62" height="65.36"/>
  <path class="st2" d="M85.49,221.86v-64.49h-42.63c-16.42,0-29.68,13.34-29.68,29.68v34.81h72.31Z"/>
  <path class="st2" d="M100.25,157.45v64.49h8.6c.47-.08.95-.16,1.42-.16s.95,0,1.42.16h56.6c-1.89-2.45-3.71-4.89-5.45-7.5-12.08-17.45-20.76-36.71-25.73-56.99h-36.86Z"/>
  <path class="st2" d="M331.7,221.86h56.6c.47-.08.95-.16,1.42-.16s.95,0,1.42.16h8.6v-64.49h-36.79c-4.97,20.29-13.66,39.55-25.73,56.99-1.74,2.53-3.63,5.05-5.45,7.5h-.08Z"/>
  <rect class="st0" x="413.48" y="157.29" width="72.31" height="65.36"/>
  <path class="st2" d="M414.43,157.45v64.49h72.31v-34.81c0-16.34-13.34-29.68-29.76-29.68h-42.63.08Z"/>
  <rect class="st0" x="396.51" y="234.73" width="89.28" height="62.91"/>
  <path class="st2" d="M397.06,236.62h89.75v59.36h-89.75v-59.36Z"/>
  <path class="st2" d="M382.3,295.91v-59.36h-63.31c-16.42,16.97-36.08,30.55-58.18,39.55v19.73h121.49v.08Z"/>
  <path class="st2" d="M246.05,295.91v-17.45c-1.42-.24-2.92-.71-4.26-1.18-23.13-9.16-43.73-22.97-60.86-40.65h-63.39v59.36h128.51v-.08Z"/>
  <rect class="st0" x="14.13" y="234.73" width="89.6" height="62.91"/>
  <path class="st2" d="M13.18,236.62h89.68v59.36H13.18v-59.36Z"/>
  <rect class="st0" x="14.13" y="309.72" width="118.57" height="60.47"/>
  <path class="st2" d="M13.18,310.67h117.54v59.36H13.18v-59.36Z"/>
  <path class="st2" d="M145.4,310.67h127.41v59.36h-127.41v-59.36Z"/>
  <path class="st2" d="M287.58,310.67h133.64v59.36h-133.64v-59.36Z"/>
  <rect class="st0" x="435.27" y="309.72" width="50.6" height="60.47"/>
  <path class="st2" d="M435.98,310.67h50.84v59.36h-50.84v-59.36Z"/>
  <rect class="st0" x="369.91" y="382.35" width="115.88" height="66.39"/>
  <path class="st2" d="M428.56,384.87c-.47,0-.95,0-1.42-.16h-55.1v64.49h84.94c16.42,0,29.76-13.34,29.76-29.68v-34.81h-56.76c-.47.08-.95.16-1.42.16Z"/>
  <rect class="st0" x="232" y="382.35" width="125.83" height="66.39"/>
  <path class="st2" d="M357.36,449.21v-64.49h-75.7c-.47.08-.95.16-1.42.16s-.95,0-1.42-.16h-45.86v64.49h124.41Z"/>
  <rect class="st0" x="108.54" y="382.35" width="111.3" height="66.39"/>
  <path class="st2" d="M218.27,449.21v-64.49h-78.78c-.47.08-.95.16-1.42.16s-.95,0-1.42-.16h-26.29v64.49h107.91Z"/>
  <rect class="st0" x="14.13" y="382.35" width="82.33" height="66.39"/>
  <path class="st2" d="M95.67,449.21v-64.49H13.18v34.81c0,16.34,13.34,29.68,29.68,29.68h52.81Z"/>
</svg>