<?xml version="1.0" encoding="UTF-8"?>
<svg id="Layer_1" xmlns="http://www.w3.org/2000/svg" version="1.1" viewBox="0 0 500 500">
  <!-- Generator: Adobe Illustrator 29.5.1, SVG Export Plug-In . SVG Version: 2.1.0 Build 141)  -->
  <defs>
    <style>
      .st0 {
        fill: none;
      }

      .st1 {
        fill: #0060aa;
        fill-rule: evenodd;
      }
    </style>
  </defs>
  <rect class="st0" x="37.29" y="37.29" width="425.41" height="425.41"/>
  <path class="st1" d="M173.02,175.14c20.49-3.19,38.39-12.52,52.21-22.38h49.49c13.88,9.92,31.77,19.19,52.21,22.38,4.31.65,7.5,4.37,7.5,8.74v65.97c0,47.6-48.37,87.65-84.46,97.33-36.14-9.69-84.46-49.73-84.46-97.33v-65.97c0-4.37,3.13-8.09,7.5-8.74ZM117.73,292.08c-2.54-6.67-8.98-11.46-16.54-11.46-9.74,0-17.66,7.91-17.66,17.66s7.91,17.66,17.66,17.66c7.56,0,14-4.72,16.54-11.46h53.69c-2.78-4.02-5.26-8.15-7.5-12.4h-46.19,0ZM250.03,256.76c-5.67,0-10.34,4.61-10.34,10.34,0,3.37,1.59,6.32,4.08,8.21v8.92c0,3.43,2.78,6.2,6.2,6.2s6.2-2.78,6.2-6.2v-8.92c2.48-1.89,4.08-4.84,4.08-8.21,0-5.67-4.61-10.34-10.28-10.34h.06ZM207.92,340.51c-4.31-3.01-8.5-6.2-12.4-9.57v51.32c-6.67,2.54-11.46,8.98-11.46,16.54,0,9.74,7.91,17.66,17.66,17.66s17.66-7.91,17.66-17.66c0-7.56-4.72-14-11.46-16.54v-41.76ZM298.28,416.46c9.74,0,17.66-7.91,17.66-17.66,0-7.56-4.72-14-11.46-16.54v-51.32c-3.9,3.37-8.09,6.56-12.4,9.57v41.76c-6.67,2.54-11.46,8.98-11.46,16.54,0,9.74,7.91,17.66,17.66,17.66h0ZM328.58,304.48h53.69c2.54,6.67,8.98,11.46,16.54,11.46,9.74,0,17.66-7.91,17.66-17.66s-7.91-17.66-17.66-17.66c-7.56,0-14,4.78-16.54,11.46h-46.24c-2.24,4.25-4.72,8.39-7.5,12.4h.06ZM83.54,201.66c0-9.74,7.91-17.66,17.66-17.66,7.56,0,14,4.78,16.54,11.46h35.44v12.4h-35.44c-2.54,6.67-8.98,11.46-16.54,11.46-9.74,0-17.66-7.91-17.66-17.66ZM195.52,155.65c4.25-1.89,8.39-4.02,12.4-6.38v-31.6c6.67-2.54,11.46-8.98,11.46-16.54,0-9.74-7.91-17.66-17.66-17.66s-17.66,7.91-17.66,17.66c0,7.56,4.78,14,11.46,16.54v37.98h0ZM37.29,249.97c0-9.74,7.91-17.66,17.66-17.66,7.56,0,14,4.72,16.54,11.46h81.62v6.08c0,2.13.06,4.25.24,6.32h-81.86c-2.48,6.67-8.98,11.46-16.54,11.46-9.74,0-17.66-7.91-17.66-17.66ZM298.28,83.48c-9.74,0-17.66,7.91-17.66,17.66,0,7.56,4.78,14,11.46,16.54v31.6c4.02,2.36,8.15,4.49,12.4,6.38v-37.98c6.67-2.54,11.46-8.98,11.46-16.54,0-9.74-7.91-17.66-17.66-17.66h0ZM346.89,195.46h35.44c2.54-6.67,8.98-11.46,16.54-11.46,9.74,0,17.66,7.91,17.66,17.66s-7.91,17.66-17.66,17.66c-7.56,0-14-4.72-16.54-11.46h-35.44v-12.4ZM250.03,37.29c9.74,0,17.66,7.91,17.66,17.66,0,7.56-4.78,14-11.46,16.54v68.92h-12.4v-68.92c-6.67-2.48-11.46-8.98-11.46-16.54,0-9.74,7.91-17.66,17.66-17.66h0ZM462.71,249.97c0-9.74-7.91-17.66-17.66-17.66-7.56,0-14,4.72-16.54,11.46h-81.62v6.08c0,2.13-.06,4.25-.24,6.32h81.86c2.54,6.67,8.98,11.46,16.54,11.46,9.74,0,17.66-7.91,17.66-17.66h0ZM250.03,462.65c9.74,0,17.66-7.91,17.66-17.66,0-7.56-4.78-14-11.46-16.54v-70.16c-2.07.59-4.13,1.12-6.2,1.71-2.07-.59-4.13-1.06-6.2-1.71v70.16c-6.67,2.54-11.46,8.98-11.46,16.54,0,9.74,7.91,17.66,17.66,17.66ZM217.37,232.49h-6.56c-3.43,0-6.2,2.78-6.2,6.2v35.08c0,24.98,20.43,45.36,45.36,45.36s45.36-20.43,45.36-45.36v-35.08c0-3.43-2.78-6.2-6.2-6.2h-6.56v-19.02c0-17.95-14.71-32.66-32.66-32.66s-32.66,14.65-32.66,32.66v19.02h.12ZM270.23,232.49v-19.02c0-11.1-9.1-20.26-20.2-20.26s-20.2,9.15-20.2,20.26v19.02h40.46-.06Z"/>
</svg>