<?xml version="1.0" encoding="UTF-8"?>
<svg id="Layer_1" xmlns="http://www.w3.org/2000/svg" version="1.1" viewBox="0 0 500 500">
  <!-- Generator: Adobe Illustrator 29.5.1, SVG Export Plug-In . SVG Version: 2.1.0 Build 141)  -->
  <defs>
    <style>
      .st0 {
        fill: none;
      }

      .st1 {
        fill: #0060aa;
      }
    </style>
  </defs>
  <rect class="st0" x="42.69" y="56.09" width="414.62" height="387.82"/>
  <path class="st1" d="M249.97,195.19c2.42,0,4.59.37,6.58,1.05,7.2,2.54,10.67,9.06,11.79,17.5.99,7.32.12,16.25-1.61,25.19-3.23,16.13-9.49,32.57-12.78,38.65-1.18,2.17-3.91,2.98-6.08,1.8-.81-.43-1.43-1.12-1.8-1.86-3.35-6.2-9.55-22.52-12.78-38.59-1.8-8.87-2.67-17.81-1.68-25.19,1.12-8.44,4.65-14.95,11.85-17.5,1.92-.74,4.16-1.05,6.51-1.05h0ZM253.51,204.74c-.93-.31-2.11-.56-3.54-.56s-2.54.19-3.54.56c-3.47,1.24-5.27,5.09-5.96,10.24-.87,6.2,0,14.21,1.61,22.27,1.99,9.93,5.09,19.92,7.88,27.17,2.79-7.26,5.96-17.19,7.88-27.17,1.61-8.07,2.42-16.01,1.61-22.27-.68-5.21-2.48-9-6.02-10.24h.06ZM249.97,287.94c4.47,0,8.5,1.8,11.42,4.72,2.92,2.92,4.72,6.95,4.72,11.42s-1.8,8.5-4.72,11.42-6.95,4.72-11.42,4.72-8.5-1.8-11.42-4.72c-2.92-2.92-4.78-6.95-4.78-11.42s1.8-8.5,4.78-11.42c2.92-2.92,6.95-4.72,11.42-4.72ZM255.06,298.98c-1.3-1.3-3.04-2.11-5.03-2.11s-3.72.81-5.03,2.11-2.11,3.1-2.11,5.09.81,3.78,2.11,5.03c1.3,1.3,3.1,2.11,5.03,2.11s3.78-.81,5.03-2.11c1.3-1.3,2.11-3.1,2.11-5.03s-.81-3.78-2.11-5.09ZM274.1,165.16l84.19,145.92h0c2.61,4.53,3.78,9.31,3.78,13.96,0,4.9-1.3,9.68-3.72,13.9h0c-2.42,4.22-5.89,7.76-10.17,10.24-4.03,2.36-8.75,3.72-13.96,3.72h-168.44c-5.15,0-9.93-1.36-13.96-3.72-.12,0-.19-.12-.25-.12-4.16-2.48-7.57-5.96-9.93-10.05-2.42-4.16-3.78-9-3.78-13.9s1.18-9.43,3.78-13.9l84.25-145.98h0c2.61-4.47,6.14-7.88,10.17-10.24,4.28-2.48,9.12-3.72,13.9-3.72s9.62,1.24,13.96,3.72c.06,0,.19.12.25.19,3.97,2.3,7.38,5.65,9.93,10.05v-.06ZM350.54,315.55l-84.19-145.92c-1.74-2.98-4.03-5.27-6.7-6.82l-.19-.12c-2.85-1.68-6.14-2.48-9.43-2.48s-6.58.87-9.43,2.48c-2.73,1.55-5.09,3.91-6.89,6.95h0l-84.25,145.92c-1.8,3.04-2.54,6.27-2.54,9.43,0,3.35.87,6.58,2.54,9.43,1.61,2.73,3.91,5.15,6.64,6.76.06,0,.12.06.25.12,2.67,1.55,5.89,2.48,9.49,2.48h168.44c3.54,0,6.76-.93,9.43-2.48h0c2.85-1.68,5.21-4.09,6.89-6.89h0c1.61-2.85,2.54-6.08,2.54-9.43,0-3.16-.81-6.39-2.61-9.43h0ZM440.87,248.42c-1.18,2.17-3.91,2.98-6.08,1.8s-2.98-3.91-1.8-6.08c15.26-28.04,18.61-58.07,11.35-85.18-7.26-27.11-25.13-51.37-52.36-68.06-2.11-1.3-2.79-4.03-1.49-6.2,1.3-2.11,4.03-2.79,6.2-1.49,29.28,17.99,48.52,44.17,56.4,73.46,7.82,29.28,4.28,61.61-12.16,91.76h-.06ZM393.22,212.5c-1.18,2.17-3.91,2.98-6.08,1.8s-2.98-3.91-1.8-6.08c6.2-11.48,7.57-23.7,4.65-34.74-2.98-11.04-10.24-20.91-21.4-27.73-2.11-1.3-2.79-4.09-1.49-6.2,1.3-2.11,4.03-2.79,6.2-1.49,13.15,8.07,21.84,19.85,25.37,33.07,3.54,13.21,1.92,27.73-5.46,41.32v.06ZM417.42,228.94c-1.18,2.17-3.91,2.98-6.08,1.8s-2.98-3.91-1.8-6.08c10.42-19.29,12.72-39.83,7.76-58.44-4.96-18.61-17.25-35.24-35.98-46.72-2.11-1.3-2.79-4.09-1.49-6.2,1.3-2.11,4.03-2.79,6.2-1.49,20.72,12.72,34.37,31.27,39.95,52.05,5.52,20.78,3.04,43.68-8.56,65.08ZM67.01,244.14c1.18,2.17.37,4.9-1.8,6.08s-4.9.37-6.08-1.8c-16.38-30.15-19.98-62.54-12.1-91.76,7.82-29.28,27.11-55.46,56.4-73.46,2.11-1.3,4.84-.62,6.14,1.49s.62,4.9-1.49,6.2c-27.24,16.69-45.1,40.95-52.42,68.06-7.26,27.11-3.91,57.14,11.29,85.18h.06ZM114.66,208.22c1.18,2.17.37,4.9-1.8,6.08s-4.9.37-6.08-1.8c-7.38-13.59-9-28.17-5.46-41.32,3.54-13.21,12.22-25,25.37-33.07,2.11-1.3,4.9-.62,6.2,1.49s.62,4.9-1.49,6.2c-11.11,6.82-18.43,16.69-21.4,27.73-2.98,11.04-1.61,23.27,4.65,34.74v-.06ZM90.46,224.66c1.18,2.17.37,4.9-1.8,6.08s-4.9.37-6.08-1.8c-11.6-21.4-14.15-44.3-8.62-65.08,5.52-20.78,19.23-39.33,39.95-52.05,2.11-1.3,4.84-.62,6.2,1.49,1.3,2.11.62,4.84-1.49,6.2-18.74,11.48-30.96,28.1-35.92,46.72-5.03,18.61-2.73,39.21,7.76,58.44h0ZM200.58,101.75c15.51-6.45,32.39-9.62,49.26-9.62s34,3.29,49.57,9.8c-.87-12.22-6.2-23.2-14.39-31.33-8.93-9-21.34-14.52-35.05-14.52s-26.06,5.52-35.05,14.52c-8.13,8.13-13.46,19.05-14.33,31.21v-.06ZM321.94,383.85h-143.87c2.92,16.38,11.29,30.77,23.2,41.44,12.9,11.54,30.03,18.61,48.7,18.61s35.8-7.07,48.76-18.61c11.85-10.61,20.29-25.06,23.2-41.44h0ZM74.64,368.78c2.48,3.6,6.58,6.08,12.16,6.08h326.46c5.58,0,9.68-2.48,12.16-6.08,1.43-2.11,2.36-4.47,2.73-7.01s.12-5.15-.68-7.51c-1.36-4.09-4.65-7.69-9.99-9.18-.12,0-.31-.12-.5-.19-18.05-7.63-31.95-22.09-41.69-43.24-9.43-20.54-14.89-47.59-16.38-81.03v-.68c3.47-54.22-22.15-89.9-56.89-107.02h-.06l-.19-.12c-16.01-7.82-33.94-11.73-51.87-11.73s-35.8,3.91-51.8,11.66c0,0-.06,0-.12.06-34.81,17-60.37,52.61-56.83,107.15v.43c-1.43,33.56-6.89,60.68-16.38,81.27-9.68,21.09-23.51,35.49-41.51,43.12-.25.12-.43.19-.68.25-5.34,1.55-8.62,5.09-9.99,9.18-.81,2.36-.99,4.96-.68,7.51.37,2.54,1.3,4.96,2.73,7.01v.06Z"/>
</svg>