<?xml version="1.0" encoding="UTF-8"?>
<svg id="Layer_1" xmlns="http://www.w3.org/2000/svg" version="1.1" viewBox="0 0 500 500">
  <!-- Generator: Adobe Illustrator 29.5.1, SVG Export Plug-In . SVG Version: 2.1.0 Build 141)  -->
  <defs>
    <style>
      .st0 {
        fill: none;
      }

      .st1 {
        fill: #0060aa;
        fill-rule: evenodd;
      }
    </style>
  </defs>
  <rect class="st0" x="34.17" y="35.85" width="431.67" height="428.29"/>
  <path class="st1" d="M97.12,274.1h-32.73v-29.72c0-40.8,33.46-74.26,74.33-74.26,26.71,0,50.26,14.23,63.4,35.51,5.72,9.25,2.35,17.68-3.96,22.01-7.12,4.84-17.9,4.62-24.07-5.21-7.41-11.74-20.47-19.66-35.37-19.66-22.82,0-41.6,18.78-41.6,41.6v29.79-.07ZM460.26,259.87c-3.67-3.67-8.88-4.7-13.65-2.57-65.38,29.79-111.9,78.44-147.41,128.63-14.16-17.9-33.09-35.07-54.74-52.02-3.52-2.79-8.22-3.16-12.11-.88l-16.07,9.25c-3.01,1.76-4.92,4.55-5.36,8s.66,6.68,3.16,9.1c31.48,30.89,53.78,61.27,71.03,88.42,3.3,5.21,8.81,8.07,14.97,7.78,6.16-.29,11.37-3.52,14.23-9.03,39.84-76.24,87.83-132.3,143.89-168.18,6.53-4.18,7.48-13.21,2.05-18.64v.15ZM205.2,159.64c0-68.24,55.62-123.78,124-123.78s123.93,55.55,123.93,123.78-55.62,123.78-123.93,123.78-124-55.55-124-123.78h0ZM217.53,159.64c0,61.49,50.12,111.53,111.68,111.53s111.75-50.04,111.75-111.53-50.12-111.53-111.75-111.53-111.68,50.04-111.68,111.53h0ZM329.21,258.62c36.54,0,68.53-19.74,85.7-49.16-10.57-34.49-32.95-59.14-85.7-59.14s-75.14,24.58-85.7,59.14c17.17,29.42,49.09,49.16,85.7,49.16ZM329.21,141.22c21.06,0,38.3-17.17,38.3-38.23s-17.17-38.23-38.3-38.23-38.23,17.17-38.23,38.23,17.17,38.23,38.23,38.23ZM241.01,407.43v36.32c0,11.23-9.17,20.32-20.4,20.32H54.56c-11.23,0-20.4-9.17-20.4-20.32v-137.58c0-11.15,9.17-20.32,20.4-20.32h166.05c11.23,0,20.4,9.17,20.4,20.32v13.35c-4.99-.73-10.2.22-14.82,2.86l-16.07,9.25c-6.38,3.67-10.42,9.83-11.37,17.1-.95,7.26,1.54,14.23,6.75,19.37,12.69,12.47,24.51,25.53,35.59,39.18l-.07.15ZM173.21,351.51c0-19.59-15.92-35.51-35.59-35.51s-35.51,15.92-35.51,35.51c0,11.96,5.94,22.97,15.78,29.5v33.17c0,10.86,8.88,19.74,19.81,19.74s19.81-8.88,19.81-19.74v-33.17c9.83-6.53,15.7-17.54,15.7-29.5h0ZM137.63,328.25c-12.84,0-23.26,10.42-23.26,23.26,0,8.66,4.77,16.58,12.47,20.62,1.98,1.03,3.3,3.16,3.3,5.43v36.61c0,4.18,3.38,7.56,7.48,7.56s7.56-3.38,7.56-7.56v-36.61c0-2.27,1.25-4.33,3.3-5.43,7.7-4.04,12.47-11.89,12.47-20.62,0-12.84-10.49-23.26-23.33-23.26Z"/>
</svg>