<?xml version="1.0" encoding="UTF-8"?>
<svg id="Layer_1" xmlns="http://www.w3.org/2000/svg" version="1.1" viewBox="0 0 500 500">
  <!-- Generator: Adobe Illustrator 29.5.1, SVG Export Plug-In . SVG Version: 2.1.0 Build 141)  -->
  <defs>
    <style>
      .st0 {
        fill: none;
      }

      .st1 {
        fill: #0060aa;
      }
    </style>
  </defs>
  <rect class="st0" x="26.02" y="26.02" width="447.97" height="447.97"/>
  <path class="st1" d="M445.4,352.28c8.56-9.45,13.33-21.72,13.33-34.81,0-28.83-23.42-52.17-52.17-52.17-2.5,0-5.01.24-7.43.57v-124.21l7.43,7.43,10.5-10.5-20.19-20.19-5.25-5.25-24.55-24.55c-2.91-2.91-7.67-2.91-10.5,0l-24.55,24.55-25.44,25.44,10.5,10.5,7.43-7.43v35.94c-10.5-10.74-23.18-19.14-37.31-24.55v-70.99l7.43,7.43,10.5-10.5-49.99-49.99c-2.91-2.91-7.67-2.91-10.5,0l-49.99,49.99,10.5,10.5,7.43-7.43v70.99c-14.05,5.41-26.81,13.81-37.31,24.55v-65.74l7.43,7.43,10.5-10.58-20.19-20.19-5.25-5.25-24.55-24.55c-2.91-2.91-7.59-2.91-10.5,0l-29.8,29.8-20.19,20.19,10.5,10.58,7.43-7.43v114.52c-14.05,11.23-22.37,28.27-22.37,46.36,0,9.77,2.34,19.22,6.86,27.7-35.21,12.68-59.03,45.87-59.03,84.07,0,49.34,40.14,89.48,89.48,89.48h290.65c36.99,0,67.11-30.12,67.11-67.11,0-22.05-10.58-42.24-28.27-54.67l.32.08ZM406.55,459.04H115.82c-41.11,0-74.54-33.43-74.54-74.54,0-34.73,23.66-64.53,57.42-72.52,2.5-.57,4.52-2.34,5.33-4.76s.4-5.01-1.13-7.03c-6.22-8-9.45-17.52-9.45-27.46,0-14.62,7.19-28.35,19.22-36.66,1.7-1.21,3.47-2.18,5.25-3.15.65-.32,1.37-.65,1.94-.89,1.21-.57,2.42-1.05,3.63-1.45.81-.24,1.53-.48,2.42-.73,1.21-.32,2.5-.65,3.8-.89.81-.16,1.53-.32,2.26-.4,1.94-.24,3.96-.4,5.98-.4h1.21c2.02,0,3.96.24,5.9.57.73.16,1.45.24,2.18.4,2.34.48,4.6,1.05,6.86,1.94,1.94.81,4.12.65,6.06-.32,1.86-.89,3.23-2.58,3.8-4.6.73-2.58,1.62-5.17,2.58-7.75,2.1-5.33,4.6-10.58,7.75-15.51,11.14-17.77,28.27-31.09,48.13-37.55,17.69-5.73,37.39-5.73,55,0,19.87,6.46,36.99,19.79,48.21,37.55,6.46,10.34,10.66,21.72,12.6,33.92.57,3.63,3.71,6.3,7.35,6.3h1.29c19.14,0,35.05,14.29,37.07,33.27,0,.81.32,1.53.65,2.26.08.24.24.48.32.65.32.57.73,1.05,1.21,1.53.24.24.57.48.89.73.24.16.57.32.81.48.48.24.97.48,1.45.65s1.05.24,1.53.24c.16,0,.32.08.48.08h.4c.57,0,1.13-.08,1.7-.24h.48c4.04-1.45,8.24-2.18,12.44-2.18,20.59,0,37.31,16.72,37.31,37.23,0,11.95-5.57,22.94-15.34,30.12-2.1,1.53-3.23,4.04-2.99,6.62s1.78,4.85,4.12,6.06c17.93,8.88,29.07,26.73,29.07,46.68,0,28.75-23.42,52.17-52.17,52.17l.24-.4Z"/>
  <g>
    <path class="st1" d="M170.09,435.46c-6.38,0-12.11-1.05-17.28-3.23-5.17-2.18-9.21-5.33-12.11-9.61s-4.6-9.45-4.85-15.67h20.35c.08,2.42.73,4.6,1.86,6.46s2.75,3.31,4.76,4.36c2.02,1.05,4.44,1.62,7.11,1.62,2.34,0,4.44-.32,6.14-1.05,1.7-.73,3.15-1.78,4.12-3.15,1.05-1.37,1.53-3.15,1.53-5.25s-.57-4.12-1.7-5.65-2.75-2.91-4.85-4.04c-2.1-1.13-4.44-2.18-7.19-3.15s-5.57-1.94-8.56-2.83c-7.03-2.26-12.44-5.41-16.23-9.29s-5.65-9.13-5.65-15.67c0-5.41,1.37-10.09,4.04-13.97,2.67-3.88,6.38-6.78,10.98-8.8,4.68-2.02,9.93-3.07,15.75-3.07,6.22,0,11.63,1.05,16.23,3.15,4.6,2.1,8.32,5.09,11.06,9.04,2.75,3.96,4.2,8.64,4.36,14.05h-20.59c0-1.86-.48-3.55-1.53-5.09s-2.34-2.75-4.04-3.71c-1.62-.97-3.55-1.37-5.65-1.37-1.94-.08-3.71.16-5.33.81s-2.91,1.62-3.8,2.91c-.97,1.29-1.37,2.99-1.37,4.93s.48,3.47,1.45,4.93c.97,1.37,2.34,2.58,4.04,3.55s3.8,1.86,6.14,2.75c2.34.89,4.85,1.7,7.59,2.58,4.6,1.53,8.72,3.31,12.52,5.41,3.8,2.1,6.78,4.76,9.13,8.16,2.26,3.39,3.47,7.75,3.47,13.33,0,4.85-1.21,9.29-3.71,13.33-2.42,4.04-6.06,7.35-10.82,9.77-4.76,2.42-10.58,3.71-17.44,3.71l.08-.24Z"/>
    <path class="st1" d="M216.53,433.93v-89.08h59.68v15.42h-40.62v21h36.75v14.78h-36.75v22.53h40.62v15.42h-59.68v-.08Z"/>
    <path class="st1" d="M332.82,435.46c-8.72,0-16.39-1.94-23.02-5.81s-11.79-9.29-15.59-16.23c-3.8-6.95-5.65-14.94-5.65-23.99s1.86-17.04,5.65-23.99c3.8-6.95,8.96-12.36,15.59-16.23,6.62-3.88,14.29-5.81,23.02-5.81s16.47,1.94,23.1,5.81c6.62,3.88,11.87,9.29,15.67,16.23,3.8,6.95,5.65,14.94,5.65,23.99s-1.86,17.04-5.65,23.99c-3.8,6.95-8.96,12.36-15.67,16.23-6.7,3.88-14.38,5.81-23.1,5.81ZM332.82,418.26c5.17,0,9.61-1.21,13.33-3.55,3.71-2.34,6.54-5.73,8.56-10.01,2.02-4.28,3.07-9.37,3.07-15.34s-1.05-11.06-3.07-15.34c-2.02-4.28-4.93-7.59-8.56-9.93-3.71-2.34-8.16-3.47-13.33-3.47s-9.37,1.13-13.08,3.47-6.62,5.65-8.64,9.93-3.07,9.37-3.07,15.34,1.05,11.06,3.07,15.34,4.93,7.59,8.64,10.01c3.71,2.34,8.08,3.55,13.08,3.55Z"/>
  </g>
</svg>