<?xml version="1.0" encoding="UTF-8"?>
<svg id="Layer_1" xmlns="http://www.w3.org/2000/svg" version="1.1" viewBox="0 0 500 500">
  <!-- Generator: Adobe Illustrator 29.5.1, SVG Export Plug-In . SVG Version: 2.1.0 Build 141)  -->
  <defs>
    <style>
      .st0 {
        fill: none;
      }

      .st1 {
        fill: #0060aa;
        fill-rule: evenodd;
      }
    </style>
  </defs>
  <rect class="st0" x="55.44" y="31.82" width="389.12" height="436.36"/>
  <path class="st1" d="M186.87,168.98l1.18-.63c.55-.31,1.18-.47,1.8-.63.63-.08,1.26-.08,1.88,0s1.26.31,1.8.63,1.1.71,1.57,1.1l3.69,3.69,3.69,3.69c.47.47.86.94,1.1,1.57.31.55.47,1.18.63,1.8s.08,1.26,0,1.88-.31,1.26-.63,1.8l-.63,1.26c-.86,1.57-1.26,3.3-1.26,5.1s.39,3.53,1.18,5.1c1.1,2.28,2.12,4.63,2.9,7.06.55,1.73,1.49,3.22,2.75,4.47s2.82,2.2,4.47,2.67l1.33.39c.63.16,1.18.47,1.73.86s.94.86,1.33,1.33c.39.55.71,1.1.86,1.73.24.63.31,1.26.31,1.88v10.44c0,.63-.08,1.26-.31,1.88s-.47,1.18-.86,1.73-.86.94-1.33,1.33c-.55.39-1.1.63-1.73.86l-1.33.39c-1.73.55-3.22,1.41-4.55,2.67-1.26,1.26-2.2,2.75-2.75,4.47-.78,2.43-1.8,4.71-2.9,7.06-.78,1.57-1.26,3.3-1.18,5.1,0,1.8.47,3.53,1.26,5.1l.63,1.26c.31.55.47,1.18.63,1.8.08.63.08,1.26,0,1.88s-.31,1.26-.63,1.8c-.31.55-.71,1.1-1.1,1.57l-3.69,3.69-3.69,3.69c-.47.47-.94.86-1.57,1.1-.55.31-1.18.47-1.8.63s-1.26.08-1.88,0-1.26-.31-1.8-.63l-1.18-.63c-1.57-.86-3.3-1.26-5.1-1.26s-3.53.39-5.1,1.26c-2.28,1.1-4.63,2.12-6.98,2.9-1.73.55-3.22,1.49-4.47,2.75s-2.2,2.82-2.67,4.55l-.39,1.33c-.24.63-.47,1.18-.86,1.73s-.86.94-1.33,1.33c-.55.39-1.1.71-1.73.86-.63.24-1.26.31-1.88.31h-10.44c-.63,0-1.26-.08-1.88-.31-.63-.24-1.18-.47-1.73-.86s-.94-.86-1.33-1.33c-.39-.55-.71-1.1-.86-1.73l-.39-1.33c-.55-1.73-1.41-3.22-2.67-4.55s-2.75-2.2-4.47-2.75c-2.43-.78-4.71-1.8-6.98-2.9-1.65-.86-3.3-1.26-5.1-1.26s-3.53.47-5.1,1.26l-1.26.63c-.55.31-1.18.47-1.8.63s-1.26.08-1.88,0-1.26-.31-1.8-.63-1.1-.71-1.57-1.1l-3.69-3.69-3.69-3.69c-.47-.47-.86-.94-1.1-1.57-.31-.55-.47-1.18-.63-1.8-.08-.63-.08-1.26,0-1.88s.31-1.26.63-1.8l.63-1.26c.86-1.57,1.26-3.3,1.26-5.1s-.39-3.53-1.26-5.1c-1.1-2.28-2.12-4.63-2.9-7.06-.55-1.73-1.49-3.22-2.75-4.47s-2.82-2.2-4.55-2.67l-1.33-.39c-.63-.24-1.18-.47-1.73-.86s-.94-.86-1.33-1.33c-.39-.55-.71-1.1-.86-1.73-.24-.63-.31-1.26-.31-1.88v-10.44c0-.63.08-1.26.31-1.88s.47-1.18.86-1.73.86-.94,1.33-1.33c.55-.39,1.1-.71,1.73-.86l1.33-.39c1.73-.55,3.22-1.41,4.47-2.67s2.2-2.75,2.75-4.47c.78-2.43,1.8-4.71,2.9-7.06.86-1.57,1.26-3.3,1.26-5.1s-.47-3.53-1.26-5.1l-.63-1.26c-.31-.55-.47-1.18-.63-1.8-.08-.63-.08-1.26,0-1.88s.31-1.26.63-1.8c.31-.55.71-1.1,1.1-1.57l3.69-3.69,3.69-3.69c.47-.47.94-.86,1.57-1.1.55-.31,1.18-.47,1.8-.63s1.26-.08,1.88,0,1.26.31,1.8.63l1.26.63c1.57.86,3.3,1.26,5.1,1.26s3.53-.39,5.1-1.26c2.28-1.1,4.63-2.12,6.98-2.9,1.73-.55,3.22-1.49,4.47-2.75s2.2-2.82,2.67-4.55l.39-1.33c.16-.63.47-1.18.86-1.73s.86-.94,1.33-1.33c.55-.39,1.1-.71,1.73-.86.63-.24,1.26-.31,1.88-.31h10.44c.63,0,1.26.08,1.88.31.63.24,1.18.47,1.73.86s.94.86,1.33,1.33c.39.55.71,1.1.86,1.73l.39,1.33c.55,1.73,1.41,3.22,2.67,4.55s2.75,2.2,4.47,2.75c2.43.78,4.71,1.8,6.98,2.9,1.57.86,3.3,1.26,5.1,1.26s3.53-.47,5.1-1.26h.16ZM244.39,393.56c-.55-.16-1.1-.39-1.57-.71s-.86-.78-1.18-1.26-.55-1.02-.63-1.57c-.08-.55-.08-1.18,0-1.73.16-.55.39-1.1.71-1.57s.78-.86,1.26-1.18,1.02-.55,1.57-.63c.55-.08,1.18-.08,1.73,0l81.14,17.97h0s.24,0,.39.08c.94.24,1.96.31,2.98.31s1.96-.08,2.98-.24c.94-.16,1.96-.47,2.9-.86s1.8-.86,2.67-1.33,1.65-1.18,2.35-1.8c.71-.71,1.41-1.41,1.96-2.28s1.1-1.65,1.49-2.59c.39-.94.78-1.88,1.02-2.82,0-.24.08-.47.16-.71.39-1.8.39-3.69.08-5.49,0-.16,0-.31-.08-.47-.39-1.96-1.1-3.77-2.2-5.49-1.1-1.73-2.43-3.14-4.08-4.32-1.65-1.18-3.45-2.04-5.41-2.51-.24,0-.47-.08-.71-.16l-66.93-14.83c-.47-.08-.86-.24-1.33-.55l-53.12-31.7c-2.04-1.26-4.24-2.28-6.51-3.14-2.28-.78-4.63-1.33-7.06-1.65s-4.79-.31-7.22,0c-2.43.24-4.79.71-7.06,1.49l-73.21,22.76,17.81,74.94,2.59-.71c5.26-1.57,10.67-2.04,16.09-1.41,5.49.55,10.59,2.2,15.46,4.79l77.6,40.57c2.28,1.26,4.71,2.28,7.3,2.9,2.51.71,5.1,1.1,7.77,1.1s5.26-.16,7.85-.71,5.02-1.41,7.45-2.51l159.68-73.29c.94-.55,1.88-1.18,2.82-1.88,4.71-3.53,8.24-7.85,9.73-12.48,1.41-4.39,1.02-9.18-1.96-13.97-.39-.55-.78-1.18-1.26-1.88-3.61-4.87-8-7.14-12.71-7.77-5.96-.71-12.48,1.33-18.36,4.63l-53.91,29.74c.08,1.96,0,3.92-.47,5.89v.31h0c-.31,1.65-.86,3.14-1.49,4.63s-1.41,2.82-2.35,4.16-1.96,2.51-3.06,3.61-2.35,2.12-3.69,2.98-2.75,1.57-4.24,2.2-2.98,1.02-4.55,1.33c-1.57.31-3.14.47-4.71.47s-3.14-.16-4.71-.47h-.31c-27.15-5.89-54.22-12.01-81.37-18.05h0l-.08-.16ZM96.79,335.57c.47-.08.86-.16,1.33,0,.47,0,.86.24,1.26.47.39.24.71.55.94.86s.47.78.55,1.18l22.6,95.18c.08.47.16.86,0,1.33,0,.47-.24.86-.47,1.26s-.55.71-.86.94c-.39.24-.78.47-1.18.55l-38.61,9.18c-.47.08-.86.16-1.33,0s-.86-.24-1.26-.47-.71-.55-.94-.86c-.24-.39-.47-.78-.55-1.18l-22.6-95.18c-.08-.47-.16-.86,0-1.33,0-.47.24-.86.47-1.26s.55-.71.86-.94c.39-.24.78-.47,1.18-.55l38.61-9.18h0ZM389.71,165.45l1.88-.94c.86-.47,1.8-.78,2.75-.94s1.96-.16,2.9,0,1.88.47,2.75.86,1.65,1.02,2.35,1.73l5.57,5.57,5.57,5.57c.71.71,1.26,1.49,1.73,2.35s.78,1.8.86,2.75c.16.94.16,1.96,0,2.9s-.47,1.88-.94,2.75l-.94,1.88c-1.26,2.43-1.96,5.02-1.96,7.77s.63,5.34,1.88,7.77c1.73,3.45,3.22,6.98,4.39,10.67.86,2.59,2.28,4.87,4.16,6.83,1.96,1.96,4.24,3.3,6.91,4.08l1.96.63c.94.31,1.8.71,2.59,1.33s1.49,1.26,2.04,2.04,1.02,1.65,1.33,2.59.47,1.88.47,2.9v15.85c0,.94-.16,1.96-.47,2.9s-.71,1.8-1.33,2.59c-.55.78-1.26,1.49-2.04,2.04s-1.65,1.02-2.59,1.33l-1.96.63c-2.59.78-4.94,2.2-6.91,4.08-1.96,1.96-3.37,4.24-4.16,6.83-1.26,3.69-2.75,7.22-4.39,10.67-1.26,2.43-1.88,5.02-1.88,7.77s.71,5.34,1.96,7.77l.94,1.88c.47.86.78,1.8.94,2.75s.16,1.96,0,2.9-.47,1.88-.86,2.75-1.02,1.65-1.73,2.35l-5.57,5.57-5.57,5.57c-.71.71-1.49,1.26-2.35,1.73s-1.8.78-2.75.86-1.96.16-2.9,0-1.88-.47-2.75-.94l-1.88-.94c-2.43-1.26-5.02-1.96-7.77-1.96s-5.34.63-7.77,1.88c-3.45,1.73-6.98,3.22-10.67,4.47-2.59.86-4.86,2.28-6.83,4.24s-3.3,4.24-4.08,6.91l-.63,1.96c-.31.94-.71,1.8-1.33,2.59s-1.26,1.49-2.04,2.04-1.65,1.02-2.59,1.33c-.94.31-1.88.47-2.9.47h-15.85c-1.02,0-1.96-.16-2.9-.47s-1.8-.71-2.59-1.33c-.78-.55-1.49-1.26-2.04-2.04s-1.02-1.65-1.33-2.59l-.63-1.96c-.78-2.67-2.2-4.94-4.08-6.91s-4.24-3.37-6.83-4.24c-3.69-1.26-7.22-2.75-10.67-4.47-2.43-1.26-5.02-1.88-7.77-1.88s-5.34.71-7.77,1.96l-1.88.94c-.86.47-1.8.78-2.75.94s-1.96.16-2.9,0-1.88-.47-2.75-.86c-.86-.47-1.65-1.02-2.35-1.73l-11.22-11.22c-.71-.71-1.26-1.49-1.73-2.35s-.78-1.8-.94-2.75-.16-1.96,0-2.9.47-1.88.94-2.75l.94-1.88c1.26-2.43,1.96-5.02,1.96-7.77s-.63-5.34-1.88-7.77c-1.73-3.45-3.22-7.06-4.39-10.67-.86-2.59-2.28-4.87-4.16-6.83-1.96-1.96-4.24-3.3-6.91-4.08l-1.96-.63c-.94-.31-1.8-.71-2.59-1.33s-1.49-1.26-2.04-2.04-1.02-1.65-1.33-2.59c-.31-.94-.47-1.88-.47-2.9v-15.85c0-1.02.16-1.96.47-2.9s.71-1.8,1.33-2.59c.55-.78,1.26-1.49,2.04-2.04s1.65-1.02,2.59-1.33l1.96-.63c2.59-.78,4.94-2.2,6.91-4.08,1.96-1.96,3.37-4.24,4.16-6.83,1.26-3.69,2.75-7.22,4.39-10.67,1.26-2.43,1.88-5.02,1.88-7.77s-.71-5.34-1.96-7.77l-.94-1.88c-.47-.86-.78-1.8-.94-2.75s-.16-1.96,0-2.9.47-1.88.86-2.75,1.02-1.65,1.73-2.35l5.57-5.57,5.57-5.57c.71-.71,1.49-1.26,2.35-1.73s1.8-.78,2.75-.94,1.96-.16,2.9,0,1.88.47,2.75.94l1.88.94c2.43,1.26,5.02,1.96,7.77,1.96s5.34-.63,7.77-1.88c3.45-1.73,6.98-3.22,10.67-4.47,2.59-.86,4.86-2.28,6.83-4.24s3.3-4.24,4.08-6.91l.63-1.96c.31-.94.71-1.8,1.33-2.59s1.26-1.49,2.04-2.04,1.65-1.02,2.59-1.33,1.88-.47,2.9-.47h15.85c1.02,0,1.96.16,2.9.47.94.31,1.8.71,2.59,1.33.78.55,1.49,1.26,2.04,2.04s1.02,1.65,1.33,2.59l.63,1.96c.78,2.67,2.2,4.94,4.08,6.91s4.24,3.37,6.83,4.24c3.69,1.26,7.22,2.75,10.67,4.39,2.43,1.26,5.02,1.88,7.77,1.88s5.34-.71,7.77-1.96l.16.24ZM335.18,188.6c-1.8,0-3.69.08-5.49.24s-3.61.47-5.41.78c-1.8.39-3.61.78-5.34,1.33s-3.45,1.18-5.18,1.88-3.37,1.49-4.94,2.35c-1.65.86-3.22,1.8-4.71,2.82s-2.98,2.12-4.39,3.3-2.75,2.43-4.08,3.69-2.51,2.67-3.69,4.08-2.28,2.9-3.3,4.39c-1.02,1.57-1.96,3.14-2.82,4.71-.86,1.65-1.65,3.3-2.35,4.94-.71,1.73-1.33,3.45-1.88,5.18-.55,1.73-.94,3.53-1.33,5.34-.39,1.8-.63,3.61-.78,5.41-.16,1.8-.24,3.69-.24,5.49s.08,3.69.24,5.49.47,3.61.78,5.41c.39,1.8.78,3.61,1.33,5.34s1.18,3.45,1.88,5.18,1.49,3.37,2.35,4.94c.86,1.57,1.8,3.22,2.82,4.71,1.02,1.57,2.12,2.98,3.3,4.39,1.18,1.41,2.43,2.75,3.69,4.08,1.33,1.33,2.67,2.51,4.08,3.69s2.9,2.28,4.39,3.3c1.49,1.02,3.06,1.96,4.71,2.82,1.65.86,3.3,1.65,4.94,2.35,1.73.71,3.45,1.33,5.18,1.88,1.73.55,3.53.94,5.34,1.33,1.8.39,3.61.63,5.41.78,1.8.16,3.69.24,5.49.24s3.69-.08,5.49-.24c1.8-.16,3.61-.47,5.41-.78,1.8-.39,3.61-.78,5.34-1.33s3.45-1.18,5.18-1.88,3.37-1.49,4.94-2.35c1.57-.86,3.22-1.8,4.71-2.82s2.98-2.12,4.39-3.3c1.41-1.18,2.75-2.43,4.08-3.69s2.51-2.67,3.69-4.08,2.28-2.9,3.3-4.39c1.02-1.49,1.96-3.14,2.82-4.71s1.65-3.3,2.35-4.94c.71-1.73,1.33-3.45,1.88-5.18.55-1.73.94-3.53,1.33-5.34.39-1.8.63-3.61.78-5.41.16-1.8.24-3.69.24-5.49s-.08-3.69-.24-5.49-.47-3.61-.78-5.41c-.39-1.8-.78-3.61-1.33-5.34s-1.18-3.45-1.88-5.18-1.49-3.37-2.35-4.94c-.86-1.65-1.8-3.22-2.82-4.71s-2.12-2.98-3.3-4.39c-1.18-1.41-2.43-2.75-3.69-4.08s-2.67-2.51-4.08-3.69-2.9-2.28-4.39-3.3-3.06-1.96-4.71-2.82-3.3-1.65-4.94-2.35c-1.73-.71-3.45-1.33-5.18-1.88-1.73-.55-3.53-.94-5.34-1.33-1.8-.39-3.61-.63-5.41-.78s-3.69-.24-5.49-.24ZM293.82,45c-1.33.71-2.75,1.1-4.24,1.1s-2.98-.31-4.32-1.02c-1.88-.94-3.84-1.73-5.89-2.43-1.41-.47-2.67-1.26-3.77-2.28s-1.8-2.35-2.28-3.77l-.39-1.1c-.31-1.1-.94-1.96-1.8-2.59-.86-.63-1.88-.94-3.06-.94h-8.71c-1.1,0-2.12.31-3.06.94-.86.63-1.49,1.49-1.8,2.59l-.39,1.1c-.47,1.41-1.18,2.67-2.28,3.77s-2.28,1.88-3.77,2.28c-2.04.71-4,1.49-5.89,2.43-1.33.71-2.75,1.02-4.32,1.02s-2.9-.39-4.24-1.1l-1.02-.55c-1.02-.47-2.04-.71-3.14-.47-1.1.16-2.04.63-2.82,1.49l-3.06,3.06-3.06,3.14c-.78.78-1.26,1.73-1.49,2.82-.16,1.1,0,2.12.47,3.14l.55,1.02c.71,1.33,1.1,2.75,1.1,4.32s-.31,2.98-1.02,4.32c-.94,1.88-1.73,3.84-2.43,5.89-.47,1.41-1.26,2.67-2.28,3.77-1.1,1.1-2.35,1.8-3.77,2.28l-1.1.39c-1.1.31-1.88.94-2.59,1.88-.63.86-.94,1.88-.94,2.98v8.71c0,1.1.31,2.12.94,3.06.63.86,1.49,1.49,2.59,1.88l1.1.31c1.41.47,2.67,1.18,3.77,2.28,1.1,1.1,1.8,2.28,2.28,3.77.71,2.04,1.49,4,2.43,5.89.71,1.33,1.02,2.75,1.02,4.32s-.39,2.9-1.1,4.32l-.55,1.02c-.55,1.02-.71,2.04-.55,3.14s.63,2.04,1.49,2.82l6.2,6.2c.78.78,1.73,1.26,2.82,1.41,1.1.16,2.12,0,3.14-.47l1.02-.55c1.33-.71,2.75-1.1,4.24-1.1s2.98.31,4.32,1.02c1.88.94,3.84,1.73,5.89,2.43,1.41.47,2.67,1.26,3.77,2.28,1.1,1.1,1.8,2.35,2.28,3.77l.31,1.1c.31,1.1.94,1.88,1.88,2.59.86.63,1.88.94,2.98.94h8.71c1.1,0,2.12-.31,2.98-.94.86-.63,1.49-1.49,1.88-2.59l.31-1.1c.47-1.41,1.18-2.75,2.28-3.77,1.1-1.1,2.35-1.88,3.77-2.28,2.04-.71,4-1.49,5.89-2.43,1.33-.71,2.75-1.02,4.32-1.02s2.9.39,4.32,1.1l1.02.55c1.02.55,2.04.71,3.14.47,1.1-.16,2.04-.63,2.82-1.41l3.06-3.06,3.06-3.06c.78-.78,1.26-1.73,1.41-2.82.16-1.1,0-2.12-.47-3.14l-.55-1.02c-.71-1.33-1.1-2.75-1.1-4.32s.31-2.98,1.02-4.32c.94-1.88,1.73-3.84,2.43-5.89.47-1.41,1.26-2.67,2.28-3.77,1.1-1.1,2.35-1.8,3.77-2.28l1.1-.31c1.1-.31,1.96-.94,2.59-1.88.63-.86.94-1.88.94-3.06v-8.71c0-1.1-.31-2.12-.94-2.98-.63-.86-1.49-1.49-2.59-1.88l-1.1-.39c-1.41-.47-2.75-1.18-3.77-2.28-1.1-1.1-1.88-2.35-2.28-3.77-.71-2.04-1.49-4-2.43-5.89-.71-1.33-1.02-2.82-1.02-4.32s.39-2.9,1.1-4.32l.55-1.02c.55-1.02.71-2.04.55-3.14s-.63-2.04-1.49-2.82l-6.2-6.2c-.78-.78-1.73-1.26-2.82-1.49-1.1-.16-2.12,0-3.14.55l-1.02.55.16-.16ZM263.77,62.97c1.65,0,3.37.16,5.02.47,1.65.31,3.3.78,4.79,1.49,1.57.63,3.06,1.41,4.47,2.35,1.41.94,2.67,2.04,3.84,3.22s2.28,2.51,3.22,3.92,1.73,2.9,2.35,4.47c.63,1.57,1.1,3.14,1.49,4.79s.47,3.3.47,5.02-.16,3.37-.47,5.02-.78,3.3-1.49,4.79c-.63,1.57-1.41,3.06-2.35,4.47-.94,1.41-2.04,2.67-3.22,3.92-1.18,1.18-2.51,2.28-3.84,3.22-1.41.94-2.9,1.73-4.47,2.35s-3.14,1.1-4.79,1.49c-1.65.31-3.3.47-5.02.47s-3.37-.16-5.02-.47c-1.65-.31-3.3-.78-4.79-1.49-1.57-.63-3.06-1.41-4.47-2.35s-2.67-2.04-3.84-3.22-2.28-2.51-3.22-3.92-1.73-2.9-2.35-4.47c-.63-1.57-1.1-3.14-1.49-4.79s-.47-3.3-.47-5.02.16-3.37.47-5.02.78-3.3,1.49-4.79c.63-1.57,1.41-3.06,2.35-4.47s2.04-2.67,3.22-3.92c1.18-1.18,2.51-2.28,3.84-3.22,1.41-.94,2.9-1.73,4.47-2.35s3.14-1.1,4.79-1.49c1.65-.31,3.3-.47,5.02-.47ZM151.01,190.4c-2.04,0-4,.24-5.96.63-1.96.39-3.92.94-5.73,1.73-1.88.78-3.61,1.73-5.26,2.82-1.65,1.1-3.22,2.35-4.63,3.77s-2.67,2.98-3.77,4.63-2.04,3.45-2.82,5.34c-.78,1.88-1.33,3.77-1.73,5.73-.39,1.96-.55,4-.55,5.96s.16,4,.55,5.96.94,3.84,1.73,5.73c.78,1.88,1.73,3.61,2.82,5.34s2.35,3.22,3.77,4.63c1.41,1.41,2.98,2.67,4.63,3.77s3.45,2.04,5.26,2.82c1.88.78,3.77,1.33,5.73,1.73,1.96.39,3.92.55,5.96.55s4-.16,5.96-.55,3.84-.94,5.73-1.73c1.88-.78,3.61-1.73,5.26-2.82s3.22-2.35,4.63-3.77,2.67-2.98,3.77-4.63,2.04-3.45,2.82-5.34c.78-1.88,1.33-3.77,1.73-5.73s.63-4,.63-5.96-.24-4-.63-5.96-.94-3.92-1.73-5.73c-.78-1.88-1.73-3.61-2.82-5.34s-2.35-3.22-3.77-4.63c-1.41-1.41-2.98-2.67-4.63-3.77s-3.45-2.04-5.26-2.82c-1.88-.78-3.77-1.33-5.73-1.73-1.96-.39-4-.63-5.96-.63Z"/>
</svg>