<?xml version="1.0" encoding="UTF-8"?>
<svg id="Layer_1" xmlns="http://www.w3.org/2000/svg" version="1.1" viewBox="0 0 500 500">
  <!-- Generator: Adobe Illustrator 29.5.1, SVG Export Plug-In . SVG Version: 2.1.0 Build 141)  -->
  <defs>
    <style>
      .st0 {
        fill: none;
      }

      .st1 {
        fill: #0060aa;
        fill-rule: evenodd;
      }
    </style>
  </defs>
  <rect class="st0" x="85.64" y="25.81" width="328.72" height="448.38"/>
  <path class="st1" d="M387.91,231.61h-27.6c-.51,0-.94-.43-.94-.94v-94.37c0-8.24-6.72-14.96-14.89-14.96h-31.29c-.72,0-1.23-.58-1.23-1.3v-7.73c0-8.24-6.72-14.96-14.89-14.96h-44.95c-8.24,0-14.89,6.72-14.89,14.96v17.99c0,.72-.58,1.3-1.3,1.3h-29.27c-.65,0-1.23-.58-1.23-1.3v-17.99c0-8.24-6.72-14.96-14.89-14.96h-41.98c-8.24,0-14.89,6.72-14.89,14.96v70.24c0,.51-.43.94-.94.94h-27.6c-10.48,0-18.93,8.53-18.93,19v168.08c0,10.48,8.53,19,18.93,19h45.16c.43,0,.79.29.87.72,3.32,16.55,12.36,30.71,26.23,40.76l51.81,37.5c3.25,2.31,8.53,5.49,12.36,4.19,2.67-.94,5.56-2.46,7.95-4.19l51.81-37.5c13.87-10.04,22.98-24.21,26.23-40.76.07-.43.43-.72.87-.72h59.54c10.48,0,18.93-8.53,18.93-19v-120.03c0-10.48-8.53-19-18.93-19l-.07.07ZM284.22,326.85c2.82-2.53,7.08-2.31,9.61.51,2.53,2.82,2.31,7.08-.51,9.61l-58.31,52.75h0c-2.67,2.67-6.94,2.67-9.61,0l-24.79-24.86c-2.67-2.67-2.67-7.01,0-9.68,2.67-2.67,7.01-2.67,9.61,0l19.58,19.66s.87.36,1.23,0l53.18-48.05v.07ZM323.89,38.17c0-6.21,5.06-11.27,11.27-11.27h29.27c6.21,0,11.27,5.06,11.27,11.27v33.38c0,.51.43.94.94.94h26.23c6.21,0,11.27,5.06,11.27,11.27v29.34c0,6.21-5.06,11.27-11.27,11.27h-22.26c-6.21,0-11.27-5.06-11.27-11.27v-33.38c0-.51-.43-.94-.94-.94h-33.31c-6.21,0-11.27-5.06-11.27-11.27v-29.34h.07ZM235.87,77.77c6.21,0,11.27-5.06,11.27-11.27v-29.34c0-6.21-5.06-11.27-11.27-11.27h-29.27c-6.21,0-11.27,5.06-11.27,11.27v29.34c0,6.21,5.06,11.27,11.27,11.27h29.27ZM315.22,284.36v91.7c0,17.99-7.44,33.53-21.97,44.01l-51.74,37.5h0l-1.73,1.08s-.65.22-.94,0c-.58-.36-1.16-.72-1.73-1.16l-51.81-37.5c-14.45-10.48-21.97-26.01-21.97-44.01v-91.7c0-.51.36-.87.87-.94,26.95-1.45,52.61-10.48,74.57-25.8.29-.22.72-.22,1.01,0,21.97,15.25,47.62,24.35,74.57,25.8.51,0,.87.43.87.94v.07ZM261.31,183.56h-113.23c-.51,0-.94-.43-.94-.94v-70.24c0-.72.58-1.3,1.3-1.3h41.91c.72,0,1.3.58,1.3,1.3v17.99c0,8.24,6.72,14.96,14.89,14.96h29.27c8.24,0,14.89-6.72,14.89-14.96v-17.99c0-.72.58-1.3,1.23-1.3h44.95c.72,0,1.3.58,1.3,1.3v7.73c0,8.24,6.72,14.96,14.89,14.96h31.29c.72,0,1.23.58,1.23,1.3v94.37c0,.51-.43.94-.94.94h-19.15c-5.71,0-10.33-2.1-14.02-6.43l-26.01-30.42c-6.21-7.3-14.81-11.27-24.35-11.27h.22Z"/>
</svg>